<svg width="683" height="694" viewBox="0 0 683 694" fill="none" xmlns="http://www.w3.org/2000/svg">
<path opacity="0.5" d="M231.846 296.543L677.862 174.803" stroke="#969696" stroke-width="0.105943" stroke-miterlimit="10" stroke-linecap="round"/>
<path d="M588.261 61.8035L682 228.759" stroke="#969696" stroke-width="0.176571" stroke-miterlimit="10" stroke-linecap="round"/>
<path d="M682 419.395L398.794 685.284" stroke="#969696" stroke-width="0.176571" stroke-miterlimit="10" stroke-linecap="round"/>
<path d="M682 408.747L398.794 636.095" stroke="#969696" stroke-width="0.176571" stroke-miterlimit="10" stroke-linecap="round"/>
<path d="M1 272.544L214.897 192.761" stroke="#969696" stroke-width="0.176571" stroke-miterlimit="10" stroke-linecap="round"/>
<path d="M588.261 303.138L191.024 192.761" stroke="#969696" stroke-width="0.176571" stroke-miterlimit="10" stroke-linecap="round"/>
<path d="M1 424.719L230.016 495.681" stroke="#969696" stroke-width="0.176571" stroke-miterlimit="10" stroke-linecap="round"/>
<path d="M434.602 636.095L1 444.982" stroke="#969696" stroke-width="0.176571" stroke-miterlimit="10" stroke-linecap="round"/>
<path d="M434.602 685.284L1 465.246" stroke="#969696" stroke-width="0.176571" stroke-miterlimit="10" stroke-linecap="round"/>
<path d="M418.21 275.166L682 329.52" stroke="#969696" stroke-width="0.176571" stroke-miterlimit="10" stroke-linecap="round"/>
<path d="M446.539 277.073L1 336.91" stroke="#969696" stroke-width="0.176571" stroke-miterlimit="10" stroke-linecap="round"/>
<path d="M1 420.507L459.032 545.346" stroke="#969696" stroke-width="0.176571" stroke-miterlimit="10" stroke-linecap="round"/>
<path d="M424.417 545.346L682 394.125" stroke="#969696" stroke-width="0.176571" stroke-miterlimit="10" stroke-linecap="round"/>
<path d="M631.788 76.2661L1 302.343" stroke="#969696" stroke-width="0.176571" stroke-miterlimit="10" stroke-linecap="round"/>
<path d="M230.016 350.896L1 355.505" stroke="#969696" stroke-width="0.176571" stroke-miterlimit="10" stroke-linecap="round"/>
<path d="M191.024 350.896L682 359.478" stroke="#969696" stroke-width="0.176571" stroke-miterlimit="10" stroke-linecap="round"/>
<path d="M202.642 495.681L682 374.497" stroke="#969696" stroke-width="0.176571" stroke-miterlimit="10" stroke-linecap="round"/>
<g opacity="0.5">
<path opacity="0.5" d="M588.261 56.5591L682 223.594" stroke="#969696" stroke-width="0.105943" stroke-miterlimit="10" stroke-linecap="round"/>
<path opacity="0.5" d="M682 414.15L398.794 680.119" stroke="#969696" stroke-width="0.105943" stroke-miterlimit="10" stroke-linecap="round"/>
<path opacity="0.5" d="M682 403.581L398.794 630.85" stroke="#969696" stroke-width="0.105943" stroke-miterlimit="10" stroke-linecap="round"/>
<path opacity="0.5" d="M1 267.299L214.897 187.517" stroke="#969696" stroke-width="0.105943" stroke-miterlimit="10" stroke-linecap="round"/>
<path opacity="0.5" d="M588.261 297.893L191.024 187.517" stroke="#969696" stroke-width="0.105943" stroke-miterlimit="10" stroke-linecap="round"/>
<path opacity="0.5" d="M1 419.475L230.016 490.437" stroke="#969696" stroke-width="0.105943" stroke-miterlimit="10" stroke-linecap="round"/>
<path opacity="0.5" d="M434.602 630.85L1 439.738" stroke="#969696" stroke-width="0.105943" stroke-miterlimit="10" stroke-linecap="round"/>
<path opacity="0.5" d="M434.602 680.119L1 460.001" stroke="#969696" stroke-width="0.105943" stroke-miterlimit="10" stroke-linecap="round"/>
<path opacity="0.5" d="M418.21 269.922L682 324.276" stroke="#969696" stroke-width="0.105943" stroke-miterlimit="10" stroke-linecap="round"/>
<path opacity="0.5" d="M446.539 271.829L1 331.666" stroke="#969696" stroke-width="0.105943" stroke-miterlimit="10" stroke-linecap="round"/>
<path opacity="0.5" d="M1 415.342L459.032 540.102" stroke="#969696" stroke-width="0.105943" stroke-miterlimit="10" stroke-linecap="round"/>
<path opacity="0.5" d="M424.417 540.102L682 388.96" stroke="#969696" stroke-width="0.105943" stroke-miterlimit="10" stroke-linecap="round"/>
<path opacity="0.5" d="M631.788 71.1008L1 297.099" stroke="#969696" stroke-width="0.105943" stroke-miterlimit="10" stroke-linecap="round"/>
<path opacity="0.5" d="M230.016 345.731L1 350.34" stroke="#969696" stroke-width="0.105943" stroke-miterlimit="10" stroke-linecap="round"/>
<path opacity="0.5" d="M191.024 345.731L682 354.314" stroke="#969696" stroke-width="0.105943" stroke-miterlimit="10" stroke-linecap="round"/>
<path opacity="0.5" d="M202.642 490.437L682 369.332" stroke="#969696" stroke-width="0.105943" stroke-miterlimit="10" stroke-linecap="round"/>
</g>
<g opacity="0.5">
<path opacity="0.5" d="M588.261 65.7769L682 232.812" stroke="#969696" stroke-width="0.105943" stroke-miterlimit="10" stroke-linecap="round"/>
<path opacity="0.5" d="M682 423.368L398.794 689.336" stroke="#969696" stroke-width="0.105943" stroke-miterlimit="10" stroke-linecap="round"/>
<path opacity="0.5" d="M682 412.8L398.794 640.069" stroke="#969696" stroke-width="0.105943" stroke-miterlimit="10" stroke-linecap="round"/>
<path opacity="0.5" d="M1 276.517L214.897 196.735" stroke="#969696" stroke-width="0.105943" stroke-miterlimit="10" stroke-linecap="round"/>
<path opacity="0.5" d="M588.261 307.111L191.024 196.735" stroke="#969696" stroke-width="0.105943" stroke-miterlimit="10" stroke-linecap="round"/>
<path opacity="0.5" d="M1 428.692L230.016 499.654" stroke="#969696" stroke-width="0.105943" stroke-miterlimit="10" stroke-linecap="round"/>
<path opacity="0.5" d="M434.602 640.068L1 448.956" stroke="#969696" stroke-width="0.105943" stroke-miterlimit="10" stroke-linecap="round"/>
<path opacity="0.5" d="M434.602 689.336L1 469.219" stroke="#969696" stroke-width="0.105943" stroke-miterlimit="10" stroke-linecap="round"/>
<path opacity="0.5" d="M418.21 279.14L682 333.493" stroke="#969696" stroke-width="0.105943" stroke-miterlimit="10" stroke-linecap="round"/>
<path opacity="0.5" d="M446.539 281.047L1 340.884" stroke="#969696" stroke-width="0.105943" stroke-miterlimit="10" stroke-linecap="round"/>
<path opacity="0.5" d="M1 424.56L459.032 549.319" stroke="#969696" stroke-width="0.105943" stroke-miterlimit="10" stroke-linecap="round"/>
<path opacity="0.5" d="M424.417 549.32L682 398.178" stroke="#969696" stroke-width="0.105943" stroke-miterlimit="10" stroke-linecap="round"/>
<path opacity="0.5" d="M631.788 80.3186L1 306.316" stroke="#969696" stroke-width="0.105943" stroke-miterlimit="10" stroke-linecap="round"/>
<path opacity="0.5" d="M230.016 354.949L1 359.558" stroke="#969696" stroke-width="0.105943" stroke-miterlimit="10" stroke-linecap="round"/>
<path opacity="0.5" d="M191.024 354.949L682 363.531" stroke="#969696" stroke-width="0.105943" stroke-miterlimit="10" stroke-linecap="round"/>
<path opacity="0.5" d="M202.642 499.654L682 378.55" stroke="#969696" stroke-width="0.105943" stroke-miterlimit="10" stroke-linecap="round"/>
</g>
<path d="M8.48002 270.24V469.06L14.7664 472.239V267.856L8.48002 270.24Z" stroke="#969696" stroke-width="0.176571" stroke-miterlimit="10" stroke-linecap="round"/>
<path d="M14.7664 267.856L21.6098 269.286V470.173L14.7664 472.239" stroke="#969696" stroke-width="0.176571" stroke-miterlimit="10" stroke-linecap="round"/>
<path d="M217.761 491.867V200.152L231.846 204.045V488.291L217.761 491.867Z" stroke="#969696" stroke-width="0.176571" stroke-miterlimit="10" stroke-linecap="round"/>
<path d="M217.761 200.152L204.234 204.363V487.655L217.761 491.867V200.152Z" stroke="#969696" stroke-width="0.176571" stroke-miterlimit="10" stroke-linecap="round"/>
<path d="M283.808 299.96V497.588L294.074 500.37V298.609L283.808 299.96Z" stroke="#969696" stroke-width="0.176571" stroke-miterlimit="10" stroke-linecap="round"/>
<path d="M294.074 298.609L304.418 300.198V496.635L294.074 500.37" stroke="#969696" stroke-width="0.176571" stroke-miterlimit="10" stroke-linecap="round"/>
<path d="M435.398 538.91V278.663L420.916 280.491V535.016L435.398 538.91Z" stroke="#969696" stroke-width="0.176571" stroke-miterlimit="10" stroke-linecap="round"/>
<path d="M435.398 278.663L448.528 281.365V531.202L435.398 538.91V278.663Z" stroke="#969696" stroke-width="0.176571" stroke-miterlimit="10" stroke-linecap="round"/>
<path d="M602.346 86.835V494.251L610.144 486.86V100.821L602.346 86.835Z" stroke="#969696" stroke-width="0.353142" stroke-miterlimit="10" stroke-linecap="round"/>
<path d="M602.346 86.835L590.091 91.2055V492.582L602.346 494.251V86.835Z" stroke="#969696" stroke-width="0.353142" stroke-miterlimit="10" stroke-linecap="round"/>
<path d="M670.064 207.383V430.679L665.289 435.049V199.039L670.064 207.383Z" stroke="#969696" stroke-width="0.176571" stroke-miterlimit="10" stroke-linecap="round"/>
<path d="M665.289 199.039L657.969 201.502V435.049H665.289" stroke="#969696" stroke-width="0.176571" stroke-miterlimit="10" stroke-linecap="round"/>
<path d="M377.388 167.412V463.339L388.051 465.246V163.598L377.388 167.412Z" stroke="#969696" stroke-width="0.176571" stroke-miterlimit="10" stroke-linecap="round"/>
<path d="M388.051 163.598L398.794 169.399V460.16L388.051 465.246V163.598Z" stroke="#969696" stroke-width="0.176571" stroke-miterlimit="10" stroke-linecap="round"/>
<path d="M612.611 495.681L1 411.607" stroke="#969696" stroke-width="0.176571" stroke-miterlimit="10" stroke-linecap="round"/>
<path d="M657.969 478.278L556.511 467.789V303.456" stroke="#969696" stroke-width="0.353142" stroke-miterlimit="10" stroke-linecap="round"/>
<path d="M543.858 132.209L430.385 169.796" stroke="#969696" stroke-width="0.353142" stroke-miterlimit="10" stroke-linecap="round"/>
<path d="M437.547 162.088V278.663" stroke="#969696" stroke-width="0.353142" stroke-miterlimit="10" stroke-linecap="round"/>
<path d="M437.547 167.412L460.703 177.504L538.368 153.426" stroke="#969696" stroke-width="0.353142" stroke-miterlimit="10" stroke-linecap="round"/>
<path d="M460.703 177.504V282.557" stroke="#969696" stroke-width="0.353142" stroke-miterlimit="10" stroke-linecap="round"/>
<path d="M468.979 285.576V183.305L538.368 162.088" stroke="#969696" stroke-width="0.353142" stroke-miterlimit="10" stroke-linecap="round"/>
<path d="M468.979 183.305L474.708 186.722L538.368 167.412" stroke="#969696" stroke-width="0.353142" stroke-miterlimit="10" stroke-linecap="round"/>
<path d="M474.708 186.722V286.768" stroke="#969696" stroke-width="0.353142" stroke-miterlimit="10" stroke-linecap="round"/>
<path d="M511.312 170.352V294.317" stroke="#969696" stroke-width="0.353142" stroke-miterlimit="10" stroke-linecap="round"/>
<path d="M516.644 295.43V168.763L520.941 172.657V296.304" stroke="#969696" stroke-width="0.353142" stroke-miterlimit="10" stroke-linecap="round" stroke-linejoin="round"/>
<path d="M620.807 170.908V278.663L650.966 293.92V210.402L620.807 170.908Z" stroke="#969696" stroke-width="0.353142" stroke-miterlimit="10" stroke-linecap="round"/>
<path d="M650.966 210.403H642.372L620.807 187.914" stroke="#969696" stroke-width="0.353142" stroke-miterlimit="10" stroke-linecap="round"/>
<path d="M642.372 210.403V289.311" stroke="#969696" stroke-width="0.353142" stroke-miterlimit="10" stroke-linecap="round"/>
<path d="M639.507 288.119V212.389L620.807 192.761" stroke="#969696" stroke-width="0.353142" stroke-miterlimit="10" stroke-linecap="round"/>
<path d="M639.507 212.389H637.2L620.807 196.655" stroke="#969696" stroke-width="0.353142" stroke-miterlimit="10" stroke-linecap="round"/>
<path d="M637.2 212.389V286.927" stroke="#969696" stroke-width="0.353142" stroke-miterlimit="10" stroke-linecap="round"/>
<path d="M407.388 531.838V314.422L312.455 324.355V505.455L336.805 495.681V321.812" stroke="#969696" stroke-width="0.353142" stroke-miterlimit="10" stroke-linecap="round"/>
<path d="M336.805 495.681L407.388 513.799" stroke="#969696" stroke-width="0.353142" stroke-miterlimit="10" stroke-linecap="round"/>
<path d="M368.555 339.135L344.683 341.042V385.225H368.555V339.135Z" stroke="#969696" stroke-width="0.353142" stroke-miterlimit="10" stroke-linecap="round"/>
<path d="M373.728 339.136V385.225H403.011V336.911L373.728 339.136Z" stroke="#969696" stroke-width="0.353142" stroke-miterlimit="10" stroke-linecap="round"/>
<path d="M344.683 390.947H368.555V433.381L344.683 431.791V390.947Z" stroke="#969696" stroke-width="0.353142" stroke-miterlimit="10" stroke-linecap="round"/>
<path d="M373.728 390.947V433.381L403.011 435.049V391.582L373.728 390.947Z" stroke="#969696" stroke-width="0.353142" stroke-miterlimit="10" stroke-linecap="round"/>
<path d="M463.408 314.422V355.664L546.246 357.095V324.832L463.408 314.422Z" stroke="#969696" stroke-width="0.353142" stroke-miterlimit="10" stroke-linecap="round"/>
<path d="M536.935 356.936V323.64" stroke="#969696" stroke-width="0.353142" stroke-miterlimit="10" stroke-linecap="round"/>
<path d="M502.002 319.269V356.379" stroke="#969696" stroke-width="0.353142" stroke-miterlimit="10" stroke-linecap="round"/>
<path d="M508.766 320.144V356.379" stroke="#969696" stroke-width="0.353142" stroke-miterlimit="10" stroke-linecap="round"/>
<path d="M497.069 319.269V356.3" stroke="#969696" stroke-width="0.353142" stroke-miterlimit="10" stroke-linecap="round"/>
<path d="M620.807 333.97V358.445L650.966 358.922V338.261L620.807 333.97Z" stroke="#969696" stroke-width="0.353142" stroke-miterlimit="10" stroke-linecap="round"/>
<path d="M646.351 337.546V358.843" stroke="#969696" stroke-width="0.353142" stroke-miterlimit="10" stroke-linecap="round"/>
<path d="M635.847 336.116V358.684" stroke="#969696" stroke-width="0.353142" stroke-miterlimit="10" stroke-linecap="round"/>
<path d="M631.789 335.798V358.604" stroke="#969696" stroke-width="0.353142" stroke-miterlimit="10" stroke-linecap="round"/>
<path d="M629.162 335.162V358.604" stroke="#969696" stroke-width="0.353142" stroke-miterlimit="10" stroke-linecap="round"/>
<path d="M8.48002 265.472V448.32L411.526 625.924L602.346 472.557L556.511 467.789L435.398 538.91V278.663L240.997 304.648V485.986" stroke="#969696" stroke-width="0.706285" stroke-miterlimit="10" stroke-linecap="round"/>
<path d="M602.346 76.2661V313.071" stroke="#969696" stroke-width="0.706285" stroke-miterlimit="10" stroke-linecap="round"/>
<path d="M204.711 196.576V351.453H217.761V491.867L240.997 485.986L312.455 505.455" stroke="#969696" stroke-width="0.706285" stroke-miterlimit="10" stroke-linecap="round"/>
<path d="M71.5827 446.572L21.6098 453.644V355.505L70.6278 354.154L71.5827 446.572ZM71.5827 446.572L217.761 491.867" stroke="#969696" stroke-width="0.706285" stroke-miterlimit="10" stroke-linecap="round"/>
<path d="M8.48002 448.32V469.06L411.367 673.523V625.924" stroke="#969696" stroke-width="0.706285" stroke-miterlimit="10" stroke-linecap="round"/>
<path d="M171.847 658.822C195.579 658.822 214.817 651.457 214.817 642.373C214.817 633.288 195.579 625.924 171.847 625.924C148.115 625.924 128.876 633.288 128.876 642.373C128.876 651.457 148.115 658.822 171.847 658.822Z" stroke="#969696" stroke-width="0.353142" stroke-miterlimit="10" stroke-linecap="round"/>
<path d="M119.725 600.256C131.591 600.256 141.211 596.556 141.211 591.992C141.211 587.428 131.591 583.728 119.725 583.728C107.859 583.728 98.2403 587.428 98.2403 591.992C98.2403 596.556 107.859 600.256 119.725 600.256Z" stroke="#969696" stroke-width="0.353142" stroke-miterlimit="10" stroke-linecap="round"/>
<path d="M620.807 560.604C632.673 560.604 642.292 556.903 642.292 552.339C642.292 547.775 632.673 544.075 620.807 544.075C608.941 544.075 599.322 547.775 599.322 552.339C599.322 556.903 608.941 560.604 620.807 560.604Z" stroke="#969696" stroke-width="0.353142" stroke-miterlimit="10" stroke-linecap="round"/>
<path d="M582.054 600.256C593.92 600.256 603.539 596.556 603.539 591.992C603.539 587.428 593.92 583.728 582.054 583.728C570.188 583.728 560.569 587.428 560.569 591.992C560.569 596.556 570.188 600.256 582.054 600.256Z" stroke="#969696" stroke-width="0.353142" stroke-miterlimit="10" stroke-linecap="round"/>
<path d="M536.935 650.637C548.801 650.637 558.421 646.937 558.421 642.373C558.421 637.808 548.801 634.108 536.935 634.108C525.069 634.108 515.45 637.808 515.45 642.373C515.45 646.937 525.069 650.637 536.935 650.637Z" stroke="#969696" stroke-width="0.353142" stroke-miterlimit="10" stroke-linecap="round"/>
<path d="M411.367 673.523L670.064 430.679V207.383L602.346 86.835L377.388 167.412V244.493L204.711 196.576L8.48002 270.24" stroke="#969696" stroke-width="0.706285" stroke-miterlimit="10" stroke-linecap="round"/>
<path d="M377.388 244.493V286.371" stroke="#969696" stroke-width="0.706285" stroke-miterlimit="10" stroke-linecap="round"/>
<path d="M602.346 472.557V313.071" stroke="#969696" stroke-width="0.706285" stroke-miterlimit="10" stroke-linecap="round"/>
<path d="M435.398 278.663L555.874 303.456L556.511 467.789" stroke="#969696" stroke-width="0.706285" stroke-miterlimit="10" stroke-linecap="round"/>
<path d="M242.589 233.527V278.663L363.701 302.343V264.598L242.589 233.527Z" stroke="#969696" stroke-width="0.353142" stroke-miterlimit="10" stroke-linecap="round"/>
<path d="M363.701 264.598L353.993 267.061L354.471 300.516" stroke="#969696" stroke-width="0.353142" stroke-miterlimit="10" stroke-linecap="round"/>
<path d="M353.993 267.061L242.589 239.407" stroke="#969696" stroke-width="0.353142" stroke-miterlimit="10" stroke-linecap="round"/>
<path d="M350.572 299.721V269.127L242.589 242.586" stroke="#969696" stroke-width="0.353142" stroke-miterlimit="10" stroke-linecap="round"/>
<path d="M350.572 269.127H347.946V299.244" stroke="#969696" stroke-width="0.353142" stroke-miterlimit="10" stroke-linecap="round"/>
<path d="M325.426 263.009V294.794" stroke="#969696" stroke-width="0.353142" stroke-miterlimit="10" stroke-linecap="round"/>
<path d="M321.686 262.055V293.841" stroke="#969696" stroke-width="0.353142" stroke-miterlimit="10" stroke-linecap="round"/>
<path d="M319.14 262.055V293.682" stroke="#969696" stroke-width="0.353142" stroke-miterlimit="10" stroke-linecap="round"/>
<path d="M283.808 253.234V286.689" stroke="#969696" stroke-width="0.353142" stroke-miterlimit="10" stroke-linecap="round"/>
<path d="M278.636 285.656V251.486" stroke="#969696" stroke-width="0.353142" stroke-miterlimit="10" stroke-linecap="round"/>
<path d="M275.612 250.771V284.941" stroke="#969696" stroke-width="0.353142" stroke-miterlimit="10" stroke-linecap="round"/>
<path d="M204.711 351.452L70.6278 354.154" stroke="#969696" stroke-width="0.706285" stroke-miterlimit="10" stroke-linecap="round"/>
<path d="M169.141 242.03V314.263" stroke="#969696" stroke-width="0.353142" stroke-miterlimit="10" stroke-linecap="round"/>
<path d="M115.508 261.26V321.494" stroke="#969696" stroke-width="0.353142" stroke-miterlimit="10" stroke-linecap="round"/>
<path d="M82.8823 272.941V325.865" stroke="#969696" stroke-width="0.353142" stroke-miterlimit="10" stroke-linecap="round"/>
<path d="M39.5937 288.437V333.017" stroke="#969696" stroke-width="0.353142" stroke-miterlimit="10" stroke-linecap="round"/>
<path d="M39.5937 288.437L46.0393 289.311V330.792" stroke="#969696" stroke-width="0.353142" stroke-miterlimit="10" stroke-linecap="round"/>
<path d="M46.0392 289.311L82.8823 277.55" stroke="#969696" stroke-width="0.353142" stroke-miterlimit="10" stroke-linecap="round"/>
<path d="M115.508 261.26L124.182 262.293V320.143" stroke="#969696" stroke-width="0.353142" stroke-miterlimit="10" stroke-linecap="round"/>
<path d="M124.182 262.293L169.141 246.877" stroke="#969696" stroke-width="0.353142" stroke-miterlimit="10" stroke-linecap="round"/>
<path d="M126.887 319.984V264.041L169.141 249.817" stroke="#969696" stroke-width="0.353142" stroke-miterlimit="10" stroke-linecap="round"/>
<path d="M150.919 255.936V316.726" stroke="#969696" stroke-width="0.353142" stroke-miterlimit="10" stroke-linecap="round"/>
<path d="M154.42 316.249V254.823L156.887 255.936V315.932" stroke="#969696" stroke-width="0.353142" stroke-miterlimit="10" stroke-linecap="round"/>
<path d="M126.887 264.041L128.876 264.836V319.667" stroke="#969696" stroke-width="0.353142" stroke-miterlimit="10" stroke-linecap="round"/>
<path d="M128.876 264.836L150.919 257.764" stroke="#969696" stroke-width="0.353142" stroke-miterlimit="10" stroke-linecap="round"/>
<path d="M156.887 255.936L169.141 251.804" stroke="#969696" stroke-width="0.353142" stroke-miterlimit="10" stroke-linecap="round"/>
<path d="M48.3469 330.553V290.742L82.8823 280.411" stroke="#969696" stroke-width="0.353142" stroke-miterlimit="10" stroke-linecap="round"/>
<path d="M65.6146 285.576V328.169" stroke="#969696" stroke-width="0.353142" stroke-miterlimit="10" stroke-linecap="round"/>
<path d="M67.9223 327.852V284.861L69.5934 285.576V327.693" stroke="#969696" stroke-width="0.353142" stroke-miterlimit="10" stroke-linecap="round"/>
<path d="M48.3469 290.741L49.8588 291.298V330.315" stroke="#969696" stroke-width="0.353142" stroke-miterlimit="10" stroke-linecap="round"/>
<path d="M49.8588 291.298L65.6146 286.689" stroke="#969696" stroke-width="0.353142" stroke-miterlimit="10" stroke-linecap="round"/>
<path d="M69.5934 285.577L82.8823 281.603" stroke="#969696" stroke-width="0.353142" stroke-miterlimit="10" stroke-linecap="round"/>
<path d="M14.7664 212.389V535.334" stroke="#969696" stroke-width="0.105943" stroke-miterlimit="10" stroke-linecap="round"/>
<path d="M204.234 151.996V633.632" stroke="#969696" stroke-width="0.105943" stroke-miterlimit="10" stroke-linecap="round"/>
<path d="M217.761 157.32V647.697" stroke="#969696" stroke-width="0.105943" stroke-miterlimit="10" stroke-linecap="round"/>
<path d="M376.831 147.149V693.945" stroke="#969696" stroke-width="0.105943" stroke-miterlimit="10" stroke-linecap="round"/>
<path d="M602.346 50.917V544.552" stroke="#969696" stroke-width="0.105943" stroke-miterlimit="10" stroke-linecap="round"/>
<path d="M294.074 113.774V524.368" stroke="#969696" stroke-width="0.105943" stroke-miterlimit="10" stroke-linecap="round"/>
<path d="M670.064 161.214V479.55" stroke="#969696" stroke-width="0.105943" stroke-miterlimit="10" stroke-linecap="round"/>
<path d="M435.876 240.281V558.697" stroke="#969696" stroke-width="0.105943" stroke-miterlimit="10" stroke-linecap="round"/>
<path d="M1 249.897L629.162 0.615723" stroke="#969696" stroke-width="0.105943" stroke-miterlimit="10" stroke-linecap="round"/>
<path d="M682 199.039L567.81 0.615723" stroke="#969696" stroke-width="0.105943" stroke-miterlimit="10" stroke-linecap="round"/>
<path d="M538.368 129.031V299.483" stroke="#969696" stroke-width="0.353142" stroke-miterlimit="10" stroke-linecap="round"/>
<path d="M84.076 363.531H204.234V439.738L84.076 423.05V363.531Z" stroke="#969696" stroke-width="0.353142" stroke-miterlimit="10" stroke-linecap="round"/>
<path d="M91.7152 363.531V421.779L84.076 423.05" stroke="#969696" stroke-width="0.353142" stroke-miterlimit="10" stroke-linecap="round"/>
<path d="M91.7151 421.779L204.234 436.639" stroke="#969696" stroke-width="0.353142" stroke-miterlimit="10" stroke-linecap="round"/>
<path d="M95.3756 363.531V419.474L204.234 432.189" stroke="#969696" stroke-width="0.353142" stroke-miterlimit="10" stroke-linecap="round"/>
<path d="M144.155 363.531V425.196" stroke="#969696" stroke-width="0.353142" stroke-miterlimit="10" stroke-linecap="round"/>
<path d="M153.226 425.832V363.531" stroke="#969696" stroke-width="0.353142" stroke-miterlimit="10" stroke-linecap="round"/>
<path d="M149.805 363.531V425.832" stroke="#969696" stroke-width="0.353142" stroke-miterlimit="10" stroke-linecap="round"/>
<path d="M95.3756 419.475H98.0811V363.531" stroke="#969696" stroke-width="0.353142" stroke-miterlimit="10" stroke-linecap="round"/>
</svg>
