<svg width="21" height="16" viewBox="0 0 21 16" fill="none" xmlns="http://www.w3.org/2000/svg">
<rect x="0.552632" y="1.23915" width="19.8947" height="13.2632" rx="1.65789" stroke="white" stroke-width="1.10526"/>
<path d="M9.34673 8.55285C9.98387 9.18999 11.0169 9.18998 11.654 8.55283L18.8603 1.34638C18.8764 1.33027 18.8795 1.31909 18.8807 1.31233C18.8824 1.3026 18.8817 1.28826 18.8751 1.27234C18.8685 1.25641 18.8588 1.24578 18.8507 1.24009C18.8451 1.23614 18.8351 1.23039 18.8123 1.23039H2.18817C2.16538 1.23039 2.15531 1.23614 2.14971 1.24009C2.14164 1.24578 2.13199 1.25641 2.1254 1.27234C2.1188 1.28826 2.1181 1.3026 2.11979 1.31233C2.12096 1.31909 2.12401 1.33027 2.14013 1.34638L9.34673 8.55285Z" stroke="white" stroke-width="1.08767"/>
</svg>
