<svg width="112" height="64" viewBox="0 0 112 64" fill="none" xmlns="http://www.w3.org/2000/svg">
<path d="M28.6946 19.7813C30.7159 14.5663 42.6252 5.44433 55.4623 3.99707C63.3746 3.99707 77.1719 11.1011 80.2594 19.7813M31.4761 19.7813C37.1013 11.6777 43.6695 7.38649 55.4623 6.15382C61.8692 6.15382 74.6595 11.8039 77.1484 19.7813M33.8073 19.7813C39.0271 13.3501 42.8786 8.78907 55.4623 8.78907C62.8328 8.78907 71.6612 12.5569 74.7165 19.7813M36.1891 19.7813C39.4325 16.8975 44.6523 9.75195 54.8892 10.7148C59.8196 10.7148 70.4576 12.9953 72.6726 19.7813M39.8886 19.7813C45.5645 15.1238 42.6759 12.9953 54.8892 12.9953C64.3119 13.2266 67.8059 16.2953 69.8649 19.7813M42.3211 19.7813C46.274 16.7455 46.4767 12.9953 54.8892 14.6677C59.8407 15.652 65.1492 15.494 67.0028 19.7813M44.0948 19.7813C47.0418 16.6798 48.695 14.9497 54.8892 16.2953C57.3355 16.8268 61.61 17.2796 64.7148 19.7813M46.9142 19.7813C49.029 17.5179 54.2562 19.3135 59.2041 19.7813" stroke="#FAF9F5" stroke-opacity="0.5" stroke-width="0.397081"/>
<path d="M28.9526 42.4546C32.4303 47.0727 41.766 56.5099 51.2867 57.3136C55.5425 57.6728 58.1068 58.129 63.4488 57.9396C65.8627 57.854 66.8112 54.8613 68.6108 53.63C72.0487 51.2778 77.9877 47.7103 78.7454 42.6903M32.2363 42.4546C38.3557 54.5069 59.2579 59.3896 67.4323 51.7639C69.7731 50.0123 74.685 45.7454 75.6067 42.6903M34.7348 42.4546C45.0162 55.6407 67.4323 55.9882 73.7414 42.6903M38.3008 42.4546C48.7245 52.6967 69.0781 52.971 71.8212 42.4546M43.6773 42.4546C47.8467 46.2779 61.6406 49.9733 69.2427 42.4546M51.2867 42.4546C53.6072 44.248 62.6287 46.1638 66.7191 42.4546" stroke="#FAF9F5" stroke-opacity="0.5" stroke-width="0.397081"/>
<path d="M52.8368 0.508636C51.9461 0.872461 49.5978 1.31713 47.5734 1.55968C44.6583 1.88308 43.6056 2.20648 42.31 3.09583C41.4192 3.74263 39.9212 4.38942 38.9899 4.55112C37.1275 4.8341 33.8075 7.17874 33.4026 8.43191C33.2406 8.87658 32.2689 9.64466 31.2162 10.2106C29.2728 11.1808 25.9123 14.4956 24.9001 16.436C24.6167 17.002 24.3738 17.9722 24.3738 18.5786C24.3738 19.5487 24.5762 19.7104 25.5074 19.7104C26.4792 19.7104 26.7626 19.4275 27.5318 17.5275C28.8275 14.3339 30.6089 12.4744 35.8319 8.99786C42.5529 4.5107 48.1807 2.32775 53.1202 2.32775H55.4685L55.2661 4.0256C55.1446 4.9958 54.7398 6.89577 54.3754 8.27021C53.8895 10.3723 53.849 11.1404 54.2539 12.8382C54.9422 15.668 55.3066 15.6275 55.3066 12.7169C55.3066 11.3425 55.6305 8.35106 56.0759 6.08727L56.8451 1.96393L58.91 2.20648C60.0032 2.28733 61.4608 2.5703 62.1086 2.77243C62.7564 2.97455 63.89 3.13625 64.6188 3.13625C65.4286 3.13625 67.534 3.94475 69.9632 5.19792C73.4452 6.93619 74.5789 7.78511 78.1013 11.3425C81.1379 14.4148 82.393 15.9914 83.0409 17.5679C83.8506 19.5487 84.0126 19.7104 85.2272 19.7104C86.5228 19.7104 86.5633 19.67 86.2799 18.5786C85.5106 16.0318 84.4984 14.1722 82.6765 12.2318C81.6238 11.0595 80.1662 9.36168 79.4374 8.47234C77.9799 6.61279 74.5384 4.55112 70.2467 2.93413C67.9388 2.04478 67.0076 1.92351 65.2261 2.08521C63.2017 2.32775 62.9183 2.24691 61.9061 1.27671C60.8939 0.306513 60.3676 0.144814 57.6144 0.0235386C55.4281 -0.057312 53.9705 0.0639629 52.8368 0.508636Z" fill="white"/>
<path d="M0.0809759 30.5041L0.20244 38.104L1.94342 38.2253C3.84636 38.3466 3.64392 38.7508 3.80587 34.4658C3.84636 33.536 4.0488 33.253 4.65612 33.253C5.22295 33.253 5.83027 33.9807 6.80198 35.7594L8.13808 38.3062H10.1625C11.2557 38.3062 12.1464 38.2253 12.1464 38.104C12.1464 37.9828 11.4176 36.5679 10.5674 34.9509L8.94784 32.0403L9.96004 30.9084C10.6888 30.0595 10.9318 29.2914 10.9318 27.8765C10.9318 24.2383 8.98833 22.9447 3.44148 22.9447H0L0.0809759 30.5041ZM6.64003 26.8255C7.93564 28.1191 6.92344 29.9786 5.061 29.7361C4.08929 29.6552 3.80587 29.4127 3.72489 28.4829C3.64392 27.8361 3.68441 27.068 3.80587 26.7446C4.08929 25.9766 5.87076 26.017 6.64003 26.8255Z" fill="white"/>
<path d="M44.6177 30.5038L44.7392 38.1036L46.4397 38.2249L48.1402 38.3462L48.2616 35.5973L48.3831 32.8484L50.7314 32.7271L53.0392 32.6059V31.0293V29.4527L50.7314 29.3314L48.3831 29.2102V27.7953V26.3804L51.1363 26.2592L53.849 26.1379V24.5613V22.9443H49.1929H44.5367L44.6177 30.5038Z" fill="white"/>
<path d="M56.9665 23.1872C56.8046 23.3489 56.6831 24.0766 56.6831 24.8447V26.1787H58.7075H60.7319V30.3829C60.7319 33.8998 60.6105 34.6275 60.0841 34.8296C59.2339 35.153 58.3836 34.4658 58.2217 33.3339C58.1407 32.6062 57.7763 32.4041 56.5212 32.3233C54.4968 32.1616 54.2134 32.485 54.6587 34.4658C55.1851 36.8509 57.007 38.3062 59.4363 38.3062C61.9061 38.3062 63.2017 37.6189 64.0924 35.8807C64.6593 34.7083 64.7807 33.536 64.6997 28.8063L64.5783 23.1468L60.9344 23.0255C58.91 22.9851 57.1285 23.0255 56.9665 23.1872Z" fill="white"/>
<path d="M71.0564 23.591C69.2345 24.5208 68.3842 25.4101 67.5745 27.1888C65.874 30.827 67.0481 35.0312 70.3276 37.1333C72.1091 38.2652 72.514 38.3461 75.1457 38.2248C77.575 38.1035 78.2633 37.9014 79.5589 36.9312C83.0409 34.2632 83.6077 28.4824 80.6521 25.2484C78.6682 23.0655 73.6882 22.2165 71.0564 23.591ZM76.2794 26.5824C78.3443 27.3505 79.3565 30.5845 78.1823 32.8079C77.4131 34.1823 75.3077 35.2738 73.9311 34.91C72.1091 34.4653 70.854 32.7674 70.854 30.8675C70.8945 27.3909 73.3238 25.4505 76.2794 26.5824Z" fill="white"/>
<path d="M85.0248 30.6254V38.3062H86.8467H88.6687V35.6785C88.6687 33.3743 88.7497 33.0509 89.438 33.0509C89.9643 33.0509 90.6931 33.8594 91.7053 35.6785L93.1629 38.3062H95.1468C96.2804 38.3062 97.1712 38.2253 97.1712 38.1445C97.1712 38.0636 96.4424 36.6892 95.5517 35.1126L93.9321 32.2828L94.9443 30.7871C96.7663 28.1191 95.9565 24.6425 93.3248 23.5106C92.4746 23.1872 90.5311 22.9447 88.4663 22.9447H85.0248V30.6254ZM91.4219 26.6638C91.7053 26.9468 91.9077 27.5127 91.9077 27.9978C91.9077 29.1701 91.1385 29.8169 89.8024 29.8169C88.7497 29.8169 88.6687 29.6956 88.6687 28.2808C88.6687 27.4319 88.7902 26.5829 88.9521 26.4617C89.3975 26.017 90.8955 26.1383 91.4219 26.6638Z" fill="white"/>
<path d="M98.7906 30.6254V38.3062H101.868C105.998 38.3062 108.305 37.6594 109.925 36.0424C112.719 33.2935 112.678 27.9574 109.884 25.1681C108.184 23.4702 106.402 22.9447 102.151 22.9447H98.7906V30.6254ZM105.836 26.7446C109.601 28.3212 108.305 34.7083 104.216 34.8296L102.637 34.87L102.516 31.0701C102.475 28.968 102.475 27.0276 102.597 26.7042C102.88 26.017 104.135 26.017 105.836 26.7446Z" fill="white"/>
<path d="M14.9805 27.634C13.1586 28.4021 13.1991 28.3212 13.9683 29.8169C14.4542 30.7871 14.8186 31.0297 15.3044 30.7871C15.6688 30.6254 16.681 30.4233 17.5313 30.302C18.7054 30.1807 19.0293 30.2616 19.0293 30.7871C19.0293 31.2318 18.6649 31.4339 17.8147 31.4339C14.8591 31.4339 12.1869 33.6573 12.7537 35.5573C13.28 37.2955 14.6161 38.3062 16.2761 38.3062C17.1669 38.3062 18.2196 38.104 18.6244 37.9019C19.1508 37.6189 19.4747 37.6189 19.6366 37.9019C19.7581 38.104 20.6084 38.3062 21.4991 38.3062H23.0781V34.5466C23.0781 28.9276 21.7825 26.9872 18.0171 27.0276C17.1264 27.0276 15.7498 27.3106 14.9805 27.634ZM19.0293 33.9807C19.0293 34.7488 18.1791 35.4764 17.3288 35.4764C16.3976 35.4764 16.3976 34.4254 17.3288 33.8998C18.3005 33.3339 19.0293 33.3743 19.0293 33.9807Z" fill="white"/>
<path d="M25.2645 27.5123C25.1835 27.7953 25.143 30.3016 25.1835 33.091L25.305 38.1036L26.965 38.2249L28.625 38.3462L28.8274 35.1122C29.0298 31.7569 29.5157 30.625 30.8113 30.625C31.4591 30.625 31.5806 31.0293 31.6616 34.3441L31.783 38.1036H33.605H35.427L35.6294 34.8697C35.8318 31.3123 36.1152 30.625 37.2489 30.625C38.2611 30.625 38.4636 31.3931 38.4636 35.1122V38.3058H40.326H42.1884L42.0265 33.6973C41.905 29.4527 41.8241 28.9676 40.9333 28.0379C39.7187 26.7847 37.9777 26.6634 36.1962 27.7549C35.0221 28.4825 34.9411 28.4825 34.0504 27.7549C32.8762 26.8251 31.2567 26.7847 30.0016 27.6336C29.1108 28.2804 29.0298 28.2804 28.6655 27.6336C28.2201 26.8251 25.5884 26.7443 25.2645 27.5123Z" fill="white"/>
<path d="M24.6977 42.7123C24.6977 42.9548 24.9001 43.2378 25.1431 43.3591C25.3455 43.5208 25.9528 44.5718 26.4792 45.7037C27.5319 48.1292 29.1109 49.7866 31.2567 50.8781C32.107 51.3228 32.9572 52.01 33.2002 52.4951C34.1719 54.2738 36.6821 56.6184 38.666 57.5482C39.7592 58.0737 41.4597 59.1248 42.3909 59.8928C43.5246 60.8226 44.9012 61.4694 46.4397 61.7928C47.7353 62.0758 49.5168 62.6417 50.3671 63.0864C51.7437 63.7332 52.432 63.814 55.0232 63.5715C56.7237 63.4502 59.5578 63.1673 61.3393 63.0056C63.1208 62.8439 65.0237 62.5205 65.5905 62.2779C66.1574 62.0354 67.3315 61.6311 68.2223 61.3886C69.113 61.146 70.692 60.4184 71.7447 59.7716C73.3237 58.7609 73.7691 58.195 74.4979 56.1737C75.3077 53.91 75.5506 53.627 77.6965 52.4951C80.4901 50.9994 81.0165 50.4738 82.3121 47.6037C82.8384 46.3909 83.8506 44.8548 84.5794 44.208C85.2677 43.5208 85.8345 42.874 85.8345 42.6718C85.8345 42.5101 85.0248 42.3484 84.0531 42.3484C82.2311 42.3484 82.2311 42.3484 80.9355 44.8144C79.6804 47.159 77.2916 49.8675 74.012 52.6568C73.2428 53.3036 72.514 54.1525 72.3925 54.4759C72.1901 54.961 71.9876 54.8801 71.4208 54.0717C71.0159 53.5057 70.0442 52.4951 69.3154 51.8483C68.5462 51.1611 67.5745 49.9483 67.2101 49.0994C66.8052 48.21 66.4003 47.6845 66.2788 47.8866C65.712 48.776 67.0076 51.4036 69.0725 53.7078C70.2467 55.0823 71.2589 56.4971 71.2589 56.9014C71.2589 57.4673 70.6515 58.478 69.3154 60.1354C69.2345 60.2567 67.2101 60.3375 64.8618 60.3779C62.473 60.3779 58.91 60.5396 56.8856 60.7013C53.4846 60.9843 53.0393 60.9439 49.6383 59.7716C47.6139 59.0843 45.711 58.5184 45.3466 58.5184C44.9822 58.5184 43.97 57.9929 43.0792 57.3461C42.229 56.7397 40.7714 55.9716 39.8807 55.6886C38.828 55.3652 37.2085 54.1525 35.1841 52.2121L32.107 49.2611L33.3216 48.776C33.9694 48.493 35.1841 47.3611 35.9938 46.2292C36.8441 45.0973 37.8158 43.925 38.1802 43.6016C38.5851 43.3186 38.8685 42.874 38.8685 42.6718C38.8685 42.0655 37.4109 43.0357 35.9534 44.6122C33.4836 47.3611 32.7548 47.9675 31.4592 48.2505C30.366 48.4526 30.0826 48.3313 29.0704 47.159C28.4631 46.3909 27.6533 45.0165 27.2889 44.0463C26.7626 42.7123 26.3982 42.3484 25.6694 42.3484C25.1431 42.3484 24.6977 42.5101 24.6977 42.7123Z" fill="white"/>
</svg>
