<svg width="20" height="20" viewBox="0 0 20 20" fill="none" xmlns="http://www.w3.org/2000/svg">
<path d="M13.996 10C13.996 12.2092 12.2052 14 9.99597 14C7.78679 14 5.99597 12.2092 5.99597 10C5.99597 7.79082 7.78679 6 9.99597 6C12.2052 6 13.996 7.79082 13.996 10Z" stroke="white" stroke-width="1.09"/>
<path d="M17.7369 2.26315C18.1015 2.6173 18.3821 3.04875 18.558 3.52542C18.7086 3.91224 18.8874 4.49364 18.9361 5.56396C18.9889 6.7215 19 7.06865 19 10.0001C19 12.9313 18.9889 13.2785 18.9361 14.4363C18.8871 15.5067 18.7083 16.0878 18.558 16.4746C18.1887 17.432 17.432 18.1887 16.4746 18.558C16.0878 18.7086 15.5064 18.8874 14.436 18.9361C13.2788 18.9889 12.9316 19 9.99985 19C7.06836 19 6.7215 18.9889 5.56396 18.9361C4.49364 18.8874 3.91224 18.7086 3.52542 18.558C3.04846 18.3821 2.6173 18.1015 2.26315 17.7369C1.8985 17.3827 1.61815 16.9515 1.44196 16.4746C1.29172 16.0878 1.1129 15.5067 1.06418 14.4363C1.01138 13.2785 1 12.9313 1 10.0001C1 7.06865 1.01138 6.7215 1.06418 5.56396C1.1129 4.49364 1.29172 3.91224 1.44196 3.52542C1.61815 3.04846 1.89879 2.6173 2.26344 2.26315C2.6173 1.8985 3.04875 1.61786 3.52571 1.44196C3.91224 1.29172 4.49364 1.1129 5.56396 1.06389C6.7215 1.01109 7.06865 1 10.0001 1C12.9313 1 13.2785 1.01138 14.4363 1.06418C15.5067 1.1129 16.0878 1.29172 16.4746 1.44196C16.9515 1.61786 17.3827 1.8985 17.7369 2.26315Z" stroke="white" stroke-width="1.09"/>
</svg>
