<svg width="112" height="65" viewBox="0 0 112 65" fill="none" xmlns="http://www.w3.org/2000/svg">
<path d="M28.6946 20.7403C30.7159 15.5253 42.6252 6.40332 55.4623 4.95605C63.3746 4.95605 77.1719 12.0601 80.2594 20.7403M31.4761 20.7403C37.1013 12.6367 43.6695 8.34548 55.4623 7.11281C61.8692 7.11281 74.6595 12.7629 77.1483 20.7403M33.8072 20.7403C39.0271 14.3091 42.8786 9.74806 55.4623 9.74806C62.8328 9.74806 71.6612 13.5158 74.7165 20.7403M36.1891 20.7403C39.4325 17.8565 44.6523 10.7109 54.8892 11.6738C59.8195 11.6738 70.4576 13.9543 72.6726 20.7403M39.8886 20.7403C45.5645 16.0828 42.6759 13.9543 54.8892 13.9543C64.3119 14.1856 67.8059 17.2543 69.8649 20.7403M42.3211 20.7403C46.274 17.7045 46.4767 13.9543 54.8892 15.6267C59.8407 16.611 65.1492 16.453 67.0028 20.7403M44.0948 20.7403C47.0418 17.6388 48.695 15.9087 54.8892 17.2543C57.3355 17.7857 61.61 18.2386 64.7148 20.7403M46.9142 20.7403C49.029 18.4769 54.2562 20.2725 59.2041 20.7403" stroke="#FAF9F5" stroke-opacity="0.5" stroke-width="0.397081"/>
<path d="M28.9526 43.4136C32.4303 48.0317 41.766 57.4689 51.2867 58.2726C55.5425 58.6318 58.1068 59.088 63.4488 58.8986C65.8627 58.813 66.8112 55.8203 68.6108 54.589C72.0487 52.2367 77.9877 48.6693 78.7454 43.6493M32.2363 43.4136C38.3557 55.4659 59.2579 60.3486 67.4323 52.7228C69.7731 50.9713 74.685 46.7044 75.6067 43.6493M34.7348 43.4136C45.0162 56.5997 67.4323 56.9472 73.7414 43.6493M38.3008 43.4136C48.7245 53.6556 69.0781 53.9299 71.8212 43.4136M43.6773 43.4136C47.8467 47.2368 61.6406 50.9323 69.2427 43.4136M51.2867 43.4136C53.6072 45.207 62.6287 47.1228 66.7191 43.4136" stroke="#FAF9F5" stroke-opacity="0.5" stroke-width="0.397081"/>
<path d="M52.8368 1.46762C51.9461 1.83145 49.5978 2.27612 47.5734 2.51867C44.6583 2.84207 43.6056 3.16547 42.31 4.05481C41.4192 4.70161 39.9212 5.34841 38.9899 5.51011C37.1275 5.79308 33.8075 8.13772 33.4026 9.39089C33.2406 9.83557 32.2689 10.6036 31.2162 11.1696C29.2728 12.1398 25.9123 15.4546 24.9001 17.395C24.6167 17.961 24.3738 18.9312 24.3738 19.5375C24.3738 20.5077 24.5762 20.6694 25.5074 20.6694C26.4792 20.6694 26.7626 20.3865 27.5318 18.4865C28.8275 15.2929 30.6089 13.4334 35.8319 9.95684C42.5529 5.46968 48.1807 3.28674 53.1202 3.28674H55.4685L55.2661 4.98458C55.1446 5.95478 54.7398 7.85475 54.3754 9.2292C53.8895 11.3313 53.849 12.0994 54.2539 13.7972C54.9422 16.6269 55.3066 16.5865 55.3066 13.6759C55.3066 12.3015 55.6305 9.31005 56.0759 7.04625L56.8451 2.92292L58.91 3.16547C60.0032 3.24632 61.4608 3.52929 62.1086 3.73141C62.7564 3.93354 63.89 4.09524 64.6188 4.09524C65.4286 4.09524 67.534 4.90374 69.9632 6.15691C73.4452 7.89517 74.5789 8.7441 78.1013 12.3015C81.1379 15.3738 82.393 16.9503 83.0409 18.5269C83.8506 20.5077 84.0126 20.6694 85.2272 20.6694C86.5228 20.6694 86.5633 20.629 86.2799 19.5375C85.5106 16.9908 84.4984 15.1312 82.6765 13.1908C81.6238 12.0185 80.1662 10.3207 79.4374 9.43132C77.9799 7.57178 74.5384 5.51011 70.2467 3.89311C67.9388 3.00377 67.0076 2.88249 65.2261 3.04419C63.2017 3.28674 62.9183 3.20589 61.9061 2.23569C60.8939 1.2655 60.3676 1.1038 57.6144 0.982523C55.4281 0.901672 53.9705 1.02295 52.8368 1.46762Z" fill="white"/>
<path d="M0.0809759 31.4631L0.20244 39.063L1.94342 39.1843C3.84636 39.3056 3.64392 39.7098 3.80587 35.4248C3.84636 34.495 4.0488 34.212 4.65612 34.212C5.22295 34.212 5.83027 34.9397 6.80198 36.7184L8.13808 39.2651H10.1625C11.2557 39.2651 12.1464 39.1843 12.1464 39.063C12.1464 38.9417 11.4176 37.5269 10.5674 35.9099L8.94784 32.9993L9.96004 31.8674C10.6888 31.0185 10.9318 30.2504 10.9318 28.8355C10.9318 25.1973 8.98833 23.9037 3.44148 23.9037H0L0.0809759 31.4631ZM6.64003 27.7845C7.93564 29.0781 6.92344 30.9376 5.061 30.6951C4.08929 30.6142 3.80587 30.3717 3.72489 29.4419C3.64392 28.7951 3.68441 28.027 3.80587 27.7036C4.08929 26.9355 5.87076 26.976 6.64003 27.7845Z" fill="white"/>
<path d="M44.6177 31.4628L44.7392 39.0626L46.4397 39.1839L48.1402 39.3052L48.2617 36.5563L48.3831 33.8074L50.7314 33.6861L53.0393 33.5648V31.9883V30.4117L50.7314 30.2904L48.3831 30.1692V28.7543V27.3394L51.1363 27.2181L53.849 27.0969V25.5203V23.9033H49.1929H44.5368L44.6177 31.4628Z" fill="white"/>
<path d="M56.9666 24.1462C56.8046 24.3079 56.6832 25.0356 56.6832 25.8036V27.1377H58.7076H60.732V31.3419C60.732 34.8588 60.6105 35.5865 60.0842 35.7886C59.2339 36.112 58.3837 35.4248 58.2217 34.2929C58.1407 33.5652 57.7763 33.3631 56.5212 33.2823C54.4968 33.1206 54.2134 33.444 54.6588 35.4248C55.1851 37.8098 57.0071 39.2651 59.4363 39.2651C61.9061 39.2651 63.2017 38.5779 64.0925 36.8396C64.6593 35.6673 64.7808 34.495 64.6998 29.7653L64.5783 24.1058L60.9344 23.9845C58.91 23.9441 57.1285 23.9845 56.9666 24.1462Z" fill="white"/>
<path d="M71.0564 24.55C69.2344 25.4797 68.3842 26.3691 67.5744 28.1478C65.8739 31.786 67.0481 35.9902 70.3276 38.0923C72.1091 39.2242 72.514 39.3051 75.1457 39.1838C77.575 39.0625 78.2633 38.8604 79.5589 37.8902C83.0409 35.2221 83.6077 29.4414 80.6521 26.2074C78.6681 24.0245 73.6881 23.1755 71.0564 24.55ZM76.2794 27.5414C78.3442 28.3095 79.3564 31.5435 78.1823 33.7668C77.413 35.1413 75.3076 36.2328 73.9311 35.8689C72.1091 35.4243 70.854 33.7264 70.854 31.8265C70.8945 28.3499 73.3237 26.4095 76.2794 27.5414Z" fill="white"/>
<path d="M85.0247 31.5844V39.2651H86.8467H88.6687V36.6375C88.6687 34.3333 88.7496 34.0099 89.4379 34.0099C89.9643 34.0099 90.6931 34.8184 91.7053 36.6375L93.1628 39.2651H95.1467C96.2804 39.2651 97.1711 39.1843 97.1711 39.1034C97.1711 39.0226 96.4424 37.6481 95.5516 36.0716L93.9321 33.2418L94.9443 31.7461C96.7663 29.0781 95.9565 25.6015 93.3248 24.4696C92.4745 24.1462 90.5311 23.9037 88.4662 23.9037H85.0247V31.5844ZM91.4218 27.6228C91.7053 27.9057 91.9077 28.4717 91.9077 28.9568C91.9077 30.1291 91.1384 30.7759 89.8023 30.7759C88.7496 30.7759 88.6687 30.6546 88.6687 29.2398C88.6687 28.3908 88.7901 27.5419 88.9521 27.4206C89.3975 26.976 90.8955 27.0972 91.4218 27.6228Z" fill="white"/>
<path d="M98.7907 31.5844V39.2651H101.868C105.998 39.2651 108.305 38.6183 109.925 37.0013C112.719 34.2524 112.678 28.9164 109.884 26.127C108.184 24.4292 106.402 23.9037 102.151 23.9037H98.7907V31.5844ZM105.836 27.7036C109.601 29.2802 108.305 35.6673 104.216 35.7886L102.637 35.829L102.516 32.0291C102.475 29.927 102.475 27.9866 102.597 27.6632C102.88 26.976 104.135 26.976 105.836 27.7036Z" fill="white"/>
<path d="M14.9805 28.593C13.1586 29.361 13.1991 29.2802 13.9683 30.7759C14.4542 31.7461 14.8186 31.9887 15.3044 31.7461C15.6688 31.5844 16.681 31.3823 17.5313 31.261C18.7054 31.1397 19.0293 31.2206 19.0293 31.7461C19.0293 32.1908 18.665 32.3929 17.8147 32.3929C14.8591 32.3929 12.1869 34.6163 12.7537 36.5162C13.28 38.2545 14.6162 39.2651 16.2762 39.2651C17.1669 39.2651 18.2196 39.063 18.6245 38.8609C19.1508 38.5779 19.4747 38.5779 19.6367 38.8609C19.7581 39.063 20.6084 39.2651 21.4991 39.2651H23.0781V35.5056C23.0781 29.8866 21.7825 27.9462 18.0171 27.9866C17.1264 27.9866 15.7498 28.2696 14.9805 28.593ZM19.0293 34.9397C19.0293 35.7077 18.1791 36.4354 17.3288 36.4354C16.3976 36.4354 16.3976 35.3843 17.3288 34.8588C18.3006 34.2929 19.0293 34.3333 19.0293 34.9397Z" fill="white"/>
<path d="M25.2645 28.4713C25.1835 28.7543 25.143 31.2606 25.1835 34.0499L25.305 39.0626L26.965 39.1839L28.625 39.3052L28.8274 36.0712C29.0299 32.7159 29.5157 31.584 30.8113 31.584C31.4592 31.584 31.5806 31.9883 31.6616 35.3031L31.7831 39.0626H33.605H35.427L35.6294 35.8286C35.8319 32.2713 36.1153 31.584 37.2489 31.584C38.2611 31.584 38.4636 32.3521 38.4636 36.0712V39.2648H40.326H42.1885L42.0265 34.6563C41.9051 30.4117 41.8241 29.9266 40.9333 28.9968C39.7187 27.7437 37.9777 27.6224 36.1963 28.7139C35.0221 29.4415 34.9411 29.4415 34.0504 28.7139C32.8762 27.7841 31.2567 27.7437 30.0016 28.5926C29.1109 29.2394 29.0299 29.2394 28.6655 28.5926C28.2201 27.7841 25.5884 27.7032 25.2645 28.4713Z" fill="white"/>
<path d="M24.6977 43.6712C24.6977 43.9138 24.9001 44.1968 25.143 44.318C25.3455 44.4797 25.9528 45.5308 26.4791 46.6627C27.5318 49.0882 29.1109 50.7456 31.2567 51.8371C32.107 52.2817 32.9572 52.969 33.2002 53.4541C34.1719 55.2328 36.6821 57.5774 38.666 58.5072C39.7592 59.0327 41.4597 60.0837 42.3909 60.8518C43.5246 61.7816 44.9012 62.4284 46.4397 62.7518C47.7353 63.0348 49.5168 63.6007 50.3671 64.0454C51.7436 64.6922 52.4319 64.773 55.0232 64.5305C56.7237 64.4092 59.5578 64.1262 61.3393 63.9645C63.1208 63.8028 65.0237 63.4794 65.5905 63.2369C66.1574 62.9943 67.3315 62.5901 68.2223 62.3475C69.113 62.105 70.692 61.3773 71.7447 60.7305C73.3237 59.7199 73.7691 59.154 74.4979 57.1327C75.3076 54.8689 75.5506 54.586 77.6964 53.4541C80.4901 51.9583 81.0164 51.4328 82.3121 48.5627C82.8384 47.3499 83.8506 45.8138 84.5794 45.167C85.2677 44.4797 85.8345 43.8329 85.8345 43.6308C85.8345 43.4691 85.0248 43.3074 84.053 43.3074C82.2311 43.3074 82.2311 43.3074 80.9355 45.7733C79.6803 48.118 77.2916 50.8264 74.012 53.6158C73.2428 54.2626 72.514 55.1115 72.3925 55.4349C72.1901 55.92 71.9876 55.8391 71.4208 55.0306C71.0159 54.4647 70.0442 53.4541 69.3154 52.8073C68.5462 52.12 67.5744 50.9073 67.2101 50.0584C66.8052 49.169 66.4003 48.6435 66.2788 48.8456C65.712 49.735 67.0076 52.3626 69.0725 54.6668C70.2467 56.0413 71.2589 57.4561 71.2589 57.8604C71.2589 58.4263 70.6515 59.4369 69.3154 61.0944C69.2345 61.2156 67.2101 61.2965 64.8617 61.3369C62.473 61.3369 58.91 61.4986 56.8856 61.6603C53.4846 61.9433 53.0393 61.9029 49.6383 60.7305C47.6139 60.0433 45.7109 59.4774 45.3465 59.4774C44.9822 59.4774 43.97 58.9518 43.0792 58.3051C42.229 57.6987 40.7714 56.9306 39.8807 56.6476C38.828 56.3242 37.2085 55.1115 35.1841 53.1711L32.107 50.2201L33.3216 49.735C33.9694 49.452 35.1841 48.3201 35.9938 47.1882C36.8441 46.0563 37.8158 44.884 38.1802 44.5606C38.5851 44.2776 38.8685 43.8329 38.8685 43.6308C38.8685 43.0244 37.4109 43.9946 35.9533 45.5712C33.4836 48.3201 32.7548 48.9265 31.4592 49.2095C30.366 49.4116 30.0826 49.2903 29.0704 48.118C28.4631 47.3499 27.6533 45.9755 27.2889 45.0053C26.7626 43.6712 26.3982 43.3074 25.6694 43.3074C25.143 43.3074 24.6977 43.4691 24.6977 43.6712Z" fill="white"/>
</svg>
