<svg width="20" height="20" viewBox="0 0 20 20" fill="none" xmlns="http://www.w3.org/2000/svg">
<path d="M6.29226 0.666504H3.33329C1.86053 0.666504 0.666626 1.86041 0.666626 3.33317V5.99984C0.666626 13.3636 6.63616 19.3332 14 19.3332H16.6666C18.1394 19.3332 19.3333 18.1393 19.3333 16.6665V14.8239C19.3333 14.3189 19.048 13.8572 18.5962 13.6313L15.375 12.0207C14.6493 11.6578 13.7704 12.0219 13.5138 12.7916L13.1168 13.9827C12.8596 14.7542 12.0682 15.2135 11.2707 15.054C8.07901 14.4156 5.58415 11.9208 4.9458 8.72906C4.78631 7.9316 5.24559 7.14018 6.0171 6.88301L7.49528 6.39029C8.15624 6.16997 8.53614 5.47791 8.36717 4.802L7.58578 1.67646C7.43739 1.0829 6.90408 0.666504 6.29226 0.666504Z" stroke="white" stroke-width="1.33333"/>
<path d="M6.29226 0.666504H3.33329C1.86053 0.666504 0.666626 1.86041 0.666626 3.33317V5.99984C0.666626 13.3636 6.63616 19.3332 14 19.3332H16.6666C18.1394 19.3332 19.3333 18.1393 19.3333 16.6665V14.8239C19.3333 14.3189 19.048 13.8572 18.5962 13.6313L15.375 12.0207C14.6493 11.6578 13.7704 12.0219 13.5138 12.7916L13.1168 13.9827C12.8596 14.7542 12.0682 15.2135 11.2707 15.054C8.07901 14.4156 5.58415 11.9208 4.9458 8.72906C4.78631 7.9316 5.24559 7.14018 6.0171 6.88301L7.49528 6.39029C8.15624 6.16997 8.53614 5.47791 8.36717 4.802L7.58578 1.67646C7.43739 1.0829 6.90408 0.666504 6.29226 0.666504Z" stroke="url(#paint0_linear_651_246)" stroke-width="1.33333"/>
<defs>
<linearGradient id="paint0_linear_651_246" x1="9.99996" y1="7.29422" x2="9.99996" y2="15.9604" gradientUnits="userSpaceOnUse">
<stop stop-color="#DFB46D"/>
<stop offset="1" stop-color="#E8CDA1"/>
</linearGradient>
</defs>
</svg>
