<svg width="70" height="67" viewBox="0 0 70 67" fill="none" xmlns="http://www.w3.org/2000/svg">
<g clip-path="url(#clip0_619_1352)">
<path d="M62.7376 5.71155H57.2732C57.0258 5.71155 56.7885 5.80669 56.6135 5.97605C56.4385 6.14541 56.3402 6.37511 56.3402 6.61461V16.9354H34.3364C34.3471 16.746 34.3556 16.5566 34.3556 16.3677C34.3354 13.5548 33.1668 10.8639 31.1048 8.88174C29.0428 6.89963 26.2547 5.78725 23.3487 5.78725C20.4426 5.78725 17.6545 6.89963 15.5925 8.88174C13.5305 10.8639 12.3619 13.5548 12.3417 16.3677C12.3417 16.5587 12.3502 16.748 12.3609 16.9354H1.82919C1.58176 16.9354 1.34446 17.0305 1.1695 17.1999C0.994533 17.3692 0.89624 17.5989 0.89624 17.8384L0.89624 59.6374C0.89624 59.877 0.994533 60.1066 1.1695 60.276C1.34446 60.4454 1.58176 60.5405 1.82919 60.5405H62.7376C64.4337 60.5387 66.0599 59.8857 67.2592 58.7248C68.4586 57.5639 69.1332 55.9899 69.135 54.3481V11.904C69.1332 10.2622 68.4586 8.68816 67.2592 7.52724C66.0599 6.36631 64.4337 5.71332 62.7376 5.71155ZM8.0933 28.3181L8.63974 28.8476L9.61374 31.4938C9.6827 31.6752 9.80911 31.831 9.97493 31.9387C10.1407 32.0465 10.3375 32.1008 10.5371 32.094L13.0497 31.9768L16.5752 34.1065L16.1924 36.261C16.154 36.4746 16.1964 36.6944 16.3118 36.8802L18.0444 39.6756C18.1198 39.7973 18.2238 39.9001 18.3479 39.9756C18.472 40.0511 18.6128 40.0971 18.7588 40.1101L18.3195 43.3508C18.3083 43.4311 18.3083 43.5125 18.3195 43.5928L19.2082 49.7853C19.2393 50.0011 19.35 50.1987 19.5197 50.3418C19.6895 50.4849 19.907 50.5638 20.1321 50.564H22.1206C22.3418 50.564 22.5557 50.4879 22.7243 50.3493C22.8928 50.2107 23.005 50.0187 23.0408 49.8074L23.858 45.0083L26.0913 42.2599L31.3952 41.6592C31.6209 41.6338 31.8292 41.5295 31.981 41.3658C32.1328 41.2022 32.2176 40.9905 32.2194 40.7706L32.2631 35.9095C32.2648 35.7052 32.1951 35.5062 32.0654 35.345L29.3561 31.9907C29.254 31.8646 29.1192 31.767 28.9654 31.7079C28.8116 31.6488 28.6443 31.6303 28.4807 31.6543L26.3189 31.9717C27.099 30.4773 27.7905 28.9412 28.3901 27.3707C28.623 26.7514 28.8379 26.1224 29.0255 25.4938C29.7871 25.0476 30.4904 24.5141 31.1201 23.905H49.7755L51.7101 25.7777V27.5399L48.2801 28.7882H44.8148L43.5113 27.527C43.383 27.4025 43.2198 27.3171 43.0419 27.2812C42.864 27.2454 42.6792 27.2607 42.5102 27.3253L39.9091 28.3176C39.7891 28.3624 39.6802 28.4309 39.5892 28.5188L36.2002 31.7993C36.1135 31.883 36.0447 31.9825 35.9977 32.0921C35.9508 32.2016 35.9267 32.319 35.9267 32.4376V35.5664C35.9267 35.685 35.9508 35.8024 35.9977 35.9119C36.0447 36.0215 36.1135 36.121 36.2002 36.2047L38.4857 38.417C38.6606 38.5862 38.8978 38.6815 39.1451 38.6817H41.6796L44.5616 41.4714V45.3313C44.5615 45.5709 44.6597 45.8007 44.8345 45.9702L47.377 48.4301C47.4635 48.5141 47.5663 48.5806 47.6795 48.626C47.7926 48.6715 47.9139 48.6948 48.0364 48.6948C48.1589 48.6948 48.2802 48.6715 48.3934 48.626C48.5065 48.5806 48.6093 48.5141 48.6959 48.4301L51.9479 45.2823C52.1228 45.1128 52.221 44.883 52.2209 44.6435V43.1846L53.447 41.9977C53.622 41.8285 53.7204 41.5989 53.7205 41.3594V38.8453L55.8162 36.8162C55.9029 36.7324 55.9716 36.6329 56.0186 36.5234C56.0655 36.4139 56.0896 36.2965 56.0896 36.1779C56.0896 36.0593 56.0655 35.9419 56.0186 35.8323C55.9716 35.7228 55.9029 35.6233 55.8162 35.5395L53.4401 33.2421L54.9861 32.787L55.0554 32.8541C55.4281 33.2109 55.8631 33.5011 56.3402 33.7112V49.0587C56.3402 49.2982 56.4385 49.5279 56.6135 49.6972C56.7885 49.8666 57.0258 49.9617 57.2732 49.9617H61.9379V53.574H8.0933V28.3181ZM19.2861 29.7202L17.4148 28.5385L18.7039 28.3764C18.8921 28.8326 19.0877 29.28 19.2861 29.7202ZM15.5766 23.9019C16.2065 24.5103 16.9097 25.0431 17.6712 25.4887C17.7779 25.853 17.9 26.2168 18.0252 26.5796C18.0316 26.5982 18.0364 26.6157 18.0434 26.6343L15.7936 26.9171C15.6515 26.9344 15.5154 26.9832 15.396 27.0597C15.2765 27.1362 15.1768 27.2382 15.1046 27.358C15.0325 27.4777 14.9897 27.612 14.9798 27.7503C14.9698 27.8886 14.9929 28.0273 15.0473 28.1556L15.5367 29.3166C15.6089 29.4857 15.7323 29.6296 15.8906 29.7295L18.9555 31.6646C19.0593 31.7297 19.1754 31.7743 19.2971 31.7959C19.4188 31.8175 19.5436 31.8157 19.6646 31.7905L20.2233 31.6718C21.1967 33.5843 22.0838 35.0354 22.416 35.5648C22.4947 35.7448 22.6232 35.9002 22.7874 36.0139C22.9515 36.1276 23.1449 36.1953 23.3463 36.2094C23.5134 36.2066 23.6769 36.1618 23.8207 36.0794C23.9646 35.997 24.0838 35.8797 24.1667 35.7392C24.2733 35.5772 24.6796 34.9301 25.2383 33.9517L28.22 33.5136L30.393 36.2037L30.3594 39.9527L25.4894 40.5054C25.3674 40.5192 25.2493 40.5563 25.1421 40.6144C25.0349 40.6725 24.9406 40.7505 24.8646 40.8439L22.2438 44.0691C22.1463 44.1892 22.0819 44.3312 22.0567 44.4819L21.329 48.7568H20.9451L20.186 43.4648L20.7468 39.3288C20.764 39.2014 20.7529 39.0719 20.7143 38.9489C20.6757 38.826 20.6105 38.7124 20.523 38.6158C20.4354 38.5192 20.3276 38.4418 20.2067 38.3887C20.0858 38.3357 19.9546 38.3082 19.8218 38.3081H19.3724L18.0897 36.2382L18.52 33.817C18.5513 33.6401 18.5275 33.4582 18.4515 33.2945C18.3756 33.1308 18.2509 32.9927 18.0935 32.8979L13.7896 30.294C13.6281 30.1971 13.44 30.1496 13.2501 30.1578L11.1374 30.2563L10.3271 28.0498C10.2807 27.9236 10.2058 27.809 10.1079 27.7143L8.0933 25.7637V23.9019H15.5766ZM56.3402 31.5454L55.9079 31.1264C55.7884 31.0105 55.6386 30.9283 55.4745 30.8886C55.3104 30.8489 55.1383 30.8531 54.9765 30.9009L51.4089 31.9526C51.2549 31.9981 51.1157 32.0814 51.0047 32.1944C50.8938 32.3074 50.815 32.4463 50.776 32.5975C50.737 32.7487 50.7391 32.9072 50.7821 33.0574C50.8251 33.2076 50.9075 33.3445 51.0213 33.4547L53.8346 36.1779L52.1249 37.8328C51.9501 38.0022 51.852 38.2318 51.8519 38.4711V40.9868L50.6258 42.1737C50.4507 42.3432 50.3524 42.5729 50.3523 42.8126V44.2693L48.0343 46.5131L46.4254 44.9562V41.0942C46.4251 40.8547 46.3268 40.6252 46.1519 40.4558L42.7234 37.1367C42.6368 37.0529 42.534 36.9864 42.4208 36.9411C42.3077 36.8957 42.1864 36.8724 42.0639 36.8725H39.5354L37.7964 35.1902V32.8087L40.7733 29.9266L42.6248 29.2201L43.7688 30.327C43.9437 30.4964 44.1809 30.5917 44.4283 30.5918H48.4501C48.5623 30.5918 48.6735 30.5722 48.7785 30.534L52.972 29.0081C53.1496 28.9433 53.3026 28.8278 53.4106 28.6768C53.5186 28.5257 53.5765 28.3465 53.5766 28.1628V25.4004C53.5764 25.161 53.4781 24.9314 53.3031 24.7621L52.4149 23.9019H56.3402V31.5454ZM34.0763 18.7415H56.3402V22.0957H32.6209C33.2995 21.0659 33.7917 19.9315 34.0763 18.7415ZM23.3489 7.51768C25.7724 7.52027 28.0958 8.4533 29.8095 10.1121C31.5231 11.7708 32.487 14.0198 32.4897 16.3657C32.4784 17.9434 32.0365 19.4902 31.2089 20.8495C30.3813 22.2088 29.1974 23.3323 27.777 24.1062C27.6682 24.1648 27.5727 24.2439 27.4959 24.3387C27.4191 24.4335 27.3626 24.5422 27.3297 24.6584C26.5115 27.3118 25.4081 29.8748 24.0377 32.3055C23.7861 32.7643 23.5526 33.1745 23.3484 33.5249C22.1201 31.4314 21.0543 29.2524 20.1598 27.0058C20.0084 26.6131 19.8677 26.2282 19.7408 25.8545C19.7317 25.8277 19.7232 25.8029 19.7147 25.7746C19.5857 25.3906 19.4684 25.0165 19.3671 24.6584C19.3344 24.5422 19.278 24.4334 19.2013 24.3386C19.1246 24.2438 19.0291 24.1648 18.9203 24.1062C17.5 23.3322 16.3161 22.2087 15.4885 20.8494C14.661 19.4901 14.2191 17.9434 14.2076 16.3657C14.2103 14.0197 15.1743 11.7706 16.888 10.1119C18.6018 8.4531 20.9254 7.52014 23.3489 7.51768ZM62.7376 58.7344H2.76214V18.7415H12.621C12.6274 18.7673 12.637 18.7931 12.6434 18.8168C12.8056 19.4793 13.0332 20.1251 13.3232 20.7453L13.3386 20.7793C13.5527 21.2342 13.7992 21.674 14.0765 22.0957H7.16035C6.91291 22.0957 6.67561 22.1909 6.50065 22.3602C6.32569 22.5296 6.22739 22.7593 6.22739 22.9988V54.4771C6.22739 54.7166 6.32569 54.9463 6.50065 55.1156C6.67561 55.285 6.91291 55.3801 7.16035 55.3801H62.8709C63.1183 55.3801 63.3556 55.285 63.5306 55.1156C63.7056 54.9463 63.8038 54.7166 63.8038 54.4771V50.0908C64.8812 50.3429 65.8257 50.9688 66.4583 51.8499C67.0908 52.731 67.3676 53.806 67.2362 54.8714C67.1048 55.9367 66.5743 56.9185 65.7453 57.6306C64.9162 58.3427 63.8461 58.7358 62.7376 58.7354V58.7344ZM67.0516 49.7889C65.8737 48.7438 64.3355 48.1614 62.7376 48.1556H58.2061V7.51768H62.7376C63.939 7.51904 65.0908 7.98161 65.9403 8.80391C66.7898 9.62621 67.2677 10.7411 67.2691 11.904V49.9808C67.2009 49.9132 67.1236 49.8523 67.0516 49.7889Z" fill="#FAF9F5"/>
<path d="M23.3483 21.3943C24.3757 21.3944 25.3801 21.0996 26.2344 20.5472C27.0887 19.9948 27.7546 19.2095 28.1479 18.2908C28.5412 17.372 28.6441 16.361 28.4438 15.3856C28.2435 14.4102 27.7488 13.5142 27.0224 12.8109C26.296 12.1076 25.3705 11.6286 24.3628 11.4345C23.3552 11.2404 22.3107 11.3398 21.3614 11.7203C20.4122 12.1008 19.6008 12.7452 19.0299 13.5721C18.459 14.3989 18.1543 15.371 18.1542 16.3655C18.1556 17.6986 18.7032 18.9768 19.677 19.9195C20.6508 20.8623 21.9711 21.3927 23.3483 21.3943ZM23.3483 13.1439C24.0067 13.1438 24.6504 13.3327 25.1979 13.6867C25.7454 14.0407 26.1721 14.544 26.4241 15.1327C26.6761 15.7215 26.7421 16.3694 26.6137 16.9945C26.4853 17.6196 26.1682 18.1938 25.7026 18.6444C25.2371 19.0951 24.6439 19.402 23.9981 19.5263C23.3524 19.6506 22.683 19.5867 22.0747 19.3428C21.4665 19.0989 20.9466 18.6858 20.5809 18.1558C20.2151 17.6259 20.02 17.0028 20.0201 16.3655C20.0212 15.5114 20.3722 14.6926 20.9961 14.0887C21.6201 13.4848 22.466 13.145 23.3483 13.1439Z" fill="#FAF9F5"/>
</g>
<defs>
<clipPath id="clip0_619_1352">
<rect width="68.2388" height="66.0528" fill="white" transform="translate(0.89624 0.0996094)"/>
</clipPath>
</defs>
</svg>
