<svg width="1362" height="454" viewBox="0 0 1362 454" fill="none" xmlns="http://www.w3.org/2000/svg"> <path d="M83.1006 1H1256.72C1256.72 1 1361 1.00009 1361 129.636C1361 249.895 1256.72 249.895 1256.72 249.895H83.1006C83.1006 249.895 1 249.895 1 353.257C1 452.584 83.1006 452.584 83.1006 452.584H1256.72" stroke="black" stroke-opacity="0.27" stroke-width="1.5" stroke-dasharray="25 25"/> <path d="M83.1006 1H1256.72C1256.72 1 1361 1.00009 1361 129.636C1361 249.895 1256.72 249.895 1256.72 249.895H83.1006C83.1006 249.895 1 249.895 1 353.257C1 452.584 83.1006 452.584 83.1006 452.584H1256.72" stroke="url(#paint0_linear_619_1182)" stroke-width="1.5" stroke-dasharray="25 25"/> <defs> <linearGradient id="paint0_linear_619_1182" x1="681" y1="161.338" x2="681" y2="370.991" gradientUnits="userSpaceOnUse"> <stop stop-color="#DFB46D"/> <stop offset="1" stop-color="#E8CDA1"/> </linearGradient> </defs> </svg>