<svg width="1444" height="308" viewBox="0 0 1444 308" fill="none" xmlns="http://www.w3.org/2000/svg">
<path fill-rule="evenodd" clip-rule="evenodd" d="M220.164 0V105.951C220.164 163.452 220.155 192.406 219.137 209.33C218.627 217.803 217.862 223.309 216.705 227.898C215.547 232.487 214.004 236.124 211.992 240.828C192.618 286.141 143.111 314.179 95.4538 306.782C25.8936 295.982 -15.9054 227.128 7.56545 161.882C17.4432 134.424 36.9267 112.904 63.2884 100.333L63.7188 101.236C37.5947 113.694 18.2949 135.011 8.50642 162.221C-14.7449 226.856 26.6483 295.087 95.6072 305.793C142.798 313.119 191.873 285.341 211.073 240.435C219.128 221.598 219.164 220.994 219.164 105.951V1H173.436V90.2705L132.079 90.8905C85.9775 91.5814 83.0307 92.0277 63.7188 101.236L63.2884 100.333C72.9611 95.7211 78.6366 93.2526 87.7032 91.8804C96.6997 90.5189 109.043 90.2356 132.064 89.8906L172.436 89.2854V0H220.164ZM259.468 157.905L258.54 157.531C272.08 123.938 303.558 98.2372 339.352 91.5458L339.536 92.5288C304.075 99.1579 272.879 124.631 259.468 157.905ZM251.465 246.535C251.491 180.367 251.802 176.927 259.468 157.905L258.54 157.531C254.688 167.089 252.657 172.806 251.605 184.45C250.561 196.015 250.478 213.474 250.465 246.535L250.442 308H298.17L298.193 251.212C298.207 220.295 298.364 203.403 299.451 192.484C300.528 181.652 302.512 176.771 306.215 169.866C308.698 165.238 312.864 160.037 317.598 155.394C322.333 150.75 327.571 146.729 332.159 144.418C338.174 141.392 342.049 140.192 354.198 137.66L358.693 136.723V89.5005L353.294 89.649C350.805 89.7182 344.536 90.5773 339.352 91.5458L339.536 92.5288C344.714 91.5613 350.917 90.7155 353.321 90.6487L357.693 90.5284V135.91L353.994 136.681C341.817 139.218 337.841 140.44 331.71 143.525C322.288 148.269 310.425 159.905 305.334 169.394C297.819 183.404 297.22 189.421 297.193 251.212L297.17 307H251.442L251.465 246.535ZM574.377 270.751L569.243 275.607C550.881 292.981 519.216 305.739 490.23 307.513C454.364 309.707 420.675 295.389 398.56 268.517C394.258 263.289 389.391 255.231 385.239 246.943C381.088 238.658 377.607 230.052 376.117 223.713C374.642 217.434 373.913 208.077 373.908 198.798C373.904 189.521 374.623 180.204 376.093 174.007C386.185 131.457 422.178 97.4797 464.306 90.7835L464.463 91.7711C422.749 98.4015 387.067 132.068 377.066 174.237C374.179 186.411 374.191 211.143 377.091 223.485C380.018 235.943 390.863 257.59 399.332 267.881C421.235 294.497 454.61 308.69 490.169 306.515C518.959 304.753 550.39 292.069 568.556 274.881L572.973 270.702L561.831 258.6C555.705 251.943 548.847 244.388 546.593 241.809L542.495 237.121L533.816 243.516C495.391 271.829 445.479 263.683 427.45 226.157L423.598 218.14L589.022 217.452V202.706C589.022 178.024 583.061 156.811 571.152 139.113C555.947 116.517 533.489 100.347 508.309 93.865C498.394 91.3128 474.523 90.1729 464.463 91.7711L464.306 90.7835C469.442 89.9677 478.009 89.8579 486.488 90.2628C494.968 90.6677 503.498 91.594 508.559 92.8966C533.988 99.4428 556.647 115.766 571.981 138.555C584.018 156.443 590.022 177.858 590.022 202.706V218.447L425.185 219.133L428.352 225.724C446.037 262.536 495.16 270.757 533.223 242.711L542.642 235.77L547.346 241.151C549.591 243.719 556.44 251.265 562.567 257.923L574.377 270.751ZM792.78 302.323L791.986 284.377L783.945 290.26C768.328 301.682 744.353 308.104 722.929 306.602C682.34 303.756 646.195 278.608 629.82 241.823C623.408 227.415 620.952 213.23 621.673 194.755C622.429 175.401 624.61 166.273 632.128 151.014C647.372 120.074 678.349 97.0867 711.695 91.9689C722.43 90.3213 747.683 91.27 756.466 93.6499C795.694 104.28 825.295 134.045 835.152 172.769C837.699 182.781 837.842 187.017 837.514 242.874L837.163 302.323H792.78ZM791.07 286.287L784.535 291.067C768.706 302.644 744.491 309.116 722.859 307.599C681.906 304.728 645.434 279.356 628.907 242.23C622.422 227.659 619.948 213.318 620.674 194.716C621.053 185.012 621.791 177.817 623.392 171.117C624.995 164.41 627.453 158.24 631.231 150.572C646.615 119.347 677.866 96.1491 711.543 90.9804C717.008 90.1418 726.082 89.9705 734.85 90.2998C743.605 90.6286 752.215 91.4621 756.728 92.6847C796.297 103.407 826.173 133.441 836.121 172.522C838.709 182.692 838.841 187.097 838.514 242.88L838.157 303.323H791.823L791.07 286.287ZM872.476 303.323L872.477 233.667C872.478 197.244 872.479 178.927 873.753 167.203C875.041 155.353 877.643 150.154 882.724 140.005L882.966 139.522C895.331 114.817 922.311 95.1603 949.849 90.7822C955.362 89.9051 963.662 89.8336 971.771 90.3537C979.875 90.8735 987.919 91.9924 992.908 93.5477C1004.6 97.192 1018.97 105.362 1028.27 113.657L1035.09 119.736L1039.67 115.052C1053.13 101.277 1076.29 91.3256 1097.7 90.0566C1136.21 87.775 1169.57 106.856 1187 141.137C1191.69 150.359 1194.14 155.807 1195.34 168.255C1196.53 180.597 1196.5 199.898 1196.29 236.853L1195.91 303.323H1149.54L1148.19 171.609L1144.37 163.869C1139.67 154.361 1131.87 146.389 1123.16 142.142C1118.19 139.717 1114.11 138.867 1105.22 138.509C1100.03 138.299 1096.99 138.288 1094.35 138.71C1091.74 139.129 1089.47 139.981 1085.85 141.595C1076.18 145.906 1067.2 154.972 1062.24 165.493L1058.73 172.934L1057.91 304.072L1011.01 303.307L1009.66 170.288L1006.03 163.44C1000.99 153.934 994.663 147.319 986.383 142.826C983.402 141.209 981.238 140.267 978.56 139.659C975.853 139.045 972.581 138.763 967.365 138.533C961.857 138.289 958.669 138.25 956.043 138.627C953.454 138.998 951.372 139.779 948.086 141.274C938.338 145.709 929.595 153.99 925.171 162.939L921.546 170.273L920.194 303.323H872.476ZM920.549 170.035L924.274 162.496C928.808 153.325 937.729 144.887 947.672 140.364C954.292 137.353 956.418 137.047 967.409 137.533C977.843 137.994 980.817 138.669 986.86 141.947C995.335 146.546 1001.79 153.316 1006.91 162.972L1010.66 170.035L1012 302.323L1056.92 303.055L1057.73 172.707L1061.34 165.067C1066.39 154.35 1075.54 145.099 1085.44 140.682C1092.72 137.44 1094.89 137.091 1105.26 137.509C1114.22 137.87 1118.46 138.733 1123.6 141.243C1132.52 145.596 1140.47 153.738 1145.26 163.426L1149.19 171.371L1150.53 302.323H1194.92L1195.29 236.847C1195.71 162.879 1195.42 159.91 1186.11 141.59C1168.86 107.666 1135.87 88.7966 1097.76 91.0549C1076.57 92.311 1053.65 102.175 1040.38 115.751L1035.14 121.118L1027.61 114.403C1018.41 106.201 1004.17 98.1036 992.611 94.5024C982.863 91.4638 960.818 90.05 950.006 91.7697C922.783 96.0978 896.079 115.556 883.86 139.969C881.24 145.204 879.282 149.081 877.817 153.137C873.435 165.275 873.479 179.012 873.477 235.511L873.476 302.323H919.204L920.549 170.035ZM1395.16 235.55L1405.1 246.229L1404.37 246.91L1395.08 236.931L1389.16 241.968C1374.81 254.169 1353.51 260.925 1332.29 260.003C1321.49 259.534 1318.6 258.851 1309.77 254.686C1297.64 248.962 1288.14 240.031 1281.99 228.57C1279.59 224.098 1277.63 219.771 1277.63 218.955C1277.63 217.885 1300.49 217.472 1359.81 217.472H1442L1441.44 197.094C1440.93 178.389 1440.52 175.674 1436.51 164.022C1424.81 130.048 1399.1 105.31 1364.38 94.62C1352.23 90.8812 1328.07 89.8122 1314.41 92.4085C1278.96 99.1499 1247.28 126.269 1234.79 160.558C1229.04 176.342 1227.4 187.291 1228.17 204.67C1228.72 217.019 1229.61 221.745 1233.53 233.114C1239.48 250.402 1244.83 259.236 1257.46 272.675C1288.65 305.866 1333.32 315.458 1380.18 299.025C1396.45 293.32 1417.76 280.671 1424.31 272.826C1426.03 270.77 1423.46 267.434 1404.37 246.91L1405.1 246.229C1414.63 256.477 1420.09 262.482 1422.94 266.184C1424.35 268.019 1425.2 269.388 1425.56 270.488C1425.74 271.058 1425.81 271.606 1425.72 272.135C1425.62 272.672 1425.38 273.106 1425.08 273.467C1421.69 277.529 1414.59 282.724 1406.4 287.588C1398.18 292.469 1388.72 297.089 1380.51 299.969C1333.32 316.518 1288.22 306.871 1256.73 273.359C1244 259.819 1238.58 250.863 1232.58 233.44C1228.63 221.977 1227.72 217.156 1227.17 204.715C1226.39 187.209 1228.05 176.128 1233.85 160.216C1246.46 125.6 1278.42 98.2342 1314.23 91.4261C1321.16 90.1079 1330.7 89.7277 1340.01 90.1396C1349.31 90.5512 1358.48 91.7586 1364.67 93.6643C1399.7 104.447 1425.65 129.416 1437.45 163.696C1439.46 169.532 1440.59 173.196 1441.27 177.766C1441.95 182.31 1442.18 187.727 1442.44 197.066L1443.03 218.472H1359.81C1330.15 218.472 1309.61 218.575 1296.49 218.812C1289.93 218.93 1285.24 219.082 1282.19 219.27C1280.66 219.364 1279.57 219.466 1278.88 219.572C1278.86 219.575 1278.84 219.578 1278.82 219.581C1278.85 219.656 1278.88 219.736 1278.91 219.821C1279.12 220.383 1279.43 221.117 1279.82 221.978C1280.6 223.698 1281.68 225.878 1282.87 228.098C1288.92 239.364 1298.26 248.146 1310.2 253.782C1314.6 255.859 1317.45 257.033 1320.52 257.757C1323.6 258.484 1326.94 258.77 1332.34 259.004C1353.34 259.916 1374.38 253.222 1388.51 241.206L1395.16 235.55ZM1352.06 140.226C1331.17 134.2 1308.89 139.852 1293.53 155.058C1290.42 158.142 1287 162.582 1284.36 166.71C1283.04 168.772 1281.93 170.735 1281.15 172.393C1280.56 173.646 1280.2 174.645 1280.06 175.351C1280.59 175.441 1281.41 175.53 1282.53 175.614C1284.84 175.785 1288.32 175.928 1293 176.042C1302.37 176.271 1316.48 176.384 1335.46 176.384C1350.99 176.384 1365.11 176.304 1375.34 176.175C1380.46 176.111 1384.6 176.034 1387.46 175.949C1388.88 175.907 1389.97 175.863 1390.71 175.818C1390.71 175.803 1390.7 175.786 1390.69 175.77C1390.5 175.265 1390.22 174.629 1389.86 173.89C1389.13 172.414 1388.11 170.582 1386.94 168.649C1384.6 164.774 1381.73 160.579 1379.59 158.114C1376.47 154.521 1371.77 150.673 1366.73 147.399C1361.69 144.124 1356.38 141.473 1352.06 140.226ZM1380.35 157.458C1384.74 162.516 1391.95 174.459 1391.95 176.672C1391.95 177.064 1366.53 177.384 1335.46 177.384C1297.49 177.384 1278.97 176.931 1278.97 176.004C1278.97 172.36 1286.47 160.647 1292.83 154.347C1308.44 138.884 1331.1 133.14 1352.34 139.265C1361.24 141.832 1373.95 150.088 1380.35 157.458ZM429.277 169.657C428.334 171.506 427.478 173.263 426.86 174.603C426.644 175.069 426.46 175.481 426.311 175.826C427.046 175.868 428.093 175.909 429.426 175.949C432.286 176.034 436.428 176.111 441.545 176.175C451.778 176.304 465.896 176.384 481.427 176.384C503.579 176.384 517.685 176.294 526.251 176.041C530.539 175.914 533.408 175.747 535.193 175.534C535.969 175.442 536.499 175.346 536.837 175.254C536.787 175.027 536.704 174.742 536.58 174.396C536.354 173.767 536.02 173.01 535.589 172.153C534.729 170.439 533.515 168.38 532.112 166.236C529.3 161.938 525.791 157.39 522.961 154.655C516.373 148.295 508.509 143.585 499.169 140.424C494.953 138.997 488.245 138.29 481.419 138.338C474.594 138.386 467.821 139.188 463.478 140.68C449.11 145.615 435.762 156.94 429.277 169.657ZM425.928 176.805C425.279 176.762 424.939 176.717 424.939 176.672C424.939 176.565 425.055 176.236 425.262 175.74C425.261 175.74 425.262 175.74 425.262 175.74C425.812 174.418 427.008 171.903 428.386 169.202C434.997 156.24 448.557 144.748 463.153 139.734C472.139 136.648 490.745 136.517 499.489 139.476C508.959 142.682 516.953 147.466 523.655 153.936C529.468 159.551 537.877 172.403 537.902 175.714C537.911 177.024 525.726 177.384 481.427 177.384C453.95 177.384 430.892 177.133 425.928 176.805ZM697.866 146.733C668.724 163.701 659.38 204.501 678.331 231.867C691.487 250.864 710.124 260.138 732.635 258.919C758.083 257.54 778.393 242.949 786.724 220.146C797.886 189.594 785.34 158.472 756.058 144.093C751.032 141.625 748.292 140.373 745.155 139.668C742 138.958 738.406 138.794 731.656 138.616C723.866 138.41 718.443 138.699 713.471 139.894C708.508 141.088 703.933 143.2 697.866 146.733ZM171.99 196.051C172.175 189.028 172.23 180.064 172.124 170.332L171.774 138.191L139.764 137.914C120.429 137.747 110.837 137.664 104.744 138.07C98.7462 138.47 96.2036 139.337 90.95 141.129L90.9081 141.143C48.3055 155.677 35.6099 210.02 67.4121 241.618C86.8805 260.96 118.377 264.897 142.306 250.965C148.813 247.176 155.198 240.867 160.373 233.506C165.547 226.148 169.464 217.807 171.093 210.005C171.487 208.121 171.804 203.12 171.99 196.051ZM172.764 137.199L139.813 136.915C110.069 136.657 103.238 136.595 96.8401 138.227C94.919 138.718 93.0369 139.36 90.5853 140.197C47.2877 154.967 34.3736 210.201 66.7073 242.327C86.5007 261.993 118.494 265.987 142.809 251.829C156.136 244.07 168.746 226.135 172.072 210.209C172.903 206.227 173.337 189.803 173.124 170.321L172.764 137.199ZM787.664 220.489C799.001 189.455 786.238 157.799 756.499 143.195C746.471 138.271 745.134 137.97 731.682 137.616C716.047 137.203 709.571 138.76 697.363 145.869C667.728 163.124 658.219 204.581 677.509 232.436C690.857 251.71 709.821 261.156 732.689 259.917C758.512 258.518 779.187 243.69 787.664 220.489Z" fill="white" fill-opacity="0.2"/>
</svg>
