<svg width="192" height="41" viewBox="0 0 192 41" fill="none" xmlns="http://www.w3.org/2000/svg">
<path fill-rule="evenodd" clip-rule="evenodd" d="M22.8582 5.98045V11.9611L17.3439 12.0442C11.197 12.1367 10.8041 12.1965 8.22919 13.4303C4.74598 15.0995 2.17267 17.9557 0.867543 21.6015C-2.23263 30.2618 3.28646 39.4039 12.481 40.8383C18.7731 41.8198 25.3164 38.0979 27.8764 32.0812C28.9504 29.5572 28.9552 29.4763 28.9552 14.0621V0H25.9067H22.8582V5.98045ZM45.0048 12.2637C40.2767 13.1519 36.1173 16.5649 34.3291 21.0232C33.3069 23.572 33.2655 24.0328 33.2621 32.8985L33.259 41H36.3075H39.3561L39.3591 33.5251C39.3627 25.246 39.4425 24.4398 40.4446 22.5625C41.1233 21.2912 42.7051 19.7321 43.9613 19.0965C44.7789 18.6831 45.3089 18.5195 46.9325 18.1795L47.4257 18.0762V15.0359V11.9956L46.8429 12.0117C46.5223 12.0207 45.6952 12.134 45.0048 12.2637ZM61.6618 12.1621C56.0998 13.0505 51.3423 17.5614 50.0089 23.2115C49.6239 24.8426 49.6255 28.1564 50.0121 29.81C50.4025 31.4792 51.8484 34.3797 52.9776 35.7586C55.8981 39.3247 60.348 41.2265 65.0892 40.935C68.9278 40.6989 73.1187 38.9994 75.5408 36.6964L76.1297 36.1366L74.6442 34.515C73.8274 33.623 72.913 32.6108 72.6124 32.2652L72.066 31.6371L70.9088 32.494C65.7855 36.2875 59.1306 35.1961 56.7267 30.1681L56.2132 29.0939L67.2415 29.0477L78.2696 29.0017V27.026C78.2696 23.719 77.4748 20.8767 75.8869 18.5053C73.8596 15.4778 70.8653 13.3112 67.5079 12.4427C66.186 12.1007 63.0031 11.948 61.6618 12.1621ZM94.626 12.1886C90.1798 12.8744 86.0496 15.9544 84.0171 20.0998C83.0147 22.1445 82.7238 23.3675 82.6231 25.9607C82.5269 28.4361 82.8544 30.3366 83.7094 32.2672C85.8927 37.1958 90.7121 40.5653 96.1239 40.9467C98.9804 41.1479 102.177 40.2874 104.259 38.757L105.332 37.9689L105.384 39.1711L105.437 40.3734H108.396H111.355L111.402 32.4079C111.446 24.9239 111.427 24.3563 111.087 23.0148C109.773 17.8262 105.826 13.8381 100.596 12.4139C99.4244 12.095 96.0574 11.9679 94.626 12.1886ZM126.401 12.162C122.771 12.7419 119.211 15.349 117.581 18.6201C116.187 21.4204 116.197 21.3218 116.197 31.4214L116.197 40.3734H119.245H122.294L122.384 31.5109L122.473 22.6485L122.97 21.6383C123.574 20.4096 124.764 19.279 126.09 18.6729C126.972 18.2695 127.256 18.2285 128.721 18.2937C130.112 18.3555 130.509 18.4459 131.315 18.8851C132.445 19.5013 133.306 20.4083 133.989 21.7021L134.488 22.6485L134.578 31.5109L134.667 40.3734L137.661 40.4224L140.656 40.4715L140.71 31.739L140.764 23.0065L141.245 21.9828C141.919 20.5469 143.138 19.3074 144.459 18.7155C145.429 18.2812 145.719 18.2344 147.102 18.2905C148.296 18.3388 148.861 18.4545 149.547 18.7907C150.736 19.374 151.797 20.4649 152.435 21.7629L152.958 22.8275L153.048 31.6004L153.138 40.3734H156.097H159.055L159.105 31.6004C159.161 21.6897 159.123 21.2919 157.881 18.8373C155.581 14.2918 151.183 11.7636 146.101 12.0662C143.276 12.2345 140.22 13.5561 138.451 15.3752L137.752 16.0942L136.747 15.1945C135.521 14.0956 133.622 13.0106 132.081 12.5281C130.782 12.121 127.842 11.9315 126.401 12.162ZM174.989 12.2475C170.262 13.1508 166.037 16.7844 164.372 21.3787C163.605 23.4935 163.386 24.9606 163.489 27.2892C163.562 28.9437 163.681 29.5769 164.204 31.1002C164.998 33.4166 165.71 34.6002 167.394 36.4008C171.553 40.848 177.509 42.1333 183.757 39.9315C185.927 39.167 188.768 37.4722 189.642 36.4211C189.871 36.1457 189.528 35.6986 186.982 32.9488L185.744 31.6117L184.955 32.2865C183.041 33.9213 180.201 34.8265 177.372 34.703C175.932 34.6402 175.547 34.5487 174.37 33.9906C172.752 33.2236 171.485 32.0271 170.666 30.4915C170.346 29.8922 170.084 29.3125 170.084 29.2031C170.084 29.0597 173.132 29.0044 181.042 29.0044H192L191.925 26.274C191.857 23.7678 191.803 23.404 191.268 21.8428C189.708 17.2907 186.28 13.9762 181.65 12.5439C180.031 12.0429 176.81 11.8997 174.989 12.2475ZM22.8166 22.6868C22.8449 25.2972 22.7872 27.4978 22.6763 28.0313C22.2329 30.1651 20.5515 32.5681 18.7746 33.6078C15.5326 35.5047 11.2668 34.9696 8.62766 32.3347C4.3165 28.0302 6.03838 20.6296 11.8114 18.6505C13.227 18.1653 13.2186 18.1659 18.375 18.2108L22.7685 18.2489L22.8166 22.6868ZM180.045 18.5257C181.232 18.8697 182.926 19.9758 183.78 20.9634C184.365 21.641 185.327 23.2413 185.327 23.5378C185.327 23.5902 181.937 23.6332 177.795 23.6332C172.732 23.6332 170.263 23.5725 170.263 23.4482C170.263 22.96 171.262 21.3905 172.11 20.5466C174.192 18.4747 177.214 17.705 180.045 18.5257ZM66.3319 18.554C67.5946 18.9835 68.6605 19.6245 69.554 20.4914C70.3291 21.2437 71.4502 22.9657 71.4536 23.4094C71.4549 23.5848 69.8302 23.6332 63.9236 23.6332C59.7812 23.6332 56.3919 23.5902 56.3919 23.5378C56.3919 23.4851 56.5987 23.0348 56.8516 22.5369C57.7329 20.8001 59.5409 19.2603 61.4871 18.5886C62.6852 18.175 65.166 18.1575 66.3319 18.554ZM100.6 19.0523C104.565 21.009 106.267 25.2504 104.755 29.4086C103.625 32.5173 100.868 34.5041 97.4253 34.6916C94.3762 34.8575 91.8475 33.5919 90.0679 31.0094C87.4959 27.2772 88.7637 21.7225 92.7151 19.4105C94.3428 18.4581 95.2063 18.2495 97.291 18.3048C99.0846 18.3522 99.2628 18.3925 100.6 19.0523Z" fill="black"/>
</svg>
