<svg width="118" height="25" viewBox="0 0 118 25" fill="none" xmlns="http://www.w3.org/2000/svg">
<path fill-rule="evenodd" clip-rule="evenodd" d="M14.0482 3.64662V7.29334L10.6593 7.344C6.8815 7.40044 6.64003 7.4369 5.05752 8.18919C2.9168 9.20699 1.33529 10.9486 0.533177 13.1716C-1.37214 18.4523 2.0198 24.0267 7.67061 24.9014C11.5377 25.4999 15.559 23.2305 17.1324 19.5617C17.7924 18.0227 17.7954 17.9734 17.7954 8.57445V0H15.9218H14.0482V3.64662ZM27.6592 7.47784C24.7534 8.01943 22.1971 10.1005 21.0981 12.819C20.4699 14.3731 20.4444 14.6541 20.4423 20.06L20.4404 25H22.314H24.1876L24.1895 20.4421C24.1917 15.3939 24.2407 14.9023 24.8566 13.7576C25.2737 12.9824 26.2459 12.0318 27.0179 11.6442C27.5203 11.3921 27.8461 11.2924 28.844 11.085L29.147 11.0221V9.16823V7.31441L28.7889 7.32424C28.5918 7.32969 28.0835 7.3988 27.6592 7.47784ZM37.8963 7.41594C34.478 7.95764 31.5541 10.7082 30.7346 14.1534C30.498 15.1479 30.499 17.1686 30.7366 18.1769C30.9765 19.1947 31.8652 20.9632 32.5592 21.804C34.354 23.9785 37.0889 25.1381 40.0027 24.9604C42.3619 24.8164 44.9375 23.7801 46.4261 22.3759L46.788 22.0345L45.8751 21.0457C45.3731 20.5019 44.8111 19.8846 44.6264 19.6739L44.2906 19.2909L43.5794 19.8134C40.4307 22.1265 36.3407 21.461 34.8633 18.3952L34.5477 17.7402L41.3255 17.712L48.1032 17.684V16.4793C48.1032 14.4628 47.6147 12.7297 46.6388 11.2837C45.3929 9.43766 43.5526 8.11659 41.4893 7.58701C40.6768 7.37849 38.7207 7.28537 37.8963 7.41594ZM58.1556 7.4321C55.423 7.85022 52.8847 9.72828 51.6355 12.256C51.0195 13.5027 50.8407 14.2485 50.7788 15.8297C50.7197 17.3391 50.9209 18.4979 51.4464 19.6751C52.7882 22.6803 55.7501 24.7349 59.0762 24.9675C60.8317 25.0902 62.7963 24.5655 64.0761 23.6323L64.735 23.1517L64.7675 23.8848L64.8 24.6179H66.6185H68.437L68.4657 19.7609C68.4926 15.1975 68.4809 14.8514 68.2722 14.0334C67.4645 10.8696 65.0388 8.43788 61.8243 7.56943C61.1046 7.375 59.0353 7.29749 58.1556 7.4321ZM77.6838 7.41583C75.453 7.76943 73.2648 9.35917 72.2636 11.3537C71.4063 13.0612 71.413 13.0011 71.4127 19.1594L71.4126 24.6179H73.2862H75.1598L75.2149 19.214L75.27 13.81L75.5753 13.1941C75.9468 12.4449 76.6778 11.7555 77.4926 11.3859C78.035 11.14 78.2093 11.115 79.1099 11.1547C79.9649 11.1924 80.2086 11.2475 80.7038 11.5153C81.3983 11.891 81.9275 12.4441 82.3471 13.233L82.6541 13.81L82.7092 19.214L82.7643 24.6179L84.6045 24.6478L86.4447 24.6777L86.478 19.3531L86.5114 14.0284L86.8068 13.4041C87.2211 12.5286 87.9705 11.7728 88.7823 11.4119C89.3782 11.1471 89.5564 11.1186 90.4061 11.1527C91.1401 11.1822 91.4873 11.2527 91.9089 11.4578C92.6401 11.8134 93.2917 12.4786 93.684 13.2701L94.0057 13.9192L94.0608 19.2686L94.1159 24.6179H95.9344H97.7529L97.7834 19.2686C97.8178 13.2254 97.7944 12.9829 97.0311 11.4861C95.6175 8.71452 92.9143 7.17293 89.7911 7.35742C88.055 7.46004 86.1772 8.26594 85.0897 9.37511L84.6598 9.81354L84.0427 9.26496C83.2889 8.59487 82.1221 7.9333 81.175 7.63908C80.3763 7.39083 78.5698 7.27533 77.6838 7.41583ZM107.545 7.46801C104.64 8.01878 102.044 10.2344 101.02 13.0358C100.549 14.3253 100.415 15.2199 100.478 16.6397C100.523 17.6486 100.596 18.0347 100.917 18.9635C101.405 20.376 101.843 21.0977 102.878 22.1956C105.434 24.9073 109.094 25.691 112.934 24.3485C114.268 23.8823 116.014 22.8489 116.551 22.208C116.691 22.0401 116.481 21.7675 114.916 20.0907L114.155 19.2754L113.67 19.6869C112.494 20.6837 110.749 21.2357 109.01 21.1604C108.125 21.122 107.888 21.0663 107.165 20.726C106.171 20.2583 105.392 19.5287 104.888 18.5924C104.692 18.227 104.531 17.8735 104.531 17.8068C104.531 17.7193 106.404 17.6856 111.265 17.6856H118L117.954 16.0207C117.912 14.4926 117.879 14.2707 117.55 13.3188C116.592 10.5431 114.485 8.52205 111.639 7.64869C110.644 7.34323 108.664 7.2559 107.545 7.46801ZM14.0227 13.8334C14.0401 15.4251 14.0046 16.7669 13.9365 17.0922C13.6639 18.3933 12.6306 19.8586 11.5385 20.4926C9.54605 21.6492 6.92438 21.3229 5.30241 19.7163C2.65285 17.0916 3.71109 12.579 7.25908 11.3723C8.12908 11.0764 8.1239 11.0767 11.293 11.1041L13.9931 11.1274L14.0227 13.8334ZM110.653 11.2962C111.382 11.5059 112.423 12.1804 112.948 12.7825C113.308 13.1957 113.899 14.1715 113.899 14.3523C113.899 14.3843 111.816 14.4105 109.27 14.4105C106.158 14.4105 104.641 14.3735 104.641 14.2977C104.641 14 105.255 13.043 105.776 12.5284C107.056 11.2651 108.913 10.7957 110.653 11.2962ZM40.7665 11.3134C41.5425 11.5753 42.1976 11.9662 42.7468 12.4948C43.2231 12.9535 43.9121 14.0035 43.9142 14.274C43.915 14.381 42.9165 14.4105 39.2864 14.4105C36.7405 14.4105 34.6575 14.3843 34.6575 14.3523C34.6575 14.3202 34.7846 14.0456 34.94 13.742C35.4817 12.683 36.5928 11.7441 37.789 11.3345C38.5253 11.0823 40.0499 11.0716 40.7665 11.3134ZM61.827 11.6172C64.264 12.8104 65.3099 15.3966 64.3808 17.9321C63.6861 19.8276 61.992 21.0391 59.8759 21.1534C58.002 21.2546 56.448 20.4829 55.3542 18.9082C53.7735 16.6324 54.5527 13.2454 56.9812 11.8357C57.9815 11.2549 58.5122 11.1277 59.7934 11.1615C60.8957 11.1904 61.0053 11.215 61.827 11.6172Z" fill="white"/>
</svg>
