<svg width="173" height="176" viewBox="0 0 173 176" fill="none" xmlns="http://www.w3.org/2000/svg">
<path d="M60.5748 83.0158C66.5695 83.0158 71.2547 85.0529 74.6304 89.127C78.0642 93.1428 79.2283 98.1481 78.1225 104.143C77.0166 110.196 74.2521 115.056 69.8288 118.722C65.4637 122.331 60.1092 124.135 53.7653 124.135C47.7124 124.135 42.9981 122.127 39.6224 118.111C36.2468 114.037 35.1118 108.974 36.2177 102.921C37.2071 97.5661 39.4769 93.201 43.0272 89.8254L66.5986 61.8888H76.3764L58.3923 83.1031C58.8579 83.0449 59.5854 83.0158 60.5748 83.0158ZM70.0907 103.532C70.7309 99.6905 70.0907 96.6058 68.1701 94.2778C66.2494 91.9497 63.3394 90.7857 59.4399 90.7857C55.4822 90.7857 52.1357 91.9497 49.4002 94.2778C46.6648 96.5476 44.9769 99.6323 44.3367 103.532C43.6383 107.431 44.2494 110.545 46.17 112.873C48.0907 115.201 51.0007 116.365 54.9002 116.365C58.7997 116.365 62.1171 115.201 64.8526 112.873C67.6463 110.545 69.3923 107.431 70.0907 103.532ZM107.463 124.135C100.246 124.135 94.9792 121.108 91.6617 115.056C88.4024 109.003 87.6167 101.204 89.3046 91.6587C90.9924 82.0555 94.3099 74.5185 99.257 69.0476C104.262 63.5185 110.577 60.7539 118.201 60.7539C125.477 60.7539 130.744 63.7804 134.003 69.8333C137.262 75.828 138.048 83.5979 136.36 93.1428C134.672 102.804 131.326 110.399 126.32 115.929C121.373 121.399 115.088 124.135 107.463 124.135ZM98.2966 110.079C100.275 114.153 103.738 116.19 108.686 116.19C113.633 116.19 117.794 114.153 121.17 110.079C124.604 105.947 126.99 100.069 128.328 92.4444C129.667 84.8783 129.347 79.0291 127.368 74.8968C125.447 70.7063 122.014 68.6111 117.066 68.6111C112.119 68.6111 107.929 70.7063 104.495 74.8968C101.061 79.0291 98.704 84.8783 97.4236 92.4444C96.085 100.069 96.376 105.947 98.2966 110.079Z" fill="black"/>
<path d="M74.6304 89.127L72.7321 90.6998L72.7443 90.7145L72.7568 90.729L74.6304 89.127ZM78.1225 104.143L75.6982 103.696L75.6974 103.7L78.1225 104.143ZM69.8288 118.722L71.3995 120.622L71.4021 120.62L69.8288 118.722ZM39.6224 118.111L37.7242 119.684L37.7297 119.691L37.7353 119.697L39.6224 118.111ZM36.2177 102.921L33.7935 102.473L33.7926 102.478L36.2177 102.921ZM43.0272 89.8254L44.7259 91.6119L44.824 91.5186L44.9113 91.4151L43.0272 89.8254ZM66.5986 61.8888V59.4236H65.4532L64.7145 60.2991L66.5986 61.8888ZM76.3764 61.8888L78.2568 63.4829L81.6981 59.4236H76.3764V61.8888ZM58.3923 83.1031L56.5119 81.509L52.4217 86.3339L58.6981 85.5493L58.3923 83.1031ZM70.0907 103.532L72.5173 103.966L72.5199 103.952L72.5224 103.937L70.0907 103.532ZM68.1701 94.2778L70.0717 92.7089H70.0716L68.1701 94.2778ZM49.4002 94.2778L50.9744 96.1749L50.9862 96.1651L50.9979 96.1551L49.4002 94.2778ZM44.3367 103.532L46.7633 103.966L46.7664 103.949L46.7693 103.931L44.3367 103.532ZM46.17 112.873L48.0716 111.304H48.0716L46.17 112.873ZM64.8526 112.873L63.2744 110.979L63.2646 110.987L63.2549 110.996L64.8526 112.873ZM60.5748 85.481C65.9452 85.481 69.8906 87.2704 72.7321 90.6998L76.5286 87.5541C72.6188 82.8354 67.1938 80.5506 60.5748 80.5506V85.481ZM72.7568 90.729C75.6298 94.0891 76.6924 98.306 75.6982 103.696L80.5467 104.59C81.7642 97.9903 80.4987 92.1966 76.504 87.5249L72.7568 90.729ZM75.6974 103.7C74.6877 109.226 72.1997 113.555 68.2555 116.824L71.4021 120.62C76.3044 116.556 79.3455 111.165 80.5475 104.586L75.6974 103.7ZM68.2581 116.822C64.3883 120.021 59.6091 121.67 53.7653 121.67V126.6C60.6093 126.6 66.5392 124.64 71.3995 120.622L68.2581 116.822ZM53.7653 121.67C48.3155 121.67 44.342 119.895 41.5095 116.525L37.7353 119.697C41.6542 124.359 47.1092 126.6 53.7653 126.6V121.67ZM41.5207 116.538C38.6881 113.12 37.6441 108.83 38.6427 103.364L33.7926 102.478C32.5796 109.117 33.8054 114.954 37.7242 119.684L41.5207 116.538ZM38.6418 103.369C39.5478 98.4658 41.5944 94.5894 44.7259 91.6119L41.3285 88.0388C37.3594 91.8127 34.8664 96.6664 33.7935 102.473L38.6418 103.369ZM44.9113 91.4151L68.4828 63.4786L64.7145 60.2991L41.1431 88.2356L44.9113 91.4151ZM66.5986 64.354H76.3764V59.4236H66.5986V64.354ZM74.496 60.2947L56.5119 81.509L60.2727 84.6973L78.2568 63.4829L74.496 60.2947ZM58.6981 85.5493C59.0026 85.5112 59.6015 85.481 60.5748 85.481V80.5506C59.5693 80.5506 58.7131 80.5787 58.0865 80.657L58.6981 85.5493ZM72.5224 103.937C73.2435 99.6104 72.5704 95.7378 70.0717 92.7089L66.2685 95.8466C67.611 97.4738 68.2184 99.7705 67.659 103.126L72.5224 103.937ZM70.0716 92.7089C67.5529 89.6559 63.8435 88.3205 59.4399 88.3205V93.2509C62.8352 93.2509 64.946 94.2435 66.2685 95.8466L70.0716 92.7089ZM59.4399 88.3205C54.9606 88.3205 51.0302 89.6534 47.8025 92.4004L50.9979 96.1551C53.2412 94.246 56.0038 93.2509 59.4399 93.2509V88.3205ZM47.826 92.3806C44.5813 95.0731 42.629 98.7168 41.9041 103.132L46.7693 103.931C47.3248 100.548 48.7482 98.0221 50.9744 96.1749L47.826 92.3806ZM41.9101 103.097C41.1267 107.471 41.753 111.393 44.2685 114.442L48.0716 111.304C46.7459 109.697 46.1499 107.391 46.7633 103.966L41.9101 103.097ZM44.2685 114.442C46.7872 117.495 50.4966 118.83 54.9002 118.83V113.9C51.5049 113.9 49.3941 112.907 48.0716 111.304L44.2685 114.442ZM54.9002 118.83C59.3312 118.83 63.2296 117.491 66.4503 114.75L63.2549 110.996C61.0047 112.911 58.2682 113.9 54.9002 113.9V118.83ZM66.4308 114.767C69.7111 112.033 71.7264 108.382 72.5173 103.966L67.6641 103.097C67.0582 106.48 65.5814 109.057 63.2744 110.979L66.4308 114.767ZM91.6617 115.056L89.4912 116.224L89.4955 116.232L89.4999 116.24L91.6617 115.056ZM89.3046 91.6587L91.7321 92.088L91.7325 92.0854L89.3046 91.6587ZM99.257 69.0476L97.4294 67.3931L97.4285 67.3942L99.257 69.0476ZM134.003 69.8333L131.832 71.0021L131.837 71.0108L134.003 69.8333ZM136.36 93.1428L133.933 92.7136L133.932 92.7186L136.36 93.1428ZM126.32 115.929L124.493 114.274L124.492 114.275L126.32 115.929ZM98.2966 110.079L96.0611 111.118L96.07 111.137L96.0792 111.156L98.2966 110.079ZM121.17 110.079L119.274 108.504L119.271 108.507L121.17 110.079ZM128.328 92.4444L125.901 92.0149L125.9 92.0181L128.328 92.4444ZM127.368 74.8968L125.127 75.9239L125.136 75.9428L125.145 75.9615L127.368 74.8968ZM104.495 74.8968L106.391 76.4723L106.396 76.4658L106.402 76.4593L104.495 74.8968ZM97.4236 92.4444L99.8517 92.8707L99.853 92.8632L99.8543 92.8558L97.4236 92.4444ZM107.463 121.67C104.205 121.67 101.524 120.989 99.3284 119.728C97.139 118.47 95.2948 116.555 93.8235 113.871L89.4999 116.24C91.3461 119.609 93.7942 122.234 96.872 124.003C99.9441 125.768 103.505 126.6 107.463 126.6V121.67ZM93.8322 113.887C90.9251 108.488 90.1021 101.306 91.7321 92.088L86.877 91.2294C85.1314 101.101 85.8797 109.517 89.4912 116.224L93.8322 113.887ZM91.7325 92.0854C93.3653 82.7956 96.5349 75.7333 101.085 70.701L97.4285 67.3942C92.0848 73.3036 88.6195 81.3154 86.8766 91.232L91.7325 92.0854ZM101.085 70.702C105.611 65.7021 111.256 63.2191 118.201 63.2191V58.2887C109.898 58.2887 102.914 61.3348 97.4294 67.3931L101.085 70.702ZM118.201 63.2191C121.493 63.2191 124.188 63.9016 126.38 65.1612C128.565 66.4166 130.391 68.3254 131.832 71.002L136.174 68.6645C134.356 65.2883 131.919 62.6574 128.836 60.8863C125.761 59.1195 122.185 58.2887 118.201 58.2887V63.2191ZM131.837 71.0108C134.738 76.3455 135.563 83.4923 133.933 92.7136L138.788 93.5721C140.533 83.7034 139.787 75.3105 136.169 68.6558L131.837 71.0108ZM133.932 92.7186C132.299 102.063 129.102 109.183 124.493 114.274L128.148 117.583C133.55 111.616 137.045 103.546 138.789 93.5671L133.932 92.7186ZM124.492 114.275C120.03 119.21 114.417 121.67 107.463 121.67V126.6C115.758 126.6 122.717 123.589 128.149 117.582L124.492 114.275ZM96.0792 111.156C97.2529 113.573 98.926 115.492 101.128 116.788C103.317 118.075 105.874 118.656 108.686 118.656V113.725C106.55 113.725 104.902 113.287 103.628 112.538C102.367 111.796 101.319 110.66 100.514 109.002L96.0792 111.156ZM108.686 118.656C114.423 118.656 119.261 116.247 123.068 111.652L119.271 108.507C116.327 112.06 112.842 113.725 108.686 113.725V118.656ZM123.066 111.655C126.869 107.078 129.374 100.743 130.756 92.8707L125.9 92.0181C124.605 99.3947 122.338 104.816 119.274 108.504L123.066 111.655ZM130.756 92.8739C132.129 85.1107 131.898 78.6492 129.591 73.8321L125.145 75.9615C126.796 79.4089 127.205 84.6459 125.901 92.0149L130.756 92.8739ZM129.609 73.8697C128.475 71.3952 126.831 69.4174 124.636 68.0781C122.453 66.7457 119.889 66.1459 117.066 66.1459V71.0763C119.191 71.0763 120.818 71.5241 122.068 72.2869C123.307 73.0428 124.341 74.2079 125.127 75.9239L129.609 73.8697ZM117.066 66.1459C111.304 66.1459 106.44 68.6342 102.588 73.3343L106.402 76.4593C109.418 72.7784 112.935 71.0763 117.066 71.0763V66.1459ZM102.599 73.3212C98.7935 77.9008 96.3166 84.2116 94.993 92.0331L99.8543 92.8558C101.091 85.5449 103.329 80.1573 106.391 76.4723L102.599 73.3212ZM94.9956 92.0181C93.6243 99.8284 93.8254 106.308 96.0611 111.118L100.532 109.04C98.9266 105.586 98.5457 100.309 99.8517 92.8707L94.9956 92.0181Z" fill="black"/>
<path d="M116.859 33.2892L114.45 47H112.648L114.528 36.3447L108.75 43.7486H108.515L105.342 36.1684L103.442 47H101.62L104.029 33.2892H106.027L109.044 40.6147L114.724 33.2892H116.859ZM120.378 33.2892H122.2L119.791 47H117.969L120.378 33.2892ZM123.32 47L125.729 33.2892H127.119L132.467 43.5723L134.249 33.2892H136.071L133.661 47H132.271L126.943 36.7169L125.141 47H123.32Z" fill="black"/>
<path d="M116.859 33.2892L117.403 33.3849L117.518 32.7361H116.859V33.2892ZM114.45 47V47.5531H114.914L114.994 47.0957L114.45 47ZM112.648 47L112.103 46.9039L111.988 47.5531H112.648V47ZM114.528 36.3447L115.073 36.4408L114.092 36.0044L114.528 36.3447ZM108.75 43.7486V44.3017H109.02L109.186 44.0889L108.75 43.7486ZM108.515 43.7486L108.005 43.9621L108.147 44.3017H108.515V43.7486ZM105.342 36.1684L105.852 35.9549L105.123 34.2137L104.797 36.0729L105.342 36.1684ZM103.442 47V47.5531H103.906L103.986 47.0956L103.442 47ZM101.62 47L101.075 46.9043L100.961 47.5531H101.62V47ZM104.029 33.2892V32.7361H103.565L103.485 33.1934L104.029 33.2892ZM106.027 33.2892L106.539 33.0786L106.398 32.7361H106.027V33.2892ZM109.044 40.6147L108.532 40.8253L108.896 41.708L109.481 40.9536L109.044 40.6147ZM114.724 33.2892V32.7361H114.453L114.287 32.9502L114.724 33.2892ZM116.314 33.1934L113.905 46.9043L114.994 47.0957L117.403 33.3849L116.314 33.1934ZM114.45 46.4469H112.648V47.5531H114.45V46.4469ZM113.192 47.0961L115.073 36.4408L113.983 36.2486L112.103 46.9039L113.192 47.0961ZM114.092 36.0044L108.314 43.4083L109.186 44.0889L114.964 36.685L114.092 36.0044ZM108.75 43.1955H108.515V44.3017H108.75V43.1955ZM109.025 43.535L105.852 35.9549L104.831 36.382L108.005 43.9621L109.025 43.535ZM104.797 36.0729L102.897 46.9044L103.986 47.0956L105.886 36.264L104.797 36.0729ZM103.442 46.4469H101.62V47.5531H103.442V46.4469ZM102.165 47.0957L104.574 33.3849L103.485 33.1934L101.075 46.9043L102.165 47.0957ZM104.029 33.8423H106.027V32.7361H104.029V33.8423ZM105.516 33.4998L108.532 40.8253L109.555 40.4041L106.539 33.0786L105.516 33.4998ZM109.481 40.9536L115.161 33.6281L114.287 32.9502L108.606 40.2758L109.481 40.9536ZM114.724 33.8423H116.859V32.7361H114.724V33.8423ZM120.378 33.2892V32.7361H119.914L119.834 33.1934L120.378 33.2892ZM122.2 33.2892L122.745 33.3849L122.859 32.7361H122.2V33.2892ZM119.791 47V47.5531H120.255L120.335 47.0957L119.791 47ZM117.969 47L117.424 46.9043L117.31 47.5531H117.969V47ZM120.378 33.8423H122.2V32.7361H120.378V33.8423ZM121.655 33.1934L119.246 46.9043L120.335 47.0957L122.745 33.3849L121.655 33.1934ZM119.791 46.4469H117.969V47.5531H119.791V46.4469ZM118.514 47.0957L120.923 33.3849L119.834 33.1934L117.424 46.9043L118.514 47.0957ZM123.32 47L122.775 46.9043L122.661 47.5531H123.32V47ZM125.729 33.2892V32.7361H125.264L125.184 33.1934L125.729 33.2892ZM127.119 33.2892L127.61 33.034L127.455 32.7361H127.119V33.2892ZM132.467 43.5723L131.976 43.8275L132.732 45.281L133.012 43.6668L132.467 43.5723ZM134.249 33.2892V32.7361H133.784L133.704 33.1947L134.249 33.2892ZM136.071 33.2892L136.615 33.3849L136.729 32.7361H136.071V33.2892ZM133.661 47V47.5531H134.126L134.206 47.0957L133.661 47ZM132.271 47L131.78 47.2544L131.934 47.5531H132.271V47ZM126.943 36.7169L127.434 36.4624L126.681 35.0086L126.398 36.6214L126.943 36.7169ZM125.141 47V47.5531H125.606L125.686 47.0955L125.141 47ZM123.864 47.0957L126.273 33.3849L125.184 33.1934L122.775 46.9043L123.864 47.0957ZM125.729 33.8423H127.119V32.7361H125.729V33.8423ZM126.629 33.5443L131.976 43.8275L132.957 43.3171L127.61 33.034L126.629 33.5443ZM133.012 43.6668L134.794 33.3836L133.704 33.1947L131.922 43.4778L133.012 43.6668ZM134.249 33.8423H136.071V32.7361H134.249V33.8423ZM135.526 33.1934L133.117 46.9043L134.206 47.0957L136.615 33.3849L135.526 33.1934ZM133.661 46.4469H132.271V47.5531H133.661V46.4469ZM132.762 46.7456L127.434 36.4624L126.452 36.9713L131.78 47.2544L132.762 46.7456ZM126.398 36.6214L124.596 46.9045L125.686 47.0955L127.488 36.8123L126.398 36.6214ZM125.141 46.4469H123.32V47.5531H125.141V46.4469Z" fill="black"/>
<path fill-rule="evenodd" clip-rule="evenodd" d="M87 168.999C86.8335 169 86.6668 169 86.5 169C40.9365 169 4 132.063 4 86.5C4 40.9365 40.9365 4 86.5 4C132.063 4 169 40.9365 169 86.5C169 107.434 161.203 126.546 148.355 141.093L151.055 144.077C164.704 128.784 173 108.611 173 86.5C173 38.7274 134.273 0 86.5 0C38.7274 0 0 38.7274 0 86.5C0 134.273 38.7274 173 86.5 173C86.6668 173 86.8334 173 87 172.999V168.999Z" fill="black"/>
<path d="M107 157.5L119.5 137H133L124.5 150H131.5L112 173.5L116 157.5H107Z" stroke="black" stroke-width="2"/>
</svg>
