<svg width="173" height="176" viewBox="0 0 173 176" fill="none" xmlns="http://www.w3.org/2000/svg">
<path d="M64.5054 60.7539C70.5584 60.7539 75.2726 62.791 78.6483 66.865C82.024 70.9391 83.188 76.0026 82.1404 82.0555C81.3256 86.9444 79.2303 91.1058 75.8547 94.5397L51.8467 123H42.0689L60.0531 101.698C59.5292 101.757 58.7435 101.786 57.6959 101.786C51.7012 101.786 46.9869 99.7778 43.553 95.7619C40.1774 91.6878 39.0134 86.6243 40.061 80.5714C41.1086 74.5185 43.844 69.7169 48.2673 66.1666C52.7488 62.5582 58.1615 60.7539 64.5054 60.7539ZM48.18 81.2698C47.4816 85.1693 48.0927 88.283 50.0134 90.6111C51.9922 92.9391 54.9314 94.1032 58.8308 94.1032C62.7303 94.1032 66.0769 92.9391 68.8705 90.6111C71.6642 88.283 73.3811 85.1693 74.0213 81.2698C74.7197 77.3703 74.0795 74.2857 72.1007 72.0158C70.18 69.6878 67.27 68.5238 63.3705 68.5238C59.471 68.5238 56.1245 69.6878 53.3308 72.0158C50.5372 74.3439 48.8202 77.4285 48.18 81.2698ZM107.549 124.135C100.332 124.135 95.0644 121.108 91.747 115.056C88.4877 109.003 87.702 101.204 89.3898 91.6587C91.0777 82.0555 94.3951 74.5185 99.3422 69.0476C104.348 63.5185 110.662 60.7539 118.287 60.7539C125.562 60.7539 130.829 63.7804 134.088 69.8333C137.348 75.828 138.133 83.5979 136.445 93.1428C134.758 102.804 131.411 110.399 126.406 115.929C121.459 121.399 115.173 124.135 107.549 124.135ZM98.3819 110.079C100.361 114.153 103.824 116.19 108.771 116.19C113.718 116.19 117.879 114.153 121.255 110.079C124.689 105.947 127.075 100.069 128.414 92.4444C129.752 84.8783 129.432 79.0291 127.453 74.8968C125.533 70.7063 122.099 68.6111 117.152 68.6111C112.205 68.6111 108.014 70.7063 104.58 74.8968C101.146 79.0291 98.7893 84.8783 97.5089 92.4444C96.1702 100.069 96.4613 105.947 98.3819 110.079Z" fill="black"/>
<path d="M78.6483 66.865L80.5466 65.2922L78.6483 66.865ZM82.1404 82.0555L79.7113 81.6351L79.71 81.6427L79.7087 81.6502L82.1404 82.0555ZM75.8547 94.5397L74.0967 92.8115L74.0309 92.8784L73.9703 92.9501L75.8547 94.5397ZM51.8467 123V125.465H52.9923L53.731 124.59L51.8467 123ZM42.0689 123L40.1853 121.41L36.7614 125.465H42.0689V123ZM60.0531 101.698L61.9367 103.289L65.9242 98.5657L59.7808 99.2483L60.0531 101.698ZM43.553 95.7619L41.6548 97.3347L41.667 97.3494L41.6794 97.364L43.553 95.7619ZM40.061 80.5714L42.4901 80.9918L40.061 80.5714ZM48.2673 66.1666L49.8104 68.0891L49.8134 68.0867L48.2673 66.1666ZM48.18 81.2698L50.6066 81.7044L50.6092 81.6898L50.6117 81.6751L48.18 81.2698ZM50.0134 90.6111L48.1118 92.1799L48.1233 92.1939L48.135 92.2077L50.0134 90.6111ZM74.0213 81.2698L71.5947 80.8352L71.5916 80.8528L71.5887 80.8704L74.0213 81.2698ZM72.1007 72.0158L70.1991 73.5846L70.2204 73.6105L70.2425 73.6358L72.1007 72.0158ZM53.3308 72.0158L51.7526 70.122L53.3308 72.0158ZM64.5054 63.2191C69.9428 63.2191 73.9134 65.0143 76.7501 68.4379L80.5466 65.2922C76.6319 60.5676 71.1739 58.2887 64.5054 58.2887V63.2191ZM76.7501 68.4379C79.5897 71.865 80.658 76.1654 79.7113 81.6351L84.5695 82.4759C85.718 75.8398 84.4583 70.0132 80.5466 65.2922L76.7501 68.4379ZM79.7087 81.6502C78.9746 86.055 77.1062 89.75 74.0967 92.8115L77.6126 96.2679C81.3544 92.4616 83.6765 87.8338 84.572 82.4608L79.7087 81.6502ZM73.9703 92.9501L49.9624 121.41L53.731 124.59L77.739 96.1292L73.9703 92.9501ZM51.8467 120.535H42.0689V125.465H51.8467V120.535ZM43.9526 124.59L61.9367 103.289L58.1694 100.108L40.1853 121.41L43.9526 124.59ZM59.7808 99.2483C59.3974 99.2909 58.7228 99.3205 57.6959 99.3205V104.251C58.7643 104.251 59.6611 104.222 60.3253 104.149L59.7808 99.2483ZM57.6959 99.3205C52.3135 99.3205 48.3261 97.5506 45.4267 94.1598L41.6794 97.364C45.6477 102.005 51.0889 104.251 57.6959 104.251V99.3205ZM45.4513 94.189C42.6117 90.7619 41.5434 86.4615 42.4901 80.9918L37.6319 80.151C36.4833 86.7871 37.7431 92.6137 41.6548 97.3347L45.4513 94.189ZM42.4901 80.9918C43.4444 75.4776 45.8961 71.2309 49.8104 68.0891L46.7243 64.2441C41.792 68.2029 38.7727 73.5594 37.6319 80.151L42.4901 80.9918ZM49.8134 68.0867C53.8113 64.8677 58.6626 63.2191 64.5054 63.2191V58.2887C57.6605 58.2887 51.6864 60.2486 46.7213 64.2465L49.8134 68.0867ZM45.7534 80.8352C44.97 85.2095 45.5963 89.1308 48.1118 92.1799L51.915 89.0423C50.5892 87.4353 49.9932 85.1291 50.6066 81.7044L45.7534 80.8352ZM48.135 92.2077C50.7057 95.232 54.4234 96.5683 58.8308 96.5683V91.638C55.4393 91.638 53.2787 90.6463 51.8917 89.0145L48.135 92.2077ZM58.8308 96.5683C63.2621 96.5683 67.1787 95.2299 70.4487 92.5049L67.2923 88.7173C64.9751 90.6483 62.1985 91.638 58.8308 91.638V96.5683ZM70.4487 92.5049C73.7383 89.7635 75.7267 86.0986 76.4539 81.6692L71.5887 80.8704C71.0355 84.2399 69.59 86.8025 67.2923 88.7173L70.4487 92.5049ZM76.4479 81.7044C77.2333 77.3192 76.5744 73.396 73.9589 70.3959L70.2425 73.6358C71.5847 75.1754 72.2062 77.4214 71.5947 80.8352L76.4479 81.7044ZM74.0023 70.447C71.4835 67.394 67.7741 66.0586 63.3705 66.0586V70.989C66.7659 70.989 68.8766 71.9816 70.1991 73.5846L74.0023 70.447ZM63.3705 66.0586C58.9393 66.0586 55.0227 67.397 51.7526 70.122L54.909 73.9096C57.2263 71.9786 60.0028 70.989 63.3705 70.989V66.0586ZM51.7526 70.122C48.4718 72.8561 46.4782 76.4856 45.7484 80.8645L50.6117 81.6751C51.1623 78.3715 52.6026 75.8317 54.909 73.9096L51.7526 70.122ZM91.747 115.056L89.5764 116.224L89.5808 116.232L89.5852 116.24L91.747 115.056ZM89.3898 91.6587L91.8174 92.088L91.8178 92.0854L89.3898 91.6587ZM99.3422 69.0476L97.5146 67.3931L97.5137 67.3942L99.3422 69.0476ZM134.088 69.8333L131.918 71.0021L131.922 71.0108L134.088 69.8333ZM136.445 93.1428L134.018 92.7136L134.017 92.7186L136.445 93.1428ZM126.406 115.929L124.578 114.274L124.577 114.275L126.406 115.929ZM98.3819 110.079L96.1464 111.118L96.1552 111.137L96.1644 111.156L98.3819 110.079ZM121.255 110.079L119.359 108.504L119.357 108.507L121.255 110.079ZM128.414 92.4444L125.986 92.0149L125.986 92.0181L128.414 92.4444ZM127.453 74.8968L125.212 75.9239L125.221 75.9428L125.23 75.9615L127.453 74.8968ZM104.58 74.8968L106.476 76.4723L106.482 76.4658L106.487 76.4593L104.58 74.8968ZM97.5089 92.4444L99.9369 92.8707L99.9382 92.8632L99.9395 92.8558L97.5089 92.4444ZM107.549 121.67C104.29 121.67 101.609 120.989 99.4136 119.728C97.2242 118.47 95.3801 116.555 93.9088 113.871L89.5852 116.24C91.4313 119.609 93.8795 122.234 96.9573 124.003C100.029 125.768 103.59 126.6 107.549 126.6V121.67ZM93.9175 113.887C91.0104 108.488 90.1873 101.306 91.8174 92.088L86.9623 91.2294C85.2166 101.101 85.965 109.517 89.5764 116.224L93.9175 113.887ZM91.8178 92.0854C93.4506 82.7956 96.6202 75.7333 101.171 70.701L97.5137 67.3942C92.17 73.3036 88.7047 81.3154 86.9618 91.232L91.8178 92.0854ZM101.17 70.702C105.696 65.7021 111.341 63.2191 118.287 63.2191V58.2887C109.984 58.2887 102.999 61.3348 97.5146 67.3931L101.17 70.702ZM118.287 63.2191C121.579 63.2191 124.273 63.9016 126.465 65.1612C128.65 66.4166 130.476 68.3254 131.918 71.002L136.259 68.6645C134.441 65.2883 132.004 62.6574 128.922 60.8863C125.847 59.1195 122.27 58.2887 118.287 58.2887V63.2191ZM131.922 71.0108C134.823 76.3455 135.648 83.4923 134.018 92.7136L138.873 93.5721C140.618 83.7034 139.872 75.3105 136.254 68.6558L131.922 71.0108ZM134.017 92.7186C132.385 102.063 129.187 109.183 124.578 114.274L128.233 117.583C133.635 111.616 137.131 103.546 138.874 93.5671L134.017 92.7186ZM124.577 114.275C120.115 119.21 114.503 121.67 107.549 121.67V126.6C115.843 126.6 122.802 123.589 128.234 117.582L124.577 114.275ZM96.1644 111.156C97.3381 113.573 99.0112 115.492 101.213 116.788C103.402 118.075 105.959 118.656 108.771 118.656V113.725C106.636 113.725 104.987 113.287 103.713 112.538C102.452 111.796 101.404 110.66 100.599 109.002L96.1644 111.156ZM108.771 118.656C114.508 118.656 119.346 116.247 123.153 111.652L119.357 108.507C116.412 112.06 112.927 113.725 108.771 113.725V118.656ZM123.151 111.655C126.954 107.078 129.46 100.743 130.842 92.8707L125.986 92.0181C124.69 99.3947 122.424 104.816 119.359 108.504L123.151 111.655ZM130.841 92.8739C132.215 85.1107 131.984 78.6492 129.677 73.8321L125.23 75.9615C126.881 79.4089 127.29 84.6459 125.986 92.0149L130.841 92.8739ZM129.694 73.8697C128.56 71.3952 126.916 69.4174 124.721 68.0781C122.538 66.7457 119.974 66.1459 117.152 66.1459V71.0763C119.276 71.0763 120.903 71.5241 122.153 72.2869C123.392 73.0428 124.426 74.2079 125.212 75.9239L129.694 73.8697ZM117.152 66.1459C111.39 66.1459 106.525 68.6342 102.674 73.3343L106.487 76.4593C109.503 72.7784 113.02 71.0763 117.152 71.0763V66.1459ZM102.684 73.3212C98.8787 77.9008 96.4019 84.2116 95.0782 92.0331L99.9395 92.8558C101.177 85.5449 103.414 80.1573 106.476 76.4723L102.684 73.3212ZM95.0808 92.0181C93.7095 99.8284 93.9107 106.308 96.1464 111.118L100.617 109.04C99.0118 105.586 98.6309 100.309 99.9369 92.8707L95.0808 92.0181Z" fill="black"/>
<path d="M116.859 33.2892L114.45 47H112.648L114.528 36.3447L108.75 43.7486H108.515L105.342 36.1684L103.442 47H101.62L104.029 33.2892H106.027L109.044 40.6147L114.724 33.2892H116.859ZM120.378 33.2892H122.2L119.791 47H117.969L120.378 33.2892ZM123.32 47L125.729 33.2892H127.119L132.467 43.5723L134.249 33.2892H136.071L133.661 47H132.271L126.943 36.7169L125.141 47H123.32Z" fill="black"/>
<path d="M116.859 33.2892L117.403 33.3849L117.518 32.7361H116.859V33.2892ZM114.45 47V47.5531H114.914L114.994 47.0957L114.45 47ZM112.648 47L112.103 46.9039L111.988 47.5531H112.648V47ZM114.528 36.3447L115.073 36.4408L114.092 36.0044L114.528 36.3447ZM108.75 43.7486V44.3017H109.02L109.186 44.0889L108.75 43.7486ZM108.515 43.7486L108.005 43.9621L108.147 44.3017H108.515V43.7486ZM105.342 36.1684L105.852 35.9549L105.123 34.2137L104.797 36.0729L105.342 36.1684ZM103.442 47V47.5531H103.906L103.986 47.0956L103.442 47ZM101.62 47L101.075 46.9043L100.961 47.5531H101.62V47ZM104.029 33.2892V32.7361H103.565L103.485 33.1934L104.029 33.2892ZM106.027 33.2892L106.539 33.0786L106.398 32.7361H106.027V33.2892ZM109.044 40.6147L108.532 40.8253L108.896 41.708L109.481 40.9536L109.044 40.6147ZM114.724 33.2892V32.7361H114.453L114.287 32.9502L114.724 33.2892ZM116.314 33.1934L113.905 46.9043L114.994 47.0957L117.403 33.3849L116.314 33.1934ZM114.45 46.4469H112.648V47.5531H114.45V46.4469ZM113.192 47.0961L115.073 36.4408L113.983 36.2486L112.103 46.9039L113.192 47.0961ZM114.092 36.0044L108.314 43.4083L109.186 44.0889L114.964 36.685L114.092 36.0044ZM108.75 43.1955H108.515V44.3017H108.75V43.1955ZM109.025 43.535L105.852 35.9549L104.831 36.382L108.005 43.9621L109.025 43.535ZM104.797 36.0729L102.897 46.9044L103.986 47.0956L105.886 36.264L104.797 36.0729ZM103.442 46.4469H101.62V47.5531H103.442V46.4469ZM102.165 47.0957L104.574 33.3849L103.485 33.1934L101.075 46.9043L102.165 47.0957ZM104.029 33.8423H106.027V32.7361H104.029V33.8423ZM105.516 33.4998L108.532 40.8253L109.555 40.4041L106.539 33.0786L105.516 33.4998ZM109.481 40.9536L115.161 33.6281L114.287 32.9502L108.606 40.2758L109.481 40.9536ZM114.724 33.8423H116.859V32.7361H114.724V33.8423ZM120.378 33.2892V32.7361H119.914L119.834 33.1934L120.378 33.2892ZM122.2 33.2892L122.745 33.3849L122.859 32.7361H122.2V33.2892ZM119.791 47V47.5531H120.255L120.335 47.0957L119.791 47ZM117.969 47L117.424 46.9043L117.31 47.5531H117.969V47ZM120.378 33.8423H122.2V32.7361H120.378V33.8423ZM121.655 33.1934L119.246 46.9043L120.335 47.0957L122.745 33.3849L121.655 33.1934ZM119.791 46.4469H117.969V47.5531H119.791V46.4469ZM118.514 47.0957L120.923 33.3849L119.834 33.1934L117.424 46.9043L118.514 47.0957ZM123.32 47L122.775 46.9043L122.661 47.5531H123.32V47ZM125.729 33.2892V32.7361H125.264L125.184 33.1934L125.729 33.2892ZM127.119 33.2892L127.61 33.034L127.455 32.7361H127.119V33.2892ZM132.467 43.5723L131.976 43.8275L132.732 45.281L133.012 43.6668L132.467 43.5723ZM134.249 33.2892V32.7361H133.784L133.704 33.1947L134.249 33.2892ZM136.071 33.2892L136.615 33.3849L136.729 32.7361H136.071V33.2892ZM133.661 47V47.5531H134.126L134.206 47.0957L133.661 47ZM132.271 47L131.78 47.2544L131.934 47.5531H132.271V47ZM126.943 36.7169L127.434 36.4624L126.681 35.0086L126.398 36.6214L126.943 36.7169ZM125.141 47V47.5531H125.606L125.686 47.0955L125.141 47ZM123.864 47.0957L126.273 33.3849L125.184 33.1934L122.775 46.9043L123.864 47.0957ZM125.729 33.8423H127.119V32.7361H125.729V33.8423ZM126.629 33.5443L131.976 43.8275L132.957 43.3171L127.61 33.034L126.629 33.5443ZM133.012 43.6668L134.794 33.3836L133.704 33.1947L131.922 43.4778L133.012 43.6668ZM134.249 33.8423H136.071V32.7361H134.249V33.8423ZM135.526 33.1934L133.117 46.9043L134.206 47.0957L136.615 33.3849L135.526 33.1934ZM133.661 46.4469H132.271V47.5531H133.661V46.4469ZM132.762 46.7456L127.434 36.4624L126.452 36.9713L131.78 47.2544L132.762 46.7456ZM126.398 36.6214L124.596 46.9045L125.686 47.0955L127.488 36.8123L126.398 36.6214ZM125.141 46.4469H123.32V47.5531H125.141V46.4469Z" fill="black"/>
<path fill-rule="evenodd" clip-rule="evenodd" d="M87 168.999C86.8335 169 86.6668 169 86.5 169C40.9365 169 4 132.063 4 86.5C4 40.9365 40.9365 4 86.5 4C132.063 4 169 40.9365 169 86.5C169 107.434 161.203 126.546 148.355 141.093L151.055 144.077C164.704 128.784 173 108.611 173 86.5C173 38.7274 134.273 0 86.5 0C38.7274 0 0 38.7274 0 86.5C0 134.273 38.7274 173 86.5 173C86.6668 173 86.8334 173 87 172.999V168.999Z" fill="black"/>
<path d="M107 157.5L119.5 137H133L124.5 150H131.5L112 173.5L116 157.5H107Z" stroke="black" stroke-width="2"/>
</svg>
