<svg width="174" height="174" viewBox="0 0 174 174" fill="none" xmlns="http://www.w3.org/2000/svg">
<circle cx="87.5" cy="86.5" r="84.5" stroke="black" stroke-width="4"/>
<path d="M77.5695 36H102.075V62.7332H96.5055V73.8721L102.075 93.922V118.427C100.218 120.284 94.7233 123.997 87.5945 123.997" stroke="black" stroke-width="3"/>
<path d="M78.6832 36H73.1138V62.7332H78.6832V73.8721L73.1138 93.922V118.427C74.9702 120.284 80.4654 123.997 87.5943 123.997" stroke="black" stroke-width="3"/>
<circle r="4.45554" transform="matrix(-1 0 0 1 87.5943 49.4555)" stroke="black" stroke-width="3"/>
<path fill-rule="evenodd" clip-rule="evenodd" d="M103.189 117.314V118.721C102.684 119.165 101.93 119.721 100.961 120.304L100.961 138H103.189L103.189 117.314H103.189ZM74.2277 120.304C73.2586 119.721 72.5045 119.165 71.9999 118.721V138H74.2277V120.304ZM78.3649 122.292C77.5644 121.991 76.8197 121.667 76.1372 121.336V138H78.3649V122.292ZM82.5022 123.483C81.7286 123.327 80.9849 123.14 80.2745 122.931V138H82.5022V123.483ZM86.6395 123.979C85.8772 123.95 85.1339 123.887 84.4117 123.796V138H86.6395L86.6395 123.979ZM90.7768 123.796C90.0547 123.887 89.3113 123.95 88.549 123.979L88.549 138H90.7768L90.7768 123.796ZM94.9141 122.931C94.2036 123.14 93.4599 123.327 92.6863 123.483L92.6863 138H94.9141L94.9141 122.931ZM99.0514 121.336C98.3688 121.667 97.6241 121.991 96.8236 122.292L96.8236 138H99.0514L99.0514 121.336Z" fill="black"/>
<rect width="8.91107" height="20.0499" rx="4.45554" transform="matrix(-1 0 0 1 92.0498 86.1249)" stroke="black" stroke-width="3"/>
</svg>
