<svg width="174" height="174" viewBox="0 0 174 174" fill="none" xmlns="http://www.w3.org/2000/svg">
<circle cx="87.5" cy="86.5" r="84.5" stroke="black" stroke-width="4"/>
<path d="M31.6138 111L32.3821 106.508L49.6407 91.6136C54.1721 87.8309 56.7136 84.4816 57.2653 81.5658C57.6987 79.241 57.3047 77.4284 56.0832 76.1281C54.9011 74.8278 53.2855 74.1777 51.2366 74.1777C47.5721 74.1777 44.4789 76.0493 41.9571 79.7926L37.5834 77.0147C41.2084 71.5771 45.9762 68.8582 51.8867 68.8582C55.3542 68.8582 58.1912 70.0797 60.3978 72.5227C62.6438 74.9263 63.4122 78.0786 62.7029 81.9795C62.3089 84.3831 61.3238 86.5897 59.7477 88.5993C58.2109 90.6088 56.0635 92.7957 53.3052 95.1599L40.8341 105.681H59.2748L58.3883 111H31.6138ZM80.5276 111.768C75.6416 111.768 72.0756 109.719 69.8297 105.621C67.6231 101.524 67.0911 96.2435 68.2338 89.7814C69.3765 83.2798 71.6225 78.1771 74.9718 74.4732C78.3605 70.7299 82.6357 68.8582 87.7975 68.8582C92.7229 68.8582 96.2889 70.9072 98.4955 75.0051C100.702 79.0637 101.234 84.324 100.091 90.7861C98.9487 97.3271 96.683 102.469 93.2943 106.213C89.945 109.916 85.6895 111.768 80.5276 111.768ZM74.3216 102.252C75.6613 105.011 78.0058 106.39 81.3551 106.39C84.7044 106.39 87.5217 105.011 89.8071 102.252C92.1319 99.4549 93.7474 95.4751 94.6537 90.3133C95.56 85.1909 95.3433 81.2309 94.0035 78.4332C92.7032 75.5962 90.3784 74.1777 87.0292 74.1777C83.6799 74.1777 80.8429 75.5962 78.5181 78.4332C76.1933 81.2309 74.5975 85.1909 73.7306 90.3133C72.8243 95.4751 73.0213 99.4549 74.3216 102.252ZM119.645 111.768C114.759 111.768 111.193 109.719 108.947 105.621C106.741 101.524 106.209 96.2435 107.352 89.7814C108.494 83.2798 110.74 78.1771 114.089 74.4732C117.478 70.7299 121.753 68.8582 126.915 68.8582C131.841 68.8582 135.407 70.9072 137.613 75.0051C139.82 79.0637 140.352 84.324 139.209 90.7861C138.066 97.3271 135.801 102.469 132.412 106.213C129.063 109.916 124.807 111.768 119.645 111.768ZM113.439 102.252C114.779 105.011 117.124 106.39 120.473 106.39C123.822 106.39 126.639 105.011 128.925 102.252C131.25 99.4549 132.865 95.4751 133.771 90.3133C134.678 85.1909 134.461 81.2309 133.121 78.4332C131.821 75.5962 129.496 74.1777 126.147 74.1777C122.798 74.1777 119.961 75.5962 117.636 78.4332C115.311 81.2309 113.715 85.1909 112.848 90.3133C111.942 95.4751 112.139 99.4549 113.439 102.252Z" fill="black"/>
<path d="M31.6138 111L29.9687 110.719L29.6351 112.669H31.6138V111ZM32.3821 106.508L31.2917 105.245L30.8381 105.636L30.737 106.227L32.3821 106.508ZM49.6407 91.6136L48.5712 90.3324L48.5607 90.3411L48.5503 90.3501L49.6407 91.6136ZM57.2653 81.5658L58.9052 81.876L58.906 81.8717L57.2653 81.5658ZM56.0832 76.1281L54.8482 77.2508L54.8574 77.2609L54.8667 77.2709L56.0832 76.1281ZM41.9571 79.7926L41.0623 81.2015L42.4336 82.0725L43.3413 80.7251L41.9571 79.7926ZM37.5834 77.0147L36.1947 76.0889L35.2482 77.5087L36.6885 78.4236L37.5834 77.0147ZM60.3978 72.5227L59.1593 73.6414L59.1687 73.6519L59.1784 73.6622L60.3978 72.5227ZM62.7029 81.9795L61.0609 81.681L61.0583 81.6952L61.0559 81.7095L62.7029 81.9795ZM59.7477 88.5993L58.4344 87.5693L58.4281 87.5773L58.4219 87.5854L59.7477 88.5993ZM53.3052 95.1599L54.3814 96.4356L54.3914 96.4271L53.3052 95.1599ZM40.8341 105.681L39.7579 104.405L36.2674 107.35H40.8341V105.681ZM59.2748 105.681L60.9211 105.955L61.245 104.012H59.2748V105.681ZM58.3883 111V112.669H59.8021L60.0345 111.274L58.3883 111ZM33.2589 111.281L34.0272 106.789L30.737 106.227L29.9687 110.719L33.2589 111.281ZM33.4726 107.772L50.7312 92.8771L48.5503 90.3501L31.2917 105.245L33.4726 107.772ZM50.7103 92.8948C55.2896 89.0721 58.2384 85.4003 58.9052 81.876L55.6254 81.2555C55.1888 83.563 53.0546 86.5897 48.5712 90.3324L50.7103 92.8948ZM58.906 81.8717C59.4023 79.2098 58.9978 76.7931 57.2996 74.9854L54.8667 77.2709C55.6116 78.0637 55.9951 79.2722 55.6246 81.2599L58.906 81.8717ZM57.3181 75.0055C55.7664 73.2986 53.6702 72.5087 51.2366 72.5087V75.8467C52.9009 75.8467 54.0358 76.3571 54.8482 77.2508L57.3181 75.0055ZM51.2366 72.5087C46.8851 72.5087 43.3232 74.7777 40.5729 78.8601L43.3413 80.7251C45.6346 77.321 48.2591 75.8467 51.2366 75.8467V72.5087ZM42.8519 78.3838L38.4782 75.6059L36.6885 78.4236L41.0623 81.2015L42.8519 78.3838ZM38.972 77.9405C42.3261 72.9093 46.6004 70.5272 51.8867 70.5272V67.1893C45.3521 67.1893 40.0908 70.2448 36.1947 76.0889L38.972 77.9405ZM51.8867 70.5272C54.9106 70.5272 57.2877 71.5694 59.1593 73.6414L61.6364 71.404C59.0948 68.5901 55.7979 67.1893 51.8867 67.1893V70.5272ZM59.1784 73.6622C60.9883 75.5992 61.6975 78.1794 61.0609 81.681L64.345 82.2781C65.1269 77.9778 64.2993 74.2535 61.6173 71.3833L59.1784 73.6622ZM61.0559 81.7095C60.7096 83.8221 59.8458 85.7698 58.4344 87.5693L61.0609 89.6293C62.8018 87.4096 63.9082 84.9441 64.3499 82.2495L61.0559 81.7095ZM58.4219 87.5854C56.9792 89.472 54.9236 91.5746 52.2191 93.8927L54.3914 96.4271C57.2033 94.0169 59.4426 91.7457 61.0734 89.6131L58.4219 87.5854ZM52.2291 93.8842L39.7579 104.405L41.9103 106.956L54.3814 96.4356L52.2291 93.8842ZM40.8341 107.35H59.2748V104.012H40.8341V107.35ZM57.6286 105.406L56.742 110.726L60.0345 111.274L60.9211 105.955L57.6286 105.406ZM58.3883 109.331H31.6138V112.669H58.3883V109.331ZM69.8297 105.621L68.3601 106.413L68.3661 106.424L69.8297 105.621ZM68.2338 89.7814L69.8773 90.072L69.8776 90.0703L68.2338 89.7814ZM74.9718 74.4732L73.7345 73.3531L73.7339 73.3538L74.9718 74.4732ZM98.4955 75.0051L97.026 75.7964L97.0292 75.8023L98.4955 75.0051ZM100.091 90.7861L98.4479 90.4955L98.4473 90.4989L100.091 90.7861ZM93.2943 106.213L92.057 105.092L92.0564 105.093L93.2943 106.213ZM74.3216 102.252L72.8081 102.956L72.8141 102.969L72.8204 102.982L74.3216 102.252ZM89.8071 102.252L88.5235 101.186L88.5219 101.188L89.8071 102.252ZM94.6537 90.3133L93.0102 90.0225L93.0099 90.0247L94.6537 90.3133ZM94.0035 78.4332L92.4863 79.1286L92.4922 79.1414L92.4983 79.1541L94.0035 78.4332ZM78.5181 78.4332L79.8017 79.4999L79.809 79.4911L78.5181 78.4332ZM73.7306 90.3133L75.3745 90.6019L75.3762 90.5918L73.7306 90.3133ZM80.5276 110.099C78.3214 110.099 76.5063 109.638 75.0201 108.785C73.5379 107.933 72.2894 106.637 71.2932 104.819L68.3661 106.424C69.616 108.704 71.2734 110.481 73.3572 111.679C75.437 112.874 77.8479 113.437 80.5276 113.437V110.099ZM71.2992 104.83C69.331 101.175 68.7738 96.3127 69.8773 90.072L66.5903 89.4907C65.4085 96.1743 65.9152 101.872 68.3602 106.413L71.2992 104.83ZM69.8776 90.0703C70.983 83.7809 73.1289 78.9996 76.2097 75.5926L73.7339 73.3538C70.1161 77.3546 67.77 82.7788 66.59 89.4925L69.8776 90.0703ZM76.2091 75.5933C79.2734 72.2083 83.0952 70.5272 87.7975 70.5272V67.1893C82.1762 67.1893 77.4475 69.2515 73.7345 73.3531L76.2091 75.5933ZM87.7975 70.5272C90.0262 70.5272 91.8503 70.9893 93.3346 71.8421C94.8138 72.692 96.0502 73.9843 97.026 75.7964L99.965 74.2139C98.7342 71.9281 97.0844 70.1469 94.9976 68.9479C92.9158 67.7517 90.4943 67.1893 87.7975 67.1893V70.5272ZM97.0292 75.8023C98.9929 79.4141 99.5518 84.2525 98.4479 90.4955L101.735 91.0768C102.916 84.3955 102.411 78.7133 99.9618 74.2079L97.0292 75.8023ZM98.4473 90.4989C97.3421 96.8252 95.1772 101.646 92.057 105.092L94.5316 107.333C98.1887 103.293 100.555 97.829 101.735 91.0734L98.4473 90.4989ZM92.0564 105.093C89.0354 108.434 85.2357 110.099 80.5276 110.099V113.437C86.1432 113.437 90.8546 111.399 94.5322 107.332L92.0564 105.093ZM72.8204 102.982C73.615 104.618 74.7477 105.917 76.2386 106.794C77.7205 107.666 79.4514 108.059 81.3551 108.059V104.721C79.9096 104.721 78.7936 104.424 77.931 103.917C77.0774 103.415 76.368 102.646 75.8229 101.523L72.8204 102.982ZM81.3551 108.059C85.2395 108.059 88.515 106.428 91.0923 103.317L88.5219 101.188C86.5285 103.594 84.1693 104.721 81.3551 104.721V108.059ZM91.0907 103.319C93.6655 100.221 95.3618 95.9315 96.2975 90.6019L93.0099 90.0247C92.133 95.0187 90.5983 98.689 88.5235 101.186L91.0907 103.319ZM96.2972 90.6041C97.227 85.3482 97.0706 80.9737 95.5088 77.7124L92.4983 79.1541C93.6159 81.488 93.8929 85.0335 93.0102 90.0225L96.2972 90.6041ZM95.5208 77.7378C94.7529 76.0626 93.6401 74.7236 92.154 73.8169C90.6756 72.9148 88.9402 72.5087 87.0292 72.5087V75.8467C88.4675 75.8467 89.569 76.1498 90.4154 76.6663C91.2542 77.1781 91.9539 77.9669 92.4863 79.1286L95.5208 77.7378ZM87.0292 72.5087C83.128 72.5087 79.8346 74.1934 77.2272 77.3754L79.809 79.4911C81.8511 76.999 84.2318 75.8467 87.0292 75.8467V72.5087ZM77.2344 77.3666C74.658 80.467 72.9811 84.7396 72.085 90.0348L75.3762 90.5918C76.2138 85.6422 77.7286 81.9947 79.8017 79.4999L77.2344 77.3666ZM72.0867 90.0247C71.1584 95.3124 71.2945 99.6994 72.8081 102.956L75.8351 101.549C74.7481 99.2103 74.4902 95.6379 75.3744 90.6019L72.0867 90.0247ZM108.947 105.621L107.478 106.413L107.484 106.424L108.947 105.621ZM107.352 89.7814L108.995 90.072L108.995 90.0703L107.352 89.7814ZM114.089 74.4732L112.852 73.3531L112.852 73.3538L114.089 74.4732ZM137.613 75.0051L136.144 75.7964L136.147 75.8023L137.613 75.0051ZM139.209 90.7861L137.566 90.4955L137.565 90.4989L139.209 90.7861ZM132.412 106.213L131.175 105.092L131.174 105.093L132.412 106.213ZM113.439 102.252L111.926 102.956L111.932 102.969L111.938 102.982L113.439 102.252ZM128.925 102.252L127.641 101.186L127.64 101.188L128.925 102.252ZM133.771 90.3133L132.128 90.0225L132.128 90.0247L133.771 90.3133ZM133.121 78.4332L131.604 79.1286L131.61 79.1414L131.616 79.1541L133.121 78.4332ZM117.636 78.4332L118.919 79.4999L118.927 79.4911L117.636 78.4332ZM112.848 90.3133L114.492 90.6019L114.494 90.5918L112.848 90.3133ZM119.645 110.099C117.439 110.099 115.624 109.638 114.138 108.785C112.656 107.933 111.407 106.637 110.411 104.819L107.484 106.424C108.734 108.704 110.391 110.481 112.475 111.679C114.555 112.874 116.966 113.437 119.645 113.437V110.099ZM110.417 104.83C108.449 101.175 107.891 96.3127 108.995 90.072L105.708 89.4907C104.526 96.1743 105.033 101.872 107.478 106.413L110.417 104.83ZM108.995 90.0703C110.101 83.7809 112.247 78.9996 115.327 75.5926L112.852 73.3538C109.234 77.3546 106.888 82.7788 105.708 89.4925L108.995 90.0703ZM115.327 75.5933C118.391 72.2083 122.213 70.5272 126.915 70.5272V67.1893C121.294 67.1893 116.565 69.2515 112.852 73.3531L115.327 75.5933ZM126.915 70.5272C129.144 70.5272 130.968 70.9893 132.452 71.8421C133.931 72.692 135.168 73.9843 136.144 75.7964L139.083 74.2139C137.852 71.9281 136.202 70.1469 134.115 68.9479C132.034 67.7517 129.612 67.1893 126.915 67.1893V70.5272ZM136.147 75.8023C138.111 79.4141 138.67 84.2525 137.566 90.4955L140.853 91.0768C142.034 84.3955 141.529 78.7133 139.08 74.2079L136.147 75.8023ZM137.565 90.4989C136.46 96.8252 134.295 101.646 131.175 105.092L133.649 107.333C137.306 103.293 139.673 97.829 140.853 91.0734L137.565 90.4989ZM131.174 105.093C128.153 108.434 124.353 110.099 119.645 110.099V113.437C125.261 113.437 129.972 111.399 133.65 107.332L131.174 105.093ZM111.938 102.982C112.733 104.618 113.865 105.917 115.356 106.794C116.838 107.666 118.569 108.059 120.473 108.059V104.721C119.027 104.721 117.911 104.424 117.049 103.917C116.195 103.415 115.486 102.646 114.941 101.523L111.938 102.982ZM120.473 108.059C124.357 108.059 127.633 106.428 130.21 103.317L127.64 101.188C125.646 103.594 123.287 104.721 120.473 104.721V108.059ZM130.208 103.319C132.783 100.221 134.48 95.9315 135.415 90.6019L132.128 90.0247C131.251 95.0187 129.716 98.689 127.641 101.186L130.208 103.319ZM135.415 90.6041C136.345 85.3482 136.188 80.9737 134.627 77.7124L131.616 79.1541C132.734 81.488 133.011 85.0335 132.128 90.0225L135.415 90.6041ZM134.638 77.7378C133.871 76.0626 132.758 74.7236 131.272 73.8169C129.793 72.9148 128.058 72.5087 126.147 72.5087V75.8467C127.585 75.8467 128.687 76.1498 129.533 76.6663C130.372 77.1781 131.072 77.9669 131.604 79.1286L134.638 77.7378ZM126.147 72.5087C122.246 72.5087 118.952 74.1934 116.345 77.3754L118.927 79.4911C120.969 76.999 123.349 75.8467 126.147 75.8467V72.5087ZM116.352 77.3666C113.776 80.467 112.099 84.7396 111.203 90.0348L114.494 90.5918C115.332 85.6422 116.846 81.9947 118.919 79.4999L116.352 77.3666ZM111.204 90.0247C110.276 95.3124 110.412 99.6994 111.926 102.956L114.953 101.549C113.866 99.2103 113.608 95.6379 114.492 90.6019L111.204 90.0247Z" fill="black"/>
<path d="M141.719 46.2892L139.31 60H137.508L139.388 49.3447L133.61 56.7486H133.375L130.202 49.1684L128.302 60H126.48L128.889 46.2892H130.887L133.904 53.6147L139.584 46.2892H141.719ZM143.613 51.8518L143.848 50.7746L146.374 48.62C147.158 47.941 147.732 47.3795 148.098 46.9355C148.464 46.4916 148.646 46.0149 148.646 45.5057C148.646 45.1792 148.548 44.9181 148.353 44.7222C148.17 44.5263 147.896 44.4284 147.53 44.4284C146.916 44.4284 146.296 44.683 145.669 45.1923L145.062 44.2717C145.467 43.9453 145.885 43.7037 146.316 43.547C146.76 43.3772 147.243 43.2924 147.765 43.2924C148.313 43.2924 148.751 43.3903 149.077 43.5862C149.404 43.782 149.639 44.0367 149.782 44.3501C149.939 44.6504 150.017 44.9638 150.017 45.2902C150.017 45.7211 149.939 46.1194 149.782 46.485C149.639 46.8507 149.391 47.2293 149.038 47.6211C148.686 48.0128 148.209 48.4568 147.608 48.953L145.571 50.657H149.312L149.058 51.8518H143.613Z" fill="black"/>
<path d="M141.719 46.2892L142.264 46.3849L142.378 45.7361H141.719V46.2892ZM139.31 60V60.5531H139.774L139.854 60.0957L139.31 60ZM137.508 60L136.963 59.9039L136.848 60.5531H137.508V60ZM139.388 49.3447L139.933 49.4408L138.952 49.0044L139.388 49.3447ZM133.61 56.7486V57.3017H133.88L134.046 57.0889L133.61 56.7486ZM133.375 56.7486L132.865 56.9621L133.007 57.3017H133.375V56.7486ZM130.202 49.1684L130.712 48.9549L129.983 47.2137L129.657 49.0729L130.202 49.1684ZM128.302 60V60.5531H128.766L128.846 60.0956L128.302 60ZM126.48 60L125.935 59.9043L125.821 60.5531H126.48V60ZM128.889 46.2892V45.7361H128.425L128.345 46.1934L128.889 46.2892ZM130.887 46.2892L131.399 46.0786L131.258 45.7361H130.887V46.2892ZM133.904 53.6147L133.392 53.8253L133.756 54.708L134.341 53.9536L133.904 53.6147ZM139.584 46.2892V45.7361H139.313L139.147 45.9502L139.584 46.2892ZM141.174 46.1934L138.765 59.9043L139.854 60.0957L142.264 46.3849L141.174 46.1934ZM139.31 59.4469H137.508V60.5531H139.31V59.4469ZM138.052 60.0961L139.933 49.4408L138.843 49.2486L136.963 59.9039L138.052 60.0961ZM138.952 49.0044L133.174 56.4083L134.046 57.0889L139.824 49.685L138.952 49.0044ZM133.61 56.1955H133.375V57.3017H133.61V56.1955ZM133.885 56.535L130.712 48.9549L129.691 49.382L132.865 56.9621L133.885 56.535ZM129.657 49.0729L127.757 59.9044L128.846 60.0956L130.746 49.264L129.657 49.0729ZM128.302 59.4469H126.48V60.5531H128.302V59.4469ZM127.025 60.0957L129.434 46.3849L128.345 46.1934L125.935 59.9043L127.025 60.0957ZM128.889 46.8423H130.887V45.7361H128.889V46.8423ZM130.376 46.4998L133.392 53.8253L134.415 53.4041L131.399 46.0786L130.376 46.4998ZM134.341 53.9536L140.021 46.6281L139.147 45.9502L133.466 53.2758L134.341 53.9536ZM139.584 46.8423H141.719V45.7361H139.584V46.8423ZM143.613 51.8518L143.072 51.7339L142.926 52.4049H143.613V51.8518ZM143.848 50.7746L143.489 50.3537L143.347 50.4746L143.307 50.6567L143.848 50.7746ZM146.374 48.62L146.733 49.0409L146.737 49.038L146.374 48.62ZM148.098 46.9355L147.671 46.5839L148.098 46.9355ZM148.353 44.7222L147.948 45.0996L147.955 45.1066L147.962 45.1133L148.353 44.7222ZM145.669 45.1923L145.207 45.4968L145.544 46.0068L146.018 45.6216L145.669 45.1923ZM145.062 44.2717L144.715 43.8412L144.324 44.1567L144.6 44.5762L145.062 44.2717ZM146.316 43.547L146.505 44.0669L146.513 44.0636L146.316 43.547ZM149.077 43.5862L149.362 43.1119L149.362 43.1119L149.077 43.5862ZM149.782 44.3501L149.28 44.5805L149.286 44.5934L149.292 44.6059L149.782 44.3501ZM149.782 46.485L149.274 46.2672L149.271 46.2749L149.268 46.2828L149.782 46.485ZM149.038 47.6211L149.449 47.9911V47.9911L149.038 47.6211ZM147.608 48.953L147.256 48.5266L147.253 48.5288L147.608 48.953ZM145.571 50.657L145.216 50.2328L144.048 51.2101H145.571V50.657ZM149.312 50.657L149.853 50.7723L149.996 50.104H149.312V50.657ZM149.058 51.8518V52.4049H149.505L149.599 51.9671L149.058 51.8518ZM144.153 51.9697L144.388 50.8925L143.307 50.6567L143.072 51.7339L144.153 51.9697ZM144.206 51.1954L146.733 49.0409L146.015 48.1991L143.489 50.3537L144.206 51.1954ZM146.737 49.038C147.528 48.352 148.13 47.7668 148.525 47.2871L147.671 46.5839C147.335 46.9922 146.788 47.53 146.012 48.202L146.737 49.038ZM148.525 47.2871C148.961 46.7577 149.199 46.1598 149.199 45.5057H148.093C148.093 45.8701 147.966 46.2254 147.671 46.5839L148.525 47.2871ZM149.199 45.5057C149.199 45.0607 149.062 44.6491 148.744 44.3311L147.962 45.1133C148.035 45.1871 148.093 45.2977 148.093 45.5057H149.199ZM148.757 44.3448C148.436 44.0006 147.991 43.8753 147.53 43.8753V44.9815C147.8 44.9815 147.904 45.0521 147.948 45.0996L148.757 44.3448ZM147.53 43.8753C146.754 43.8753 146.014 44.1992 145.32 44.763L146.018 45.6216C146.578 45.1669 147.079 44.9815 147.53 44.9815V43.8753ZM146.131 44.8878L145.524 43.9672L144.6 44.5762L145.207 45.4968L146.131 44.8878ZM145.409 44.7022C145.773 44.409 146.138 44.2001 146.505 44.0668L146.127 43.0272C145.631 43.2073 145.161 43.4815 144.715 43.8412L145.409 44.7022ZM146.513 44.0636C146.888 43.9202 147.304 43.8455 147.765 43.8455V42.7393C147.182 42.7393 146.631 42.8342 146.118 43.0304L146.513 44.0636ZM147.765 43.8455C148.255 43.8455 148.582 43.934 148.793 44.0604L149.362 43.1119C148.92 42.8466 148.372 42.7393 147.765 42.7393V43.8455ZM148.793 44.0604C149.034 44.2052 149.187 44.379 149.28 44.5805L150.285 44.1196C150.09 43.6943 149.774 43.3589 149.362 43.1119L148.793 44.0604ZM149.292 44.6059C149.409 44.8303 149.464 45.0563 149.464 45.2902H150.571C150.571 44.8713 150.469 44.4705 150.273 44.0942L149.292 44.6059ZM149.464 45.2902C149.464 45.6525 149.399 45.9759 149.274 46.2672L150.291 46.7029C150.479 46.2629 150.571 45.7897 150.571 45.2902H149.464ZM149.268 46.2828C149.155 46.5696 148.949 46.8928 148.627 47.2511L149.449 47.9911C149.832 47.5659 150.123 47.1317 150.297 46.6873L149.268 46.2828ZM148.627 47.2511C148.299 47.6155 147.845 48.0403 147.256 48.5266L147.961 49.3794C148.573 48.8732 149.072 48.4101 149.449 47.9911L148.627 47.2511ZM147.253 48.5288L145.216 50.2328L145.926 51.0813L147.963 49.3772L147.253 48.5288ZM145.571 51.2101H149.312V50.104H145.571V51.2101ZM148.771 50.5418L148.517 51.7366L149.599 51.9671L149.853 50.7723L148.771 50.5418ZM149.058 51.2988H143.613V52.4049H149.058V51.2988Z" fill="black"/>
</svg>
