<svg width="174" height="174" viewBox="0 0 174 174" fill="none" xmlns="http://www.w3.org/2000/svg">
<circle cx="87.5" cy="86.5" r="84.5" stroke="black" stroke-width="4"/>
<path d="M78 46C78 43.2386 80.2386 41 83 41H90.5C93.2614 41 95.5 43.2386 95.5 46V47H78V46Z" fill="black"/>
<path fill-rule="evenodd" clip-rule="evenodd" d="M74 52H100C104.418 52 108 55.5817 108 60V108.539C109.051 108.829 110.055 109.231 111 109.73V60C111 53.9249 106.075 49 100 49H74C67.9249 49 63 53.9249 63 60V118C63 124.075 67.9249 129 74 129H90.2481C89.832 128.047 89.5119 127.043 89.3001 126H74C69.5817 126 66 122.418 66 118V60C66 55.5817 69.5817 52 74 52Z" fill="black"/>
<path fill-rule="evenodd" clip-rule="evenodd" d="M70 62C70 58.134 73.134 55 77 55H98C101.866 55 105 58.134 105 62V108.033C104.669 108.011 104.336 108 104 108C96.0518 108 89.5474 114.182 89.0328 122H77C73.134 122 70 118.866 70 115V62ZM79.3189 86.954L87.3188 63.9539L87.8189 79.454L95.8189 79.454L87.8189 103.454L87.3188 85.454L79.3189 86.954Z" fill="black"/>
<path d="M114.166 125.467C114.85 123.085 114.709 120.541 113.768 118.249C112.827 115.956 111.139 114.048 108.979 112.833C106.819 111.618 104.312 111.167 101.864 111.553C99.416 111.939 97.1697 113.14 95.4885 114.961L96.2725 115.685C97.7908 114.04 99.8195 112.956 102.03 112.607C104.241 112.258 106.505 112.665 108.456 113.763C110.407 114.86 111.931 116.583 112.781 118.654C113.631 120.724 113.758 123.021 113.141 125.173L114.166 125.467Z" fill="black"/>
<path d="M112.524 129.337L111.37 124.656L116 125.997L112.524 129.337Z" fill="black"/>
<path d="M114.166 125.467C114.85 123.085 114.709 120.541 113.768 118.249C112.827 115.956 111.139 114.048 108.979 112.833C106.819 111.618 104.312 111.167 101.864 111.553C99.416 111.939 97.1697 113.14 95.4885 114.961L96.2725 115.685C97.7908 114.04 99.8195 112.956 102.03 112.607C104.241 112.258 106.505 112.665 108.456 113.763C110.407 114.86 111.931 116.583 112.781 118.654C113.631 120.724 113.758 123.021 113.141 125.173L114.166 125.467Z" stroke="black" stroke-width="0.892857"/>
<path d="M112.524 129.337L111.37 124.656L116 125.997L112.524 129.337Z" stroke="black" stroke-width="0.892857"/>
<path d="M92.8336 121.012C92.1504 123.395 92.2909 125.938 93.2322 128.23C94.1735 130.523 95.8606 132.431 98.0207 133.646C100.181 134.861 102.688 135.312 105.136 134.926C107.584 134.54 109.83 133.339 111.512 131.518L110.728 130.794C109.209 132.439 107.181 133.523 104.97 133.872C102.759 134.221 100.495 133.814 98.5438 132.716C96.593 131.619 95.0693 129.896 94.2192 127.825C93.3691 125.755 93.2423 123.458 93.8593 121.306L92.8336 121.012Z" fill="black"/>
<path d="M94.476 117.143L95.6301 121.823L91 120.482L94.476 117.143Z" fill="black"/>
<path d="M92.8336 121.012C92.1504 123.395 92.2909 125.938 93.2322 128.23C94.1735 130.523 95.8606 132.431 98.0207 133.646C100.181 134.861 102.688 135.312 105.136 134.926C107.584 134.54 109.83 133.339 111.512 131.518L110.728 130.794C109.209 132.439 107.181 133.523 104.97 133.872C102.759 134.221 100.495 133.814 98.5438 132.716C96.593 131.619 95.0693 129.896 94.2192 127.825C93.3691 125.755 93.2423 123.458 93.8593 121.306L92.8336 121.012Z" stroke="black" stroke-width="0.892857"/>
<path d="M94.476 117.143L95.6301 121.823L91 120.482L94.476 117.143Z" stroke="black" stroke-width="0.892857"/>
</svg>
