<svg width="174" height="174" viewBox="0 0 174 174" fill="none" xmlns="http://www.w3.org/2000/svg">
<circle cx="87.5" cy="86.5" r="84.5" stroke="black" stroke-width="4"/>
<path d="M81 69.5H82.5V68V43.5H93.5V68V69.5H95H95.6635C100.262 69.5 104.325 72.4923 105.69 76.8835L112.149 97.6644C113.049 100.561 110.885 103.5 107.852 103.5H104.5H103V105V125.75C103 128.097 101.097 130 98.75 130C96.4028 130 94.5 128.097 94.5 125.75V105V103.5H93H83.5H82V105V125.75C82 128.097 80.0972 130 77.75 130C75.4028 130 73.5 128.097 73.5 125.75V105V103.5H72H67.2536C64.1975 103.5 62.0303 100.519 62.9731 97.6117L69.7356 76.7607C71.1396 72.4317 75.1725 69.5 79.7234 69.5H81Z" stroke="black" stroke-width="3"/>
</svg>
