<svg width="174" height="174" viewBox="0 0 174 174" fill="none" xmlns="http://www.w3.org/2000/svg">
<circle cx="87.5" cy="86.5" r="84.5" stroke="black" stroke-width="4"/>
<path fill-rule="evenodd" clip-rule="evenodd" d="M104.463 58.5121C102.593 59.2211 97 66.1891 97 67.8101C97 68.1931 98.35 68.5061 100 68.5061C103.491 68.5061 103.553 68.6861 101.313 72.2911C99.795 74.7331 99.996 74.6591 103.313 71.5601C107.653 67.5041 107.887 66.5061 104.5 66.5061C101.369 66.5061 101.379 66.0091 104.601 61.7851C107.491 57.9961 107.465 57.3731 104.463 58.5121ZM77.533 59.5891C77.241 60.3681 75.079 67.5311 72.73 75.5061L68.458 90.0061L58.229 90.2911C50.041 90.5191 48 90.8681 48 92.0411C48 93.2451 50.107 93.5061 59.829 93.5061H71.658L74.451 83.5061C75.987 78.0061 77.559 73.5061 77.945 73.5061C78.331 73.5061 80.371 83.6061 82.479 95.9491C84.587 108.293 86.646 118.934 87.055 119.595C88.89 122.564 90.726 119.146 93.354 107.866C94.874 101.343 96.567 94.2891 97.115 92.1901L98.112 88.3751L102.099 91.9761L106.085 95.5771L115.781 95.2921C124.086 95.0471 125.525 94.7551 125.812 93.2561C126.111 91.6911 125.165 91.5061 116.858 91.5061H107.569L102.861 86.8691C97.583 81.6711 95.617 81.6231 94.637 86.6701C92.441 97.9791 89.615 108.514 88.964 107.818C88.546 107.372 86.319 96.4311 84.014 83.5061C80.02 61.1021 78.739 56.3771 77.533 59.5891Z" fill="black"/>
</svg>
