<svg width="174" height="174" viewBox="0 0 174 174" fill="none" xmlns="http://www.w3.org/2000/svg">
<circle cx="87.5" cy="86.5" r="84.5" stroke="black" stroke-width="4"/>
<path d="M89.0966 128.342C89.0392 128.342 88.9816 128.34 88.9238 128.335C88.0221 128.261 87.2707 127.615 87.0618 126.735L79.8373 96.3151L49.6168 89.2826C48.7336 89.077 48.0835 88.3255 48.0074 87.4216C47.9314 86.5179 48.4466 85.6681 49.2833 85.3179L116.525 57.1623C117.308 56.8343 118.212 57.0127 118.812 57.6135C119.412 58.2143 119.589 59.1183 119.259 59.9011L91.0229 127.062C90.695 127.842 89.9319 128.342 89.0966 128.342ZM56.8652 86.6762L82.0458 92.536C82.8184 92.7158 83.4228 93.3173 83.6061 94.0892L89.6502 119.538L113.423 62.994L56.8652 86.6762Z" fill="black"/>
</svg>
