<svg width="174" height="174" viewBox="0 0 174 174" fill="none" xmlns="http://www.w3.org/2000/svg">
<circle cx="87.5" cy="86.5" r="84.5" stroke="black" stroke-width="4"/>
<path d="M39.626 95.6364C34.6979 95.6364 30.7816 93.8251 27.877 90.2025C24.9724 86.5799 23.9769 82.3045 24.8908 77.3765C25.7393 72.4158 28.1054 68.3036 31.9891 65.04C35.8728 61.7438 40.3766 60.0957 45.5005 60.0957C50.4285 60.0957 54.3449 61.9396 57.2495 65.6275C60.1541 69.2827 61.1821 73.5907 60.3336 78.5514C59.4524 83.5121 57.07 87.6079 53.1863 90.8389C49.3352 94.0372 44.8151 95.6364 39.626 95.6364ZM40.2624 91.1816C44.1134 91.1816 47.4913 89.9414 50.3959 87.4611C53.3331 84.9807 55.1281 81.8476 55.7809 78.0618C56.4336 74.2761 55.7156 71.0777 53.6269 68.4668C51.5382 65.8233 48.5846 64.5015 44.7662 64.5015C40.9477 64.5015 37.5862 65.7743 34.6816 68.32C31.8096 70.8656 30.0473 74.0476 29.3945 77.866C28.7418 81.6192 29.4435 84.7849 31.4996 87.3631C33.5557 89.9088 36.4766 91.1816 40.2624 91.1816ZM69.6708 90.692H84.504L83.7207 95H64.3838L70.4052 60.7321H74.9579L69.6708 90.692ZM115.261 65.04H99.5956L97.7354 75.5652H112.177L111.394 79.8242H96.9521L95.0429 90.692H110.953L110.219 95H89.7558L95.7772 60.7321H115.995L115.261 65.04ZM136.569 60.7321C141.073 60.7321 144.614 62.4781 147.192 65.9702C149.803 69.4296 150.685 73.5581 149.836 78.3556C148.987 83.1531 146.768 87.1347 143.178 90.3004C139.588 93.4335 135.378 95 130.548 95H117.184L123.205 60.7321H136.569ZM145.479 77.8171C146.099 74.1618 145.512 71.1267 143.717 68.7116C141.954 66.2639 139.327 65.04 135.835 65.04H127.023L122.471 90.692H131.184C134.742 90.692 137.842 89.4682 140.486 87.0205C143.162 84.5401 144.826 81.4723 145.479 77.8171Z" fill="black"/>
<path d="M27.877 90.2025L28.9555 89.3378L27.877 90.2025ZM24.8908 77.3765L26.2499 77.6285L26.2517 77.6191L26.2533 77.6096L24.8908 77.3765ZM31.9891 65.04L32.8785 66.0983L32.8836 66.094L31.9891 65.04ZM57.2495 65.6275L56.1635 66.4828L56.1672 66.4875L57.2495 65.6275ZM60.3336 78.5514L61.6947 78.7932L61.6962 78.7845L60.3336 78.5514ZM53.1863 90.8389L54.0695 91.9023L54.0704 91.9016L53.1863 90.8389ZM50.3959 87.4611L49.504 86.4049L49.4982 86.4098L50.3959 87.4611ZM55.7809 78.0618L54.4186 77.827L55.7809 78.0618ZM53.6269 68.4668L52.5422 69.3238L52.5474 69.3304L53.6269 68.4668ZM34.6816 68.32L33.7705 67.2803L33.7647 67.2855L34.6816 68.32ZM29.3945 77.866L30.7565 78.1029L30.7571 78.099L29.3945 77.866ZM31.4996 87.3631L30.4188 88.225L30.4242 88.2317L31.4996 87.3631ZM39.626 94.2541C35.0877 94.2541 31.5797 92.6107 28.9555 89.3378L26.7985 91.0672C29.9834 95.0395 34.3081 97.0188 39.626 97.0188V94.2541ZM28.9555 89.3378C26.3241 86.056 25.4029 82.1968 26.2499 77.6285L23.5316 77.1245C22.551 82.4123 23.6206 87.1038 26.7985 91.0672L28.9555 89.3378ZM26.2533 77.6096C27.0462 72.9741 29.243 69.1534 32.8784 66.0983L31.0998 63.9817C26.9679 67.4539 24.4324 71.8575 23.5282 77.1434L26.2533 77.6096ZM32.8836 66.094C36.5159 63.0111 40.7022 61.478 45.5005 61.478V58.7133C40.051 58.7133 35.2297 60.4765 31.0946 63.9861L32.8836 66.094ZM45.5005 61.478C50.0293 61.478 53.5358 63.1465 56.1635 66.4828L58.3355 64.7722C55.154 60.7327 50.8277 58.7133 45.5005 58.7133V61.478ZM56.1672 66.4875C58.8065 69.8088 59.7591 73.7113 58.971 78.3183L61.6962 78.7845C62.6052 73.4701 61.5017 68.7566 58.3317 64.7675L56.1672 66.4875ZM58.9725 78.3096C58.1486 82.948 55.9357 86.7534 52.3022 89.7762L54.0704 91.9016C58.2042 88.4625 60.7562 84.0762 61.6946 78.7932L58.9725 78.3096ZM52.3031 89.7755C48.7099 92.7597 44.5054 94.2541 39.626 94.2541V97.0188C45.1249 97.0188 49.9606 95.3148 54.0695 91.9023L52.3031 89.7755ZM40.2624 92.5639C44.4396 92.5639 48.1364 91.2083 51.2936 88.5123L49.4982 86.4098C46.8461 88.6745 43.7873 89.7992 40.2624 89.7992V92.5639ZM51.2878 88.5172C54.4734 85.8271 56.4351 82.4033 57.1431 78.2967L54.4186 77.827C53.8212 81.2919 52.1929 84.1343 49.504 86.4049L51.2878 88.5172ZM57.1431 78.2967C57.852 74.1854 57.0801 70.5705 54.7063 67.6033L52.5474 69.3304C54.3511 71.585 55.0152 74.3667 54.4186 77.827L57.1431 78.2967ZM54.7115 67.6098C52.3234 64.5874 48.9435 63.1192 44.7662 63.1192V65.8839C48.2256 65.8839 50.7529 67.0592 52.5422 69.3238L54.7115 67.6098ZM44.7662 63.1192C40.6083 63.1192 36.924 64.5166 33.7705 67.2804L35.5927 69.3596C38.2484 67.0321 41.2872 65.8839 44.7662 65.8839V63.1192ZM33.7647 67.2855C30.6549 70.0419 28.7372 73.5077 28.032 77.6331L30.7571 78.099C31.3574 74.5875 32.9644 71.6893 35.5985 69.3544L33.7647 67.2855ZM28.0326 77.6292C27.3238 81.7052 28.0769 85.2883 30.4188 88.225L32.5803 86.5013C30.8102 84.2815 30.1599 81.5332 30.7565 78.1029L28.0326 77.6292ZM30.4242 88.2317C32.7857 91.1555 36.1325 92.5639 40.2624 92.5639V89.7992C36.8207 89.7992 34.3256 88.6621 32.575 86.4946L30.4242 88.2317ZM69.6708 90.692L68.3095 90.4518L68.0232 92.0744H69.6708V90.692ZM84.504 90.692L85.864 90.9393L86.1603 89.3097H84.504V90.692ZM83.7207 95V96.3824H84.8744L85.0808 95.2473L83.7207 95ZM64.3838 95L63.0223 94.7608L62.7374 96.3824H64.3838V95ZM70.4052 60.7321V59.3497H69.2445L69.0437 60.4928L70.4052 60.7321ZM74.9579 60.7321L76.3192 60.9723L76.6056 59.3497H74.9579V60.7321ZM69.6708 92.0744H84.504V89.3097H69.6708V92.0744ZM83.1439 90.4447L82.3606 94.7527L85.0808 95.2473L85.864 90.9393L83.1439 90.4447ZM83.7207 93.6176H64.3838V96.3824H83.7207V93.6176ZM65.7453 95.2392L71.7667 60.9713L69.0437 60.4928L63.0223 94.7608L65.7453 95.2392ZM70.4052 62.1144H74.9579V59.3497H70.4052V62.1144ZM73.5966 60.4918L68.3095 90.4518L71.0322 90.9323L76.3192 60.9723L73.5966 60.4918ZM115.261 65.04V66.4224H116.428L116.624 65.2723L115.261 65.04ZM99.5956 65.04V63.6577H98.4362L98.2344 64.7994L99.5956 65.04ZM97.7354 75.5652L96.3741 75.3246L96.0873 76.9475H97.7354V75.5652ZM112.177 75.5652L113.536 75.8152L113.837 74.1828H112.177V75.5652ZM111.394 79.8242V81.2066H112.545L112.753 80.0742L111.394 79.8242ZM96.9521 79.8242V78.4418H95.7914L95.5906 79.585L96.9521 79.8242ZM95.0429 90.692L93.6814 90.4528L93.3965 92.0744H95.0429V90.692ZM110.953 90.692L112.316 90.9243L112.591 89.3097H110.953V90.692ZM110.219 95V96.3824H111.385L111.581 95.2323L110.219 95ZM89.7558 95L88.3943 94.7608L88.1094 96.3824H89.7558V95ZM95.7772 60.7321V59.3497H94.6166L94.4157 60.4928L95.7772 60.7321ZM115.995 60.7321L117.358 60.9643L117.633 59.3497H115.995V60.7321ZM115.261 63.6577H99.5956V66.4224H115.261V63.6577ZM98.2344 64.7994L96.3741 75.3246L99.0966 75.8058L100.957 65.2806L98.2344 64.7994ZM97.7354 76.9475H112.177V74.1828H97.7354V76.9475ZM110.817 75.3152L110.034 79.5742L112.753 80.0742L113.536 75.8152L110.817 75.3152ZM111.394 78.4418H96.9521V81.2066H111.394V78.4418ZM95.5906 79.585L93.6814 90.4528L96.4044 90.9312L98.3136 80.0634L95.5906 79.585ZM95.0429 92.0744H110.953V89.3097H95.0429V92.0744ZM109.59 90.4598L108.856 94.7677L111.581 95.2323L112.316 90.9243L109.59 90.4598ZM110.219 93.6176H89.7558V96.3824H110.219V93.6176ZM91.1173 95.2392L97.1387 60.9713L94.4157 60.4928L88.3943 94.7608L91.1173 95.2392ZM95.7772 62.1144H115.995V59.3497H95.7772V62.1144ZM114.633 60.4998L113.898 64.8078L116.624 65.2723L117.358 60.9643L114.633 60.4998ZM147.192 65.9702L146.08 66.7912L146.085 66.7971L146.089 66.8029L147.192 65.9702ZM149.836 78.3556L148.475 78.1148L149.836 78.3556ZM143.178 90.3004L144.087 91.3419L144.093 91.3372L143.178 90.3004ZM117.184 95L115.822 94.7608L115.537 96.3824H117.184V95ZM123.205 60.7321V59.3497H122.044L121.843 60.4928L123.205 60.7321ZM145.479 77.8171L146.84 78.0601L146.842 78.0483L145.479 77.8171ZM143.717 68.7116L142.595 69.5193L142.601 69.5278L142.607 69.5362L143.717 68.7116ZM127.023 65.04V63.6577H125.865L125.662 64.7985L127.023 65.04ZM122.471 90.692L121.11 90.4505L120.821 92.0744H122.471V90.692ZM140.486 87.0205L141.425 88.0348L141.425 88.0343L140.486 87.0205ZM136.569 62.1144C140.654 62.1144 143.774 63.6675 146.08 66.7912L148.305 65.1491C145.454 61.2887 141.493 59.3497 136.569 59.3497V62.1144ZM146.089 66.8029C148.439 69.9162 149.266 73.6436 148.475 78.1148L151.197 78.5963C152.103 73.4725 151.168 68.943 148.296 65.1374L146.089 66.8029ZM148.475 78.1148C147.68 82.61 145.615 86.3089 142.264 89.2636L144.093 91.3372C147.922 87.9604 150.295 83.6962 151.197 78.5963L148.475 78.1148ZM142.269 89.2589C138.935 92.1689 135.049 93.6176 130.548 93.6176V96.3824C135.707 96.3824 140.242 94.698 144.087 91.3419L142.269 89.2589ZM130.548 93.6176H117.184V96.3824H130.548V93.6176ZM118.545 95.2392L124.566 60.9713L121.843 60.4928L115.822 94.7608L118.545 95.2392ZM123.205 62.1144H136.569V59.3497H123.205V62.1144ZM146.842 78.0483C147.509 74.1135 146.896 70.6724 144.826 67.887L142.607 69.5362C144.127 71.581 144.689 74.2102 144.116 77.5859L146.842 78.0483ZM144.839 67.9039C142.773 65.0348 139.691 63.6577 135.835 63.6577V66.4224C138.963 66.4224 141.136 67.493 142.595 69.5193L144.839 67.9039ZM135.835 63.6577H127.023V66.4224H135.835V63.6577ZM125.662 64.7985L121.11 90.4505L123.832 90.9336L128.384 65.2816L125.662 64.7985ZM122.471 92.0744H131.184V89.3097H122.471V92.0744ZM131.184 92.0744C135.095 92.0744 138.53 90.7157 141.425 88.0348L139.547 86.0061C137.155 88.2206 134.389 89.3097 131.184 89.3097V92.0744ZM141.425 88.0343C144.326 85.3458 146.135 82.0056 146.84 78.0601L144.118 77.5741C143.517 80.939 141.998 83.7344 139.546 86.0066L141.425 88.0343Z" fill="black"/>
<path d="M53.681 109.853C55.8143 109.853 57.5225 110.672 58.8056 112.311C60.1042 113.95 60.5525 115.913 60.1506 118.201C59.7486 120.504 58.682 122.398 56.9505 123.882C55.2191 125.351 53.1786 126.085 50.8288 126.085H44.336L47.1882 109.853H53.681ZM56.5795 117.853C56.8269 116.477 56.6259 115.395 55.9766 114.607C55.3274 113.818 54.3534 113.424 53.0549 113.424H50.2723L48.6723 122.514H51.223C52.5988 122.514 53.7737 122.089 54.7476 121.239C55.7216 120.388 56.3322 119.26 56.5795 117.853ZM63.0007 109.853H66.7109L63.8587 126.085H60.1486L63.0007 109.853ZM71.6154 126.41C69.915 126.41 68.5314 126.054 67.4647 125.343C66.4135 124.616 65.741 123.635 65.4473 122.398L68.8328 120.659C69.2348 122.112 70.2705 122.839 71.9401 122.839C73.3623 122.839 74.1584 122.383 74.3285 121.47C74.4213 121.007 74.2589 120.643 73.8415 120.381C73.4396 120.102 72.7208 119.785 71.685 119.43C70.1546 118.92 69.0106 118.27 68.2531 117.482C67.5111 116.678 67.2637 115.557 67.5111 114.12C67.7584 112.605 68.4541 111.461 69.598 110.688C70.742 109.915 72.0638 109.528 73.5633 109.528C74.8928 109.528 76.0444 109.845 77.0184 110.479C78.0077 111.113 78.7111 112.017 79.1285 113.192L75.8821 114.908C75.3101 113.702 74.429 113.099 73.2386 113.099C72.6821 113.099 72.2338 113.215 71.8937 113.447C71.5691 113.679 71.3681 113.973 71.2908 114.328C71.1981 114.777 71.3449 115.148 71.7314 115.441C72.1333 115.72 72.8212 116.037 73.7952 116.392C74.0889 116.5 74.3285 116.593 74.514 116.67C74.715 116.732 74.9546 116.825 75.2328 116.949C75.5111 117.057 75.7353 117.165 75.9053 117.273C76.0908 117.366 76.2995 117.49 76.5314 117.644C76.7787 117.783 76.972 117.93 77.1111 118.085C77.2657 118.24 77.4203 118.417 77.5749 118.618C77.7449 118.804 77.8686 119.012 77.9459 119.244C78.0387 119.461 78.1159 119.7 78.1778 119.963C78.2396 120.211 78.2628 120.489 78.2474 120.798C78.2474 121.107 78.2164 121.44 78.1546 121.795C77.8918 123.279 77.173 124.423 75.9981 125.227C74.8386 126.015 73.3778 126.41 71.6154 126.41ZM87.2226 109.853C88.8921 109.853 90.1907 110.41 91.1182 111.523C92.0458 112.62 92.3936 113.996 92.1617 115.65C91.9298 117.242 91.2187 118.533 90.0284 119.523C88.8535 120.497 87.3462 120.983 85.5066 120.983H83.1182L82.2138 126.085H78.5037L81.3559 109.853H87.2226ZM88.4515 115.418C88.5752 114.784 88.4825 114.282 88.1733 113.911C87.8796 113.525 87.3617 113.331 86.6197 113.331H84.4631L83.7211 117.505H85.8776C86.5733 117.505 87.1453 117.32 87.5936 116.949C88.0419 116.578 88.3279 116.068 88.4515 115.418ZM95.8219 122.514H101.619L100.993 126.085H91.4856L92.1117 122.514L94.3378 109.853H98.048L95.8219 122.514ZM112.703 126.085L112.378 123.534H106.349L105.051 126.085H100.993L109.364 109.853H114.094L116.761 126.085H112.703ZM108.089 120.056H111.961L111.196 113.911L108.089 120.056ZM130.859 109.853L124.041 118.989L122.789 126.085H119.079L120.331 118.966L116.714 109.853H120.725L122.627 115.326L126.43 109.853H130.859Z" fill="black"/>
</svg>
