<svg width="174" height="174" viewBox="0 0 174 174" fill="none" xmlns="http://www.w3.org/2000/svg">
<circle cx="87.5" cy="86.5" r="84.5" stroke="black" stroke-width="4"/>
<circle cx="87.5" cy="86.5" r="32" stroke="black" stroke-width="3"/>
<path fill-rule="evenodd" clip-rule="evenodd" d="M79.7445 75.9573C80.5163 75.3221 81.3625 74.7742 82.2682 74.3286L72.8409 58L70.2428 59.5L79.7445 75.9573ZM94.1236 74.5297C95.0149 75.0065 95.8441 75.5842 96.596 76.2474L106.265 59.5L103.667 58L94.1236 74.5297ZM101 85.9484C101 85.9656 101 85.9828 101 86C101 87.0141 100.884 88.0011 100.664 88.9484H120V85.9484H101ZM95.2411 96.7982C94.4136 97.3542 93.5186 97.8177 92.5711 98.1736L102.243 114.926L104.841 113.426L95.2411 96.7982ZM83.8503 98.3236C82.8877 97.9996 81.9756 97.566 81.1286 97.0377L71.667 113.426L74.2651 114.926L83.8503 98.3236ZM75.3358 88.9484C75.1161 88.0011 75 87.0141 75 86C75 85.9828 75 85.9656 75.0001 85.9484H56V88.9484H75.3358Z" fill="black"/>
<circle cx="88" cy="86" r="7" fill="black"/>
</svg>
