<svg width="174" height="174" viewBox="0 0 174 174" fill="none" xmlns="http://www.w3.org/2000/svg">
<circle cx="87.5" cy="86.5" r="84.5" stroke="black" stroke-width="4"/>
<path d="M95.8417 48.5834H86.7417C85.4844 48.5834 84.4667 49.6011 84.4667 50.8584C84.4667 52.1157 85.4844 53.1334 86.7417 53.1334H95.8417C97.099 53.1334 98.1167 52.1157 98.1167 50.8584C98.1167 49.6011 97.099 48.5834 95.8417 48.5834Z" fill="black"/>
<path d="M105.7 41H69.3C64.2829 41 60.2 45.0829 60.2 50.1V122.9C60.2 127.917 64.2829 132 69.3 132H105.7C110.717 132 114.8 127.917 114.8 122.9V50.1C114.8 45.0829 110.717 41 105.7 41ZM110.25 122.9C110.25 125.413 108.213 127.45 105.7 127.45H69.3C66.7868 127.45 64.75 125.413 64.75 122.9V50.1C64.75 47.5868 66.7868 45.55 69.3 45.55H105.7C108.213 45.55 110.25 47.5868 110.25 50.1V122.9Z" fill="black"/>
<path d="M87.5 124.417C90.0128 124.417 92.05 122.379 92.05 119.867C92.05 117.354 90.0128 115.317 87.5 115.317C84.9871 115.317 82.95 117.354 82.95 119.867C82.95 122.379 84.9871 124.417 87.5 124.417Z" fill="black"/>
<path d="M79.1584 53.1334C80.4149 53.1334 81.4334 52.1148 81.4334 50.8584C81.4334 49.6019 80.4149 48.5834 79.1584 48.5834C77.902 48.5834 76.8834 49.6019 76.8834 50.8584C76.8834 52.1148 77.902 53.1334 79.1584 53.1334Z" fill="black"/>
</svg>
