<svg width="174" height="174" viewBox="0 0 174 174" fill="none" xmlns="http://www.w3.org/2000/svg">
<circle cx="87.5" cy="86.5" r="84.5" stroke="black" stroke-width="4"/>
<path fill-rule="evenodd" clip-rule="evenodd" d="M49 84.5C49 83.1193 50.1193 82 51.5 82H123.5C124.881 82 126 83.1193 126 84.5C126 85.8807 124.881 87 123.5 87H51.5C50.1193 87 49 85.8807 49 84.5Z" fill="black"/>
<path fill-rule="evenodd" clip-rule="evenodd" d="M61 71.5C61 70.1193 62.1193 69 63.5 69H111.5C112.881 69 114 70.1193 114 71.5C114 72.8807 112.881 74 111.5 74H63.5C62.1193 74 61 72.8807 61 71.5Z" fill="black"/>
<path fill-rule="evenodd" clip-rule="evenodd" d="M68 59.5C68 58.1193 69.1193 57 70.5 57L103.5 57C104.881 57 106 58.1193 106 59.5C106 60.8807 104.881 62 103.5 62L70.5 62C69.1193 62 68 60.8807 68 59.5Z" fill="black"/>
<path fill-rule="evenodd" clip-rule="evenodd" d="M64 97.5C64 96.1193 65.1193 95 66.5 95L107.5 95C108.881 95 110 96.1193 110 97.5C110 98.8807 108.881 100 107.5 100L66.5 100C65.1193 100 64 98.8807 64 97.5Z" fill="black"/>
<path fill-rule="evenodd" clip-rule="evenodd" d="M101.414 111.686L88.6863 124.414C87.9052 125.195 86.6389 125.195 85.8579 124.414L73.1299 111.686C72.3489 110.905 72.3489 109.639 73.1299 108.858C73.911 108.077 75.1773 108.077 75.9584 108.858L85.2721 118.172L85.2721 105C85.2721 103.895 86.1675 103 87.2721 103C88.3766 103 89.2721 103.895 89.2721 105L89.2721 118.172L98.5858 108.858C99.3668 108.077 100.633 108.077 101.414 108.858C102.195 109.639 102.195 110.905 101.414 111.686Z" fill="black"/>
</svg>
