<svg width="174" height="174" viewBox="0 0 174 174" fill="none" xmlns="http://www.w3.org/2000/svg">
<circle cx="87.5" cy="86.5" r="84.5" stroke="black" stroke-width="4"/>
<path d="M79.5328 45.2V34H92.7705V45.2H96.2541V59.9H92.0738V63.4H95.5574V75.7386H129V111H123.426V95.6H49.5738V111H44V75.7386H78.1393V63.4H80.9262V59.9H76.7459V45.2H79.5328Z" stroke="black" stroke-width="2.26917"/>
<path d="M121 104V111H52V104" stroke="black" stroke-width="1.70188"/>
<path fill-rule="evenodd" clip-rule="evenodd" d="M38.7052 133.804C55.3332 124.177 60.167 113.409 61.3864 106.454L64.8507 106.458L60.7959 99.4155L56.7247 106.448L59.9565 106.452C58.7428 112.989 54.0891 123.271 38 132.586L38.7052 133.804ZM74.1085 106.461C73.355 116.023 69.9371 133.571 55.7409 147.767L54.7456 146.772C68.5637 132.954 71.9433 115.856 72.6981 106.442L69.3834 106.398L73.5402 99.4156L77.5087 106.507L74.1085 106.461ZM82.1446 106.453L86.2076 99.4156L90.2706 106.453H86.9113V147.269H85.5038V106.453H82.1446ZM112.614 106.454C113.833 113.409 118.667 124.177 135.295 133.804L136 132.586C119.911 123.271 115.257 112.989 114.043 106.452L117.275 106.448L113.204 99.4155L109.149 106.458L112.614 106.454ZM118.143 147.767C103.947 133.571 100.529 116.023 99.7752 106.461L96.375 106.507L100.343 99.4156L104.5 106.398L101.186 106.442C101.94 115.856 105.32 132.954 119.138 146.772L118.143 147.767Z" fill="url(#paint0_radial)"/>
<defs>
<radialGradient id="paint0_radial" cx="0" cy="0" r="1" gradientUnits="userSpaceOnUse" gradientTransform="translate(85.5032 99.4155) rotate(90) scale(52.7799 137.573)">
<stop/>
<stop offset="0.302083" stop-opacity="0.487722"/>
<stop offset="0.886207" stop-opacity="0"/>
</radialGradient>
</defs>
</svg>
