<svg width="174" height="174" viewBox="0 0 174 174" fill="none" xmlns="http://www.w3.org/2000/svg">
<circle cx="87.5" cy="86.5" r="84.5" stroke="black" stroke-width="4"/>
<path d="M132.746 87.9513V97.0383H43.1743V87.9513" stroke="black" stroke-width="3"/>
<path d="M132.746 84.087V75H43.1743V84.087" stroke="black" stroke-width="3"/>
<path fill-rule="evenodd" clip-rule="evenodd" d="M33.8022 120.117C52.7167 109.166 58.2151 96.9178 59.6022 89.0058L63.5429 89.0103L58.9305 81L54.2995 88.9996L57.9757 89.0039C56.5951 96.4396 51.3015 108.136 33 118.731L33.8022 120.117ZM74.0737 89.0144C73.2167 99.8913 69.3288 119.852 53.1804 136L52.0484 134.868C67.7665 119.15 71.6109 99.7015 72.4694 88.9929L68.6989 88.9424L73.4274 81L77.9415 89.0661L74.0737 89.0144ZM83.2148 89.0051L87.8365 81.0001L92.4582 89.0051H88.637V135.434H87.036V89.0051H83.2148ZM117.874 89.0058C119.261 96.9178 124.759 109.166 143.674 120.117L144.476 118.731C126.174 108.136 120.881 96.4396 119.5 89.0039L123.176 88.9996L118.545 81L113.933 89.0103L117.874 89.0058ZM124.163 136C108.015 119.852 104.127 99.8913 103.27 89.0144L99.4022 89.0661L103.916 81L108.645 88.9424L104.874 88.9929C105.733 99.7015 109.577 119.15 125.295 134.868L124.163 136Z" fill="url(#paint0_radial)"/>
<circle cx="87.5" cy="86.5" r="68.5" stroke="black" stroke-width="4"/>
<defs>
<radialGradient id="paint0_radial" cx="0" cy="0" r="1" gradientUnits="userSpaceOnUse" gradientTransform="translate(87.0353 81) rotate(90) scale(60.0375 156.49)">
<stop/>
<stop offset="0.302083" stop-opacity="0.487722"/>
<stop offset="0.886207" stop-opacity="0"/>
</radialGradient>
</defs>
</svg>
