<svg width="174" height="174" viewBox="0 0 174 174" fill="none" xmlns="http://www.w3.org/2000/svg">
<circle cx="87.5" cy="86.5" r="84.5" stroke="black" stroke-width="4"/>
<rect x="47.5" y="67.5" width="81" height="62" rx="13.5" stroke="black" stroke-width="3"/>
<circle cx="88" cy="52" r="8.5" stroke="black" stroke-width="3"/>
<circle cx="88" cy="52" r="15.5" stroke="black" stroke-width="3"/>
<path d="M84.7741 109H82.6682L72.2575 98.7672V109H70.6855V88.2379H72.2575V97.9071L82.3716 88.2379H84.4775L73.9778 98.3223L84.7741 109ZM106.536 99.3308V100.132C106.536 102.722 105.616 104.907 103.777 106.687C101.938 108.446 99.5161 109.326 96.5105 109.326C93.3468 109.326 90.7367 108.298 88.6802 106.242C86.6238 104.165 85.5956 101.625 85.5956 98.6189C85.5956 95.6134 86.6139 93.0824 88.6506 91.0259C90.6872 88.9497 93.2677 87.9116 96.3919 87.9116C98.2901 87.9116 100.03 88.3664 101.612 89.276C103.214 90.1856 104.45 91.4016 105.32 92.9242L103.926 93.7547C103.233 92.4496 102.205 91.4016 100.841 90.6107C99.4963 89.8198 98.0133 89.4243 96.3919 89.4243C93.7027 89.4243 91.488 90.3141 89.748 92.0937C88.0277 93.8535 87.1675 96.0286 87.1675 98.6189C87.1675 101.209 88.0376 103.394 89.7776 105.174C91.5177 106.934 93.762 107.814 96.5105 107.814C98.9426 107.814 100.91 107.151 102.413 105.826C103.916 104.502 104.756 102.831 104.934 100.814H96.1249V99.3308H106.536Z" fill="black"/>
<path d="M84.7741 109V109.838H86.812L85.3631 108.405L84.7741 109ZM82.6682 109L82.0811 109.597L82.3255 109.838H82.6682V109ZM72.2575 98.7672L72.8446 98.1699L71.42 96.7696V98.7672H72.2575ZM72.2575 109V109.838H73.095V109H72.2575ZM70.6855 109H69.848V109.838H70.6855V109ZM70.6855 88.2379V87.4003H69.848V88.2379H70.6855ZM72.2575 88.2379H73.095V87.4003H72.2575V88.2379ZM72.2575 97.9071H71.42V99.8665L72.8363 98.5125L72.2575 97.9071ZM82.3716 88.2379V87.4003H82.0357L81.7929 87.6325L82.3716 88.2379ZM84.4775 88.2379L85.0577 88.8419L86.5586 87.4003H84.4775V88.2379ZM73.9778 98.3223L73.3976 97.7183L72.7779 98.3135L73.3889 98.9178L73.9778 98.3223ZM84.7741 108.162H82.6682V109.838H84.7741V108.162ZM83.2553 108.403L72.8446 98.1699L71.6704 99.3645L82.0811 109.597L83.2553 108.403ZM71.42 98.7672V109H73.095V98.7672H71.42ZM72.2575 108.162H70.6855V109.838H72.2575V108.162ZM71.5231 109V88.2379H69.848V109H71.5231ZM70.6855 89.0754H72.2575V87.4003H70.6855V89.0754ZM71.42 88.2379V97.9071H73.095V88.2379H71.42ZM72.8363 98.5125L82.9504 88.8433L81.7929 87.6325L71.6788 97.3017L72.8363 98.5125ZM82.3716 89.0754H84.4775V87.4003H82.3716V89.0754ZM83.8973 87.6338L73.3976 97.7183L74.558 98.9264L85.0577 88.8419L83.8973 87.6338ZM73.3889 98.9178L84.1852 109.595L85.3631 108.405L74.5667 97.7268L73.3889 98.9178ZM106.536 99.3308H107.373V98.4932H106.536V99.3308ZM103.777 106.687L104.356 107.292L104.36 107.288L103.777 106.687ZM88.6802 106.242L88.0852 106.831L88.088 106.834L88.6802 106.242ZM88.6506 91.0259L89.2456 91.6153L89.2485 91.6124L88.6506 91.0259ZM101.612 89.276L101.195 90.0021L101.198 90.0043L101.612 89.276ZM105.32 92.9242L105.748 93.6437L106.455 93.2228L106.047 92.5086L105.32 92.9242ZM103.926 93.7547L103.186 94.1471L103.598 94.9247L104.354 94.4742L103.926 93.7547ZM100.841 90.6107L100.416 91.3326L100.421 91.3353L100.841 90.6107ZM89.748 92.0937L89.1491 91.5082L89.1491 91.5082L89.748 92.0937ZM89.7776 105.174L89.1788 105.759L89.1821 105.763L89.7776 105.174ZM102.413 105.826L101.859 105.198L102.413 105.826ZM104.934 100.814L105.768 100.887L105.849 99.9763H104.934V100.814ZM96.1249 100.814H95.2874V101.651H96.1249V100.814ZM96.1249 99.3308V98.4932H95.2874V99.3308H96.1249ZM105.698 99.3308V100.132H107.373V99.3308H105.698ZM105.698 100.132C105.698 102.498 104.868 104.465 103.195 106.085L104.36 107.288C106.364 105.349 107.373 102.946 107.373 100.132H105.698ZM103.198 106.081C101.543 107.666 99.342 108.489 96.5105 108.489V110.164C99.6901 110.164 102.334 109.227 104.356 107.292L103.198 106.081ZM96.5105 108.489C93.5474 108.489 91.1572 107.534 89.2724 105.649L88.088 106.834C90.3161 109.062 93.1461 110.164 96.5105 110.164V108.489ZM89.2753 105.652C87.379 103.738 86.4331 101.411 86.4331 98.6189H84.758C84.758 101.838 85.8685 104.593 88.0852 106.831L89.2753 105.652ZM86.4331 98.6189C86.4331 95.8246 87.3708 93.5083 89.2456 91.6153L88.0555 90.4366C85.857 92.6564 84.758 95.4021 84.758 98.6189H86.4331ZM89.2485 91.6124C91.1151 89.7095 93.4741 88.7491 96.3919 88.7491V87.0741C93.0613 87.0741 90.2593 88.1899 88.0527 90.4394L89.2485 91.6124ZM96.3919 88.7491C98.1498 88.7491 99.7449 89.1685 101.195 90.002L102.03 88.5499C100.315 87.5643 98.4305 87.0741 96.3919 87.0741V88.7491ZM101.198 90.0043C102.676 90.8435 103.801 91.9543 104.592 93.3397L106.047 92.5086C105.098 90.8489 103.751 89.5276 102.026 88.5477L101.198 90.0043ZM104.891 92.2047L103.497 93.0351L104.354 94.4742L105.748 93.6437L104.891 92.2047ZM104.665 93.3623C103.895 91.9093 102.751 90.7501 101.261 89.8861L100.421 91.3353C101.659 92.0531 102.572 92.9899 103.186 94.1471L104.665 93.3623ZM101.266 89.8888C99.787 89.0191 98.1565 88.5867 96.3919 88.5867V90.2618C97.8701 90.2618 99.2056 90.6204 100.416 91.3326L101.266 89.8888ZM96.3919 88.5867C93.4974 88.5867 91.0603 89.5536 89.1491 91.5082L90.3468 92.6792C91.9158 91.0746 93.908 90.2618 96.3919 90.2618V88.5867ZM89.1491 91.5082C87.2671 93.4334 86.33 95.8225 86.33 98.6189H88.0051C88.0051 96.2347 88.7883 94.2736 90.3469 92.6792L89.1491 91.5082ZM86.33 98.6189C86.33 101.418 87.2789 103.816 89.1788 105.759L90.3765 104.588C88.7962 102.972 88.0051 101 88.0051 98.6189H86.33ZM89.1821 105.763C91.0976 107.7 93.5654 108.651 96.5105 108.651V106.976C93.9586 106.976 91.9378 106.167 90.3732 104.585L89.1821 105.763ZM96.5105 108.651C99.1009 108.651 101.28 107.942 102.967 106.455L101.859 105.198C100.54 106.361 98.7844 106.976 96.5105 106.976V108.651ZM102.967 106.455C104.633 104.986 105.572 103.116 105.768 100.887L104.1 100.74C103.94 102.546 103.199 104.017 101.859 105.198L102.967 106.455ZM104.934 99.9763H96.1249V101.651H104.934V99.9763ZM96.9625 100.814V99.3308H95.2874V100.814H96.9625ZM96.1249 100.168H106.536V98.4932H96.1249V100.168Z" fill="black"/>
</svg>
