<svg width="174" height="174" viewBox="0 0 174 174" fill="none" xmlns="http://www.w3.org/2000/svg">
<circle cx="87.5" cy="86.5" r="84.5" stroke="black" stroke-width="4"/>
<path fill-rule="evenodd" clip-rule="evenodd" d="M57.53 57.6032C57.0442 58.1559 57 60.458 57 85.1243C57.0003 102.538 57.1132 112.259 57.3198 112.657C57.4956 112.996 58.0173 113.579 58.4792 113.953C59.315 114.63 59.4463 114.633 87.7447 114.633C118.948 114.633 117.49 114.726 118.518 112.679C118.937 111.844 119 108.265 119 85.2222C119 58.912 118.995 58.7195 118.341 57.8629L117.682 57H103.226H88.7697L87.9895 57.8039C86.9992 58.8236 86.9992 59.7608 87.9895 60.7805L88.7697 61.5844H101.66H114.549V70.7966V80.0084L113.255 79.8296C112.543 79.7313 111.387 79.2329 110.687 78.7224C107.904 76.6945 106.868 76.2704 105 76.3968C103.502 76.498 102.922 76.7485 101.12 78.0734C97.7646 80.5395 95.9071 80.53 92.397 78.0289C90.3465 76.5674 90.1154 76.4839 88.1234 76.4839C86.1202 76.4839 85.9069 76.5625 83.7495 78.0944C81.8914 79.4144 81.1812 79.7284 79.8154 79.8351C78.0377 79.9736 77 79.5404 74.1436 77.4663C72.9648 76.6103 72.5156 76.4839 70.6526 76.4839C68.7255 76.4839 68.3786 76.5903 67.1324 77.5645C65.2469 79.0381 63.1996 79.9841 62.1622 79.861L61.2994 79.7585L61.2212 68.9523C61.1449 58.3983 61.1274 58.1327 60.4706 57.5731C59.5957 56.8274 58.1992 56.8415 57.53 57.6032ZM65.5305 58.228C63.7394 60.2062 63.5715 61.5193 64.9309 62.9195C66.1367 64.1616 67.271 64.1616 68.4769 62.9195C69.4636 61.9031 69.6302 61.0084 69.0494 59.8437C68.5532 58.8492 67.135 57.3275 66.7039 57.3275C66.5071 57.3275 65.979 57.7325 65.5305 58.228ZM73.1603 58.228C71.3692 60.2062 71.2013 61.5193 72.5607 62.9195C73.7666 64.1616 74.9009 64.1616 76.1067 62.9195C77.0935 61.9031 77.2601 61.0084 76.6792 59.8437C76.183 58.8492 74.7648 57.3275 74.3337 57.3275C74.1369 57.3275 73.6089 57.7325 73.1603 58.228ZM80.7901 58.228C79.0159 60.1875 78.8916 61.9623 80.4414 63.2178C81.5919 64.1501 82.6458 64.043 83.7756 62.8792C84.6073 62.0226 84.7179 61.7141 84.5574 60.6964C84.3723 59.5211 82.6814 57.3275 81.9607 57.3275C81.7655 57.3275 81.2387 57.7325 80.7901 58.228ZM73.0118 81.3637C73.8266 81.6165 75.3755 82.4987 76.4542 83.3242C77.5328 84.1498 78.8833 84.9157 79.4555 85.0264C80.6019 85.2477 82.4849 84.4297 85.6195 82.3477C87.973 80.7848 89.3028 80.9118 92.2384 82.9811C96.4574 85.955 97.139 85.919 102.609 82.4352C105.515 80.584 106.867 80.7602 111.768 83.6284L114.549 85.2566V97.0884C114.549 107.267 114.48 109.022 114.054 109.648L113.56 110.376L88.0652 110.371C74.0434 110.368 62.4137 110.258 62.2213 110.126C61.2311 109.444 61.1405 108.345 61.1405 96.9937V85.5329L62.4916 84.4268C64.4648 82.8114 65.3073 82.3225 67.3842 81.5867C69.6026 80.8005 71.0147 80.7448 73.0118 81.3637Z" fill="black"/>
</svg>
