<svg id="Слой_1" data-name="Слой 1" xmlns="http://www.w3.org/2000/svg" viewBox="0 0 970 100"><defs><style>.cls-1{fill:#f2f2f2;}</style></defs><path class="cls-1" d="M500,58.77a1.43,1.43,0,0,1-1.35-.91l-2.42-5.94-6.7,46.84a1.38,1.38,0,0,1-1.39,1.21h-.08a1.39,1.39,0,0,1-1.34-1.34L482,5.34,467.37,63.75a1.39,1.39,0,0,1-2.73-.15l-1.67-12-2.37,7.11a1.47,1.47,0,0,1-1.4,1l-3-.05H.1v-2H456.23l2.6,0,2.93-8.79a1.49,1.49,0,0,1,2.89.26l1.54,11L481,1.08a1.42,1.42,0,0,1,2.8.27l4.64,91.13,6.08-42.55a1.53,1.53,0,0,1,2.94-.36l2.93,7.2H970V0H0V100H970V58.77Z"/></svg>