<svg width="180" height="35" viewBox="0 0 180 35" fill="none" xmlns="http://www.w3.org/2000/svg">
<path d="M14.6974 1.482C14.5376 1.46632 14.3235 1.46005 14.1142 1.45691L14.1015 0H8.52862L8.54141 1.45691C8.3321 1.45691 8.1228 1.46475 7.95185 1.48044C3.04685 1.72509 0 5.28974 0 9.62441C0 13.9873 3.06442 17.6084 7.98859 17.9174C8.14837 17.933 8.34648 17.9393 8.5462 17.9425L8.53342 19.4041H14.1079L14.1206 17.9425C14.3188 17.9425 14.5089 17.9346 14.6655 17.9189C19.5832 17.6053 22.6381 13.9889 22.6381 9.62598C22.6317 5.22387 19.6599 1.72508 14.6974 1.482ZM8.53981 5.44656V13.9575C6.66408 13.8007 5.6 11.7902 5.6 9.62598C5.6 6.98503 7.12103 5.54536 8.54141 5.44656H8.53981ZM17.0572 9.62598C17.0572 11.8215 16.0155 13.8117 14.1142 13.9528V5.4497C15.2183 5.54066 17.0572 6.83291 17.0572 9.62598Z" fill="#FF9E1B"/>
<path d="M33.9344 0C27.6658 0 23.4464 3.89968 23.4464 9.70204C23.4464 15.4149 27.7561 19.4041 33.9344 19.4041C40.1368 19.4041 44.4675 15.4149 44.4675 9.70204C44.4723 3.89808 40.24 0 33.9344 0ZM33.9344 15.0679C30.9493 15.0679 29.3374 12.3034 29.3374 9.70204C29.3374 7.0303 30.7589 4.33618 33.9344 4.33618C36.6774 4.33618 38.5813 6.54264 38.5813 9.70204C38.5878 12.3018 36.9581 15.0679 33.9344 15.0679Z" fill="#FF9E1B"/>
<path d="M61.4463 0H43.6592V4.58072H49.7248V19.4041H55.4064V4.58072H61.4463V0Z" fill="#FF9E1B"/>
<path d="M71.5307 0C65.5032 0 61.4461 3.89968 61.4461 9.70204C61.4461 15.4149 65.5901 19.4041 71.5307 19.4041C77.4945 19.4041 81.6587 15.4149 81.6587 9.70204C81.6649 3.89808 77.5954 0 71.5307 0ZM71.5307 15.0679C68.6604 15.0679 67.1105 12.3034 67.1105 9.70204C67.1105 7.0303 68.4774 4.33618 71.5307 4.33618C74.1682 4.33618 75.9989 6.54264 75.9989 9.70204C76.0067 12.3018 74.4397 15.0679 71.5307 15.0679Z" fill="#FF9E1B"/>
<path d="M94.5377 15.0423C91.2025 15.0423 89.0479 12.9638 89.0479 9.7516C89.0479 6.51226 91.1331 4.33458 94.2382 4.33458C95.6804 4.33458 97.3796 4.79186 98.899 5.5881L99.427 5.86471V0.978518L99.167 0.901771C97.6491 0.455682 95.8317 0 93.8647 0C87.333 0 83.2759 3.73659 83.2759 9.7532C83.2759 16.8762 88.9943 19.4041 93.8899 19.4041C94.9014 19.4025 95.9114 19.3245 96.9114 19.1706C97.6744 19.0502 98.43 18.8863 99.1748 18.6798L99.4459 18.6078V13.8863L98.9542 14.0782C97.3843 14.6906 95.775 15.0423 94.5377 15.0423Z" fill="#FF9E1B"/>
<path d="M119.153 0H112.345L106.726 8.01254V0H101.063V19.4041H106.726V10.5134L112.514 19.4041H119.659L112.282 9.05413L119.153 0Z" fill="#FF9E1B"/>
<path d="M122.345 9.83223C122.345 12.269 122.167 14.5993 120.81 14.5993H118.85V18.8768L119.125 18.9505C120.164 19.2272 121.231 19.3795 122.305 19.4041C125.944 19.4041 128.031 16.1894 128.031 10.5855V4.3888H131.758V19.2501H137.445V0H122.345V9.83223Z" fill="#FF9E1B"/>
<path d="M145.829 0L139.062 19.4041H144.651L145.536 16.7365H152.434L153.283 19.4041H159.275L152.354 0H145.829ZM151.153 12.443H146.834L149.06 5.2377L151.153 12.443Z" fill="#FF9E1B"/>
<path d="M177.773 14.5512V0H163.096L162.832 6.35763C162.67 9.93811 162.012 13.1113 161.154 14.5544H159.275V21.0211H164.825V18.8228H173.938V21.0179H179.488V14.5512H177.773ZM172.068 4.19459V14.5512H167.14C167.769 12.5421 168.214 9.80021 168.406 6.75047L168.567 4.1962L172.068 4.19459Z" fill="#FF9E1B"/>
<path d="M38.1675 34.23V33.5127C36.0464 33.4379 35.0222 32.0705 35.0222 30.6647C35.0177 30.2988 35.088 29.9359 35.2289 29.5982C35.3697 29.2604 35.578 28.9551 35.8412 28.7008C36.3916 28.1504 37.1626 27.8531 38.1675 27.8167V27.2202H39.51V27.8167C40.515 27.855 41.2879 28.1523 41.8364 28.7008C42.0995 28.9551 42.3079 29.2604 42.4487 29.5982C42.5895 29.9359 42.6599 30.2988 42.6553 30.6647C42.6553 32.0705 41.6312 33.4379 39.51 33.5127V34.23H38.1675ZM38.1675 29.0268C37.0417 29.0268 36.3993 29.6866 36.3993 30.6647C36.3993 31.6428 37.0417 32.2757 38.1675 32.3026V29.0268ZM39.51 32.3026C40.6358 32.2738 41.2783 31.6332 41.2783 30.6647C41.2783 29.6962 40.6358 29.0345 39.51 29.0268V32.3026Z" fill="#FF9E1B"/>
<path d="M45.7812 28.3173C46.4263 27.6865 47.2926 27.3333 48.1948 27.3333C49.0971 27.3333 49.9634 27.6865 50.6085 28.3173C51.2273 28.9619 51.5729 29.8209 51.5729 30.7146C51.5729 31.6082 51.2273 32.4673 50.6085 33.1119C49.9633 33.7439 49.0961 34.0978 48.1929 34.0978C47.2898 34.0978 46.4226 33.7439 45.7774 33.1119C45.1637 32.4646 44.8217 31.6066 44.8217 30.7146C44.8217 29.8226 45.1637 28.9646 45.7774 28.3173H45.7812ZM48.2016 32.8511C48.4696 32.8571 48.7359 32.8062 48.9829 32.7017C49.2298 32.5972 49.4518 32.4416 49.6342 32.245C50.0074 31.8241 50.2134 31.281 50.2134 30.7184C50.2134 30.1559 50.0074 29.6128 49.6342 29.1918C49.4518 28.9953 49.2298 28.8396 48.9829 28.7352C48.7359 28.6307 48.4696 28.5798 48.2016 28.5858C47.9321 28.5798 47.6643 28.6306 47.4158 28.735C47.1673 28.8395 46.9436 28.9951 46.7593 29.1918C46.393 29.6161 46.1914 30.1579 46.1914 30.7184C46.1914 31.2789 46.393 31.8208 46.7593 32.245C46.9436 32.4417 47.1673 32.5974 47.4158 32.7018C47.6643 32.8062 47.9321 32.8571 48.2016 32.8511Z" fill="#FF9E1B"/>
<path d="M53.0443 27.4617H58.5083V28.6623H56.4408V33.9767H55.0983V28.6623H53.0443V27.4617Z" fill="#FF9E1B"/>
<path d="M60.9284 28.3172C61.5736 27.6852 62.4408 27.3313 63.3439 27.3313C64.2471 27.3313 65.1143 27.6852 65.7595 28.3172C66.3783 28.9619 66.7239 29.8209 66.7239 30.7145C66.7239 31.6082 66.3783 32.4672 65.7595 33.1118C65.1143 33.7438 64.2471 34.0977 63.3439 34.0977C62.4408 34.0977 61.5736 33.7438 60.9284 33.1118C60.3147 32.4645 59.9727 31.6065 59.9727 30.7145C59.9727 29.8225 60.3147 28.9645 60.9284 28.3172ZM63.3487 32.851C63.6168 32.857 63.8831 32.8061 64.13 32.7016C64.377 32.5971 64.599 32.4415 64.7814 32.245C65.1545 31.824 65.3606 31.2809 65.3606 30.7183C65.3606 30.1558 65.1545 29.6127 64.7814 29.1917C64.599 28.9952 64.377 28.8396 64.13 28.7351C63.8831 28.6306 63.6168 28.5797 63.3487 28.5857C63.0792 28.5797 62.8115 28.6305 62.563 28.735C62.3145 28.8394 62.0908 28.995 61.9065 29.1917C61.5402 29.616 61.3386 30.1578 61.3386 30.7183C61.3386 31.2789 61.5402 31.8207 61.9065 32.245C62.0908 32.4417 62.3145 32.5973 62.563 32.7017C62.8115 32.8062 63.0792 32.857 63.3487 32.851Z" fill="#FF9E1B"/>
<path d="M69.1119 33.9789V27.4581H70.4429L72.332 30.1585L74.2211 27.4581H75.5406V33.9789H74.2192V29.5198L72.7213 31.6141H71.9772L70.4429 29.5198V33.9789H69.1119Z" fill="#FF9E1B"/>
<path d="M77.8113 33.9787L80.6038 27.4254H81.8887L84.6811 33.9787H83.2562L82.6137 32.4713H79.8596L79.2171 33.9787H77.8113ZM80.2777 31.3627H82.186L81.2271 29.1016L80.2777 31.3627Z" fill="#FF9E1B"/>
<path d="M86.9422 33.9789V27.4581H91.6506V28.6587H88.2809V33.9731L86.9422 33.9789Z" fill="#FF9E1B"/>
<path d="M92.2087 33.9787L95.0012 27.4254H96.2861L99.0785 33.9787H97.6536L97.0111 32.4713H94.2551L93.6126 33.9787H92.2087ZM94.6751 31.3627H96.593L95.6341 29.1016L94.6751 31.3627Z" fill="#FF9E1B"/>
<path d="M100.947 33.4954V32.1931C101.592 32.6152 102.345 32.8441 103.116 32.8529C104.111 32.8529 104.688 32.5 104.688 31.9035C104.688 31.3819 104.167 31.0942 103.3 31.0942H102.481V29.9684H103.459C104.157 29.9684 104.51 29.7268 104.51 29.2511C104.51 28.8138 104.044 28.5626 103.29 28.5626C102.567 28.5555 101.852 28.7212 101.206 29.0459V27.807C101.87 27.473 102.607 27.3095 103.35 27.3313C104.103 27.3313 104.692 27.4982 105.145 27.8434C105.359 27.9945 105.533 28.1959 105.652 28.43C105.77 28.6641 105.829 28.9236 105.824 29.1859C105.823 29.4663 105.738 29.74 105.58 29.9719C105.423 30.2039 105.2 30.3836 104.94 30.4881C105.268 30.5956 105.554 30.8052 105.755 31.0863C105.956 31.3675 106.062 31.7055 106.058 32.0512C106.058 32.3376 105.991 32.62 105.861 32.8756C105.732 33.1311 105.544 33.3527 105.314 33.5222C104.821 33.9058 104.142 34.1091 103.294 34.1091C102.469 34.1357 101.653 33.9226 100.947 33.4954Z" fill="#FF9E1B"/>
<path d="M108.586 33.9789V27.4581H109.928V31.7024L113.083 27.4581H114.234V33.9789H112.903V29.7059L109.709 33.9789H108.586Z" fill="#FF9E1B"/>
<path d="M117.072 33.9789V27.4581H118.415V29.8977H121.357V27.462H122.688V33.9827H121.357V31.1251H118.413V33.9827L117.072 33.9789Z" fill="#FF9E1B"/>
<path d="M129.298 33.9786V27.4579H130.449L133.736 31.6273V27.4617H135.039V33.9824H133.93L130.616 29.7938V33.9824L129.298 33.9786ZM137.313 27.408C137.531 27.3998 137.748 27.4361 137.952 27.5146C138.155 27.593 138.341 27.7121 138.496 27.8644C138.794 28.1672 138.961 28.575 138.961 28.9998C138.961 29.4246 138.794 29.8324 138.496 30.1352C138.172 30.4283 137.751 30.5906 137.314 30.5906C136.877 30.5906 136.456 30.4283 136.132 30.1352C135.833 29.8327 135.666 29.4248 135.666 28.9998C135.666 28.5749 135.833 28.167 136.132 27.8644C136.287 27.7118 136.472 27.5924 136.675 27.5136C136.878 27.4348 137.095 27.3982 137.313 27.4061V27.408ZM135.796 31.8843V31.0845H138.83V31.8843H135.796ZM137.313 29.7516C137.412 29.7541 137.509 29.7364 137.601 29.6998C137.692 29.6632 137.775 29.6084 137.844 29.5387C137.983 29.3932 138.06 29.1999 138.06 28.9989C138.06 28.7978 137.983 28.6045 137.844 28.459C137.775 28.389 137.692 28.3338 137.601 28.2969C137.51 28.2599 137.412 28.242 137.313 28.2442C137.213 28.2419 137.114 28.2598 137.021 28.2967C136.928 28.3336 136.843 28.3888 136.772 28.459C136.642 28.6087 136.57 28.8004 136.57 28.9989C136.57 29.1973 136.642 29.389 136.772 29.5387C136.844 29.6087 136.928 29.6636 137.021 29.7002C137.114 29.7367 137.213 29.7542 137.313 29.7516Z" fill="#FF9E1B"/>
<path d="M142.27 33.9788V28.8926L140.891 29.5907V28.2789L142.426 27.46H143.59V33.9807L142.27 33.9788Z" fill="#FF9E1B"/>
</svg>
